<svg class="fill-current" width="100" height="100" viewBox="0 0 100 100" xmlns="http://www.w3.org/2000/svg">
<path d="M97.4742 46.1428L70.3252 8.17444C68.0403 4.94882 64.3443 3 60.3795 3C50.3666 3 44.5873 14.2897 50.3666 22.421L70.0564 50.0404L50.3666 77.6598C44.5201 85.7911 50.3666 97.0808 60.3795 97.0808C64.3443 97.0808 68.1075 95.132 70.3923 91.9063L97.5414 53.938C99.1542 51.586 99.1542 48.4948 97.4742 46.1428Z"/>
<path d="M50.4346 46.1428L23.3528 8.17444C21.0008 4.94882 17.3048 3 13.3399 3C3.32704 3 -2.51941 14.2897 3.32704 22.421L23.0168 50.0404L3.32704 77.6598C-2.51941 85.7911 3.32704 97.0808 13.3399 97.0808C17.3048 97.0808 21.068 95.1319 23.3528 91.9063L50.5018 53.938C52.1146 51.586 52.1146 48.4948 50.4346 46.1428Z"/>
</svg>
