<svg width="100" height="100" viewBox="0 0 100 100" fill="none" xmlns="http://www.w3.org/2000/svg">
<path d="M50 20C53.8677 20 57.5771 21.5365 60.312 24.2714C63.0469 27.0063 64.5833 30.7156 64.5833 34.5833C64.5833 38.4511 63.0469 42.1604 60.312 44.8953C57.5771 47.6302 53.8677 49.1667 50 49.1667C46.1323 49.1667 42.4229 47.6302 39.688 44.8953C36.9531 42.1604 35.4167 38.4511 35.4167 34.5833C35.4167 30.7156 36.9531 27.0063 39.688 24.2714C42.4229 21.5365 46.1323 20 50 20ZM20.8333 30.4167C23.1667 30.4167 25.3333 31.0417 27.2083 32.1667C26.5833 38.125 28.3333 44.0417 31.9167 48.6667C29.8333 52.6667 25.6667 55.4167 20.8333 55.4167C17.5181 55.4167 14.3387 54.0997 11.9945 51.7555C9.65029 49.4113 8.33333 46.2319 8.33333 42.9167C8.33333 39.6015 9.65029 36.422 11.9945 34.0778C14.3387 31.7336 17.5181 30.4167 20.8333 30.4167ZM79.1667 30.4167C82.4819 30.4167 85.6613 31.7336 88.0055 34.0778C90.3497 36.422 91.6667 39.6015 91.6667 42.9167C91.6667 46.2319 90.3497 49.4113 88.0055 51.7555C85.6613 54.0997 82.4819 55.4167 79.1667 55.4167C74.3333 55.4167 70.1667 52.6667 68.0833 48.6667C71.7161 43.9767 73.4024 38.0675 72.7917 32.1667C74.6667 31.0417 76.8333 30.4167 79.1667 30.4167ZM22.9167 73.125C22.9167 64.5 35.0417 57.5 50 57.5C64.9583 57.5 77.0833 64.5 77.0833 73.125V80.4167H22.9167V73.125ZM0 80.4167V74.1667C0 68.375 7.875 63.5 18.5417 62.0833C16.0833 64.9167 14.5833 68.8333 14.5833 73.125V80.4167H0ZM100 80.4167H85.4167V73.125C85.4167 68.8333 83.9167 64.9167 81.4583 62.0833C92.125 63.5 100 68.375 100 74.1667V80.4167Z" fill="#6743F5"/>
</svg>
