<svg width="100" height="100" viewBox="0 0 100 100" fill="none" xmlns="http://www.w3.org/2000/svg">
<path d="M46.9992 10C54.7695 10.0005 62.2742 12.8275 68.1136 17.9537C73.953 23.08 77.666 30 78.7352 37.86C78.7352 37.86 79.3327 45 81.8327 46.6667C84.3327 48.3333 85.8317 50.8333 85.8317 53.3333C85.8317 55.8333 84.332 57 81.8327 57.5C79.3333 58 78.9992 58.28 78.9992 58.28V64.14V70C78.9992 72.1217 78.1564 74.1566 76.6561 75.6569C75.1558 77.1571 73.121 78 70.9992 78H63.0032L62.9992 90H26.9992V75.224C26.9992 70.504 25.2552 66.036 22.0232 62.004C18.2543 57.2981 15.8914 51.6232 15.2069 45.633C14.5224 39.6428 15.5441 33.5811 18.1543 28.1463C20.7645 22.7114 24.857 18.1245 29.9603 14.9141C35.0636 11.7036 40.9701 10.0001 46.9992 10ZM44.8792 33.052C44.2336 32.3833 43.4613 31.8499 42.6074 31.4828C41.7534 31.1158 40.8349 30.9225 39.9055 30.9142C38.976 30.906 38.0542 31.0829 37.1939 31.4347C36.3335 31.7865 35.5519 32.3061 34.8945 32.9632C34.2371 33.6203 33.7172 34.4018 33.365 35.262C33.0129 36.1222 32.8356 37.0439 32.8435 37.9734C32.8514 38.9028 33.0443 39.8214 33.411 40.6755C33.7777 41.5296 34.3108 42.3021 34.9792 42.948L46.9992 54.972L59.0192 42.948C59.6877 42.3021 60.2208 41.5296 60.5875 40.6755C60.9542 39.8214 61.1471 38.9028 61.155 37.9734C61.1629 37.0439 60.9856 36.1222 60.6334 35.262C60.2813 34.4018 59.7614 33.6203 59.104 32.9632C58.4466 32.3061 57.6649 31.7865 56.8046 31.4347C55.9442 31.0829 55.0224 30.906 54.093 30.9142C53.1635 30.9225 52.245 31.1158 51.3911 31.4828C50.5371 31.8499 49.7648 32.3833 49.1192 33.052L46.9992 35.172L44.8792 33.052Z" fill="#6743F5"/>
</svg>
