<svg width="100" height="100" viewBox="0 0 100 100" fill="none" xmlns="http://www.w3.org/2000/svg">
<path d="M28.2079 42.65C26.2307 42.65 24.7469 41.7697 23.7566 40.0092C22.7698 38.2452 22.7921 36.5035 23.8237 34.7842L43.0368 3.45C44.0684 1.81667 45.5298 1 47.4211 1C49.3123 1 50.7737 1.81667 51.8053 3.45L71.0184 34.7842C72.05 36.5035 72.0706 38.2452 71.0803 40.0092C70.0934 41.7697 68.6114 42.65 66.6342 42.65H28.2079ZM75.7895 99.3868C69.3421 99.3868 63.861 97.1311 59.3461 92.6197C54.8347 88.1048 52.5789 82.6237 52.5789 76.1763C52.5789 69.7289 54.8347 64.2478 59.3461 59.7329C63.861 55.2215 69.3421 52.9658 75.7895 52.9658C82.2368 52.9658 87.718 55.2215 92.2328 59.7329C96.7443 64.2478 99 69.7289 99 76.1763C99 82.6237 96.7443 88.1048 92.2328 92.6197C87.718 97.1311 82.2368 99.3868 75.7895 99.3868ZM6.15789 96.8079C4.69649 96.8079 3.47235 96.3127 2.48547 95.3224C1.49516 94.3355 1 93.1114 1 91.65V60.7026C1 59.2412 1.49516 58.0154 2.48547 57.025C3.47235 56.0382 4.69649 55.5447 6.15789 55.5447H37.1053C38.5667 55.5447 39.7925 56.0382 40.7828 57.025C41.7697 58.0154 42.2632 59.2412 42.2632 60.7026V91.65C42.2632 93.1114 41.7697 94.3355 40.7828 95.3224C39.7925 96.3127 38.5667 96.8079 37.1053 96.8079H6.15789Z" fill="white"/>
</svg>
