<svg width="100" height="100" viewBox="0 0 100 100" fill="none" xmlns="http://www.w3.org/2000/svg">
<path d="M17.4982 54.5562V66.6353C17.4982 69.7733 19.2177 72.6964 21.9688 74.2009L43.4618 85.9361C46.041 87.3546 49.136 87.3546 51.7152 85.9361L73.2082 74.2009C75.9593 72.6964 77.6788 69.7733 77.6788 66.6353V54.5562L51.7152 68.7417C49.136 70.1602 46.041 70.1602 43.4618 68.7417L17.4982 54.5562ZM43.4618 13.0317L7.22453 32.8053C4.25849 34.4387 4.25849 38.7374 7.22453 40.3708L43.4618 60.1444C46.041 61.563 49.136 61.563 51.7152 60.1444L86.276 41.2735V66.6783C86.276 69.0426 88.2104 70.9769 90.5746 70.9769C92.9388 70.9769 94.8732 69.0426 94.8732 66.6783V39.1242C94.8732 37.5337 94.0135 36.1152 92.6379 35.3415L51.7152 13.0317C50.4451 12.3543 49.0279 12 47.5885 12C46.1491 12 44.7319 12.3543 43.4618 13.0317Z" fill="#6743F5"/>
</svg>
