<svg width="98" height="98" viewBox="0 0 98 98" fill="" xmlns="http://www.w3.org/2000/svg">
<path d="M85.9749 46.6891H79.0421V28.2017C79.0421 23.1176 74.8825 18.958 69.7984 18.958H51.311V12.0252C51.311 8.96073 50.0937 6.02176 47.9268 3.85485C45.7599 1.68794 42.8209 0.470581 39.7564 0.470581C36.6919 0.470581 33.753 1.68794 31.5861 3.85485C29.4192 6.02176 28.2018 8.96073 28.2018 12.0252V18.958H9.7144C4.63037 18.958 0.516922 23.1176 0.516922 28.2017V45.7647H7.40348C14.29 45.7647 19.8825 51.3571 19.8825 58.2437C19.8825 65.1302 14.29 70.7227 7.40348 70.7227H0.470703V88.2857C0.470703 93.3697 4.63037 97.5294 9.7144 97.5294H27.2774V90.5966C27.2774 83.7101 32.8699 78.1176 39.7564 78.1176C46.643 78.1176 52.2354 83.7101 52.2354 90.5966V97.5294H69.7984C74.8825 97.5294 79.0421 93.3697 79.0421 88.2857V69.7983H85.9749C89.0394 69.7983 91.9783 68.581 94.1453 66.414C96.3122 64.2471 97.5295 61.3082 97.5295 58.2437C97.5295 55.1792 96.3122 52.2402 94.1453 50.0733C91.9783 47.9064 89.0394 46.6891 85.9749 46.6891V46.6891Z" fill=""/>
</svg>
