<svg width="1969" height="527" viewBox="0 0 1969 527" fill="none" xmlns="http://www.w3.org/2000/svg">
<path d="M869.049 236.837C832.248 119.409 919.962 0 1043.02 0H1700.75C1848.9 0 1969 120.101 1969 268.254C1969 410.816 1853.43 526.385 1710.87 526.385H1093.71C1014.03 526.385 943.573 474.632 919.743 398.592L869.049 236.837Z" fill="url(#paint0_radial_202_1060)"/>
<mask id="mask0_202_1060" style="mask-type:alpha" maskUnits="userSpaceOnUse" x="25" y="33" width="1898" height="460">
<path d="M25.8407 50.2324H310.663V130.626H207.874V472.872H124.61V130.626H25.8407V50.2324ZM314.647 53.1037H412.267L502.423 318.402L489.215 312.659L567.886 116.844L606.36 231.118L484.621 492.396L314.647 53.1037ZM526.541 53.1037H609.231L713.168 309.788L698.238 307.491L775.76 53.1037H865.341L702.258 491.248L526.541 53.1037ZM792.902 472.872L983.549 33.5795H988.143L1178.79 472.872H1082.32L960.58 163.932L1020.87 122.587L875.018 472.872H792.902ZM923.254 320.125H1050.16L1079.45 390.182H897.413L923.254 320.125ZM1200.2 50.2324H1283.47V392.479H1482.15V472.872H1200.2V50.2324ZM1490.26 262.126C1490.26 233.032 1495.81 205.468 1506.91 179.436C1518.02 153.404 1533.33 130.434 1552.85 110.527C1572.76 90.2377 1595.73 74.3505 1621.76 62.8657C1647.79 51.3809 1675.74 45.6386 1705.6 45.6386C1735.08 45.6386 1762.83 51.3809 1788.86 62.8657C1814.9 74.3505 1837.87 90.2377 1857.77 110.527C1878.06 130.434 1893.76 153.404 1904.86 179.436C1916.35 205.468 1922.09 233.032 1922.09 262.126C1922.09 291.987 1916.35 319.933 1904.86 345.965C1893.76 371.997 1878.06 394.967 1857.77 414.874C1837.87 434.398 1814.9 449.711 1788.86 460.813C1762.83 471.915 1735.08 477.466 1705.6 477.466C1675.74 477.466 1647.79 471.915 1621.76 460.813C1595.73 449.711 1572.76 434.398 1552.85 414.874C1533.33 394.967 1518.02 371.997 1506.91 345.965C1495.81 319.933 1490.26 291.987 1490.26 262.126ZM1576.4 262.126C1576.4 280.885 1579.65 298.495 1586.16 314.956C1593.05 331.035 1602.43 345.391 1614.3 358.024C1626.55 370.275 1640.52 379.845 1656.22 386.736C1672.29 393.627 1689.71 397.072 1708.47 397.072C1726.46 397.072 1743.12 393.627 1758.43 386.736C1774.13 379.845 1787.72 370.275 1799.2 358.024C1810.69 345.391 1819.68 331.035 1826.19 314.956C1832.7 298.495 1835.95 280.885 1835.95 262.126C1835.95 242.985 1832.51 225.184 1825.62 208.722C1819.11 192.261 1809.92 177.905 1798.05 165.654C1786.57 153.021 1772.98 143.259 1757.28 136.368C1741.59 129.477 1724.55 126.032 1706.17 126.032C1687.8 126.032 1670.76 129.477 1655.07 136.368C1639.37 143.259 1625.59 153.021 1613.72 165.654C1601.85 177.905 1592.67 192.261 1586.16 208.722C1579.65 225.184 1576.4 242.985 1576.4 262.126Z" fill="#883EE6"/>
</mask>
<g mask="url(#mask0_202_1060)">
<path d="M25.7584 0H740.772L897.859 526.385H25.7584V0Z" fill="url(#paint1_radial_202_1060)"/>
<path d="M695.473 0H1968.67V526.385H875.782L695.473 0Z" fill="white"/>
</g>
<defs>
<radialGradient id="paint0_radial_202_1060" cx="0" cy="0" r="1" gradientUnits="userSpaceOnUse" gradientTransform="translate(1267.05 33.4643) rotate(53.9716) scale(570.361 940.422)">
<stop stop-color="#320C9D"/>
<stop offset="1" stop-color="#748AFC"/>
</radialGradient>
<radialGradient id="paint1_radial_202_1060" cx="0" cy="0" r="1" gradientUnits="userSpaceOnUse" gradientTransform="translate(376.494 33.4643) rotate(61.6225) scale(524.263 759.901)">
<stop stop-color="#320C9D"/>
<stop offset="1" stop-color="#748AFC"/>
</radialGradient>
</defs>
</svg>
