<svg width="439" height="444" viewBox="0 0 439 444" fill="none" xmlns="http://www.w3.org/2000/svg">
<g clip-path="url(#clip0_202_3734)">
<path d="M42.075 303.273H15.595V314.463H42.075V303.273Z" fill="#EBEBEB"/>
<path d="M27.305 317.383H0.825012V328.573H27.305V317.383Z" fill="#EBEBEB"/>
<path d="M213.595 88.5326H187.115V99.7226H213.595V88.5326Z" fill="#EBEBEB"/>
<path d="M198.815 102.643H172.335V113.833H198.815V102.643Z" fill="#EBEBEB"/>
<path d="M184.105 88.5326H157.625V99.7226H184.105V88.5326Z" fill="#EBEBEB"/>
<path d="M438.145 317.383H411.665V328.573H438.145V317.383Z" fill="#EBEBEB"/>
<path d="M423.375 1.98254H396.895V13.1725H423.375V1.98254Z" fill="#EBEBEB"/>
<path d="M438.145 16.0925H411.665V27.2825H438.145V16.0925Z" fill="#EBEBEB"/>
<path d="M42.075 1.98254H15.595V13.1725H42.075V1.98254Z" fill="#EBEBEB"/>
<path d="M413.165 58.9825H253.005V65.8625H413.165V58.9825Z" fill="#EBEBEB"/>
<path d="M276.295 92.9225H270.055L267.555 65.8525H276.295V92.9225Z" fill="#EBEBEB"/>
<path d="M389.885 92.9225H396.125L398.625 65.8525H389.885V92.9225Z" fill="#EBEBEB"/>
<path d="M267.555 65.8625H276.295V75.1825H268.415L267.555 65.8625Z" fill="#DBDBDB"/>
<path d="M398.625 65.8625L397.765 75.1825H389.885V65.8625H398.625Z" fill="#DBDBDB"/>
<path d="M311.005 17.7225C303.895 27.3525 296.485 38.5225 294.685 50.5925C294.685 50.7725 294.955 50.8325 294.995 50.6525C295.816 47.3603 296.866 44.1292 298.135 40.9825C302.815 39.7025 307.395 38.6425 309.855 33.9825C312.315 29.3225 312.035 22.9825 311.555 17.8125C311.485 17.5525 311.145 17.5425 311.005 17.7225Z" fill="#EBEBEB"/>
<path d="M298.205 40.8926C301.341 33.5592 305.558 26.7369 310.715 20.6526C310.715 20.6526 310.795 20.6526 310.715 20.7126C307.463 24.9123 304.607 29.4049 302.185 34.1326C304.535 31.7426 307.115 29.6026 309.345 27.0626C309.345 27.0626 309.455 27.0626 309.415 27.1326C307.205 29.7926 304.785 32.6826 301.905 34.6426C301.125 36.0693 300.342 37.4993 299.555 38.9326C299.755 38.8226 299.955 38.7326 300.155 38.6326C300.155 38.6326 300.215 38.6326 300.155 38.6326C299.935 38.7426 299.715 38.8626 299.485 38.9626C299.115 39.6326 298.745 40.3126 298.355 40.9626C298.355 41.1826 298.145 41.0426 298.205 40.8926Z" fill="#A6A6A6"/>
<path d="M300.585 38.3926C302.495 37.3253 304.317 36.1081 306.035 34.7526C306.085 34.7526 306.155 34.7526 306.105 34.8226C304.437 36.2604 302.612 37.505 300.665 38.5326C300.575 38.5726 300.485 38.4426 300.585 38.3926Z" fill="#A6A6A6"/>
<path d="M293.905 50.4825C293.905 50.6225 294.165 50.6225 294.165 50.4825C294.165 46.4825 294.165 42.4825 294.225 38.4825C295.225 36.4825 297.435 35.2925 298.955 33.6425C300.045 32.4413 300.995 31.1194 301.785 29.7025C303.62 26.2983 304.739 22.5551 305.075 18.7025C305.495 14.4525 303.885 0.422546 302.075 0.912546C301.145 1.16255 298.145 8.11255 297.345 10.4025C296.036 14.2068 295.078 18.1233 294.485 22.1025C293.212 31.5096 293.018 41.0313 293.905 50.4825Z" fill="#EBEBEB"/>
<path d="M293.875 33.3326C294.254 28.2736 295.06 23.2557 296.285 18.3326C297.425 13.0726 298.765 8.12259 301.465 3.43259C301.476 3.41402 301.493 3.40043 301.514 3.39481C301.534 3.38918 301.556 3.39198 301.575 3.40259C301.594 3.4132 301.607 3.43075 301.613 3.45138C301.618 3.47201 301.616 3.49403 301.605 3.51259C299.819 7.16081 298.437 10.9936 297.485 14.9426C297.675 14.6626 297.895 14.3926 298.075 14.1226C298.155 14.0226 298.325 14.1226 298.255 14.2326C298.007 14.6535 297.723 15.0517 297.405 15.4226C296.475 19.1726 295.805 23.0126 295.235 26.8526L295.355 26.7026C295.355 26.7026 295.435 26.7026 295.415 26.7026L295.195 27.0826C294.905 29.0326 294.635 30.9726 294.365 32.8926C297.916 30.04 300.697 26.3445 302.455 22.1426C300.977 26.6231 298.117 30.5198 294.285 33.2726C294.205 33.7926 294.135 34.2726 294.065 34.8326C294.065 34.9326 293.875 34.9126 293.875 34.8326C293.875 34.3726 293.875 33.9126 293.875 33.4626C293.835 33.4526 293.815 33.3826 293.875 33.3326Z" fill="#A6A6A6"/>
<path d="M295.485 26.0426C298.188 22.2063 300.551 18.1408 302.545 13.8926C302.545 13.8426 302.645 13.8926 302.635 13.8926C301.051 18.3518 298.68 22.4907 295.635 26.1126C295.575 26.2126 295.485 26.1226 295.485 26.0426Z" fill="#A6A6A6"/>
<path d="M299.025 12.9125C300.125 10.9725 301.275 9.08254 302.315 7.10254C302.315 7.05254 302.415 7.10254 302.395 7.10254C301.548 9.1679 300.474 11.1332 299.195 12.9625C299.182 12.9757 299.166 12.9851 299.149 12.9897C299.131 12.9944 299.112 12.9941 299.095 12.989C299.077 12.9838 299.062 12.974 299.049 12.9605C299.037 12.947 299.029 12.9304 299.025 12.9125Z" fill="#A6A6A6"/>
<path d="M291.955 40.2925C291.905 42.9263 291.597 45.5488 291.035 48.1226L291.155 48.9826C291.964 46.1379 292.434 43.2076 292.555 40.2525C292.578 40.2112 292.59 40.1647 292.59 40.1175C292.59 40.0703 292.578 40.0239 292.555 39.9825C292.672 36.0194 292.377 32.0548 291.675 28.1525C290.445 20.8525 287.755 13.8425 282.675 8.36255C282.633 8.32647 282.583 8.30061 282.529 8.28696C282.476 8.27332 282.419 8.27226 282.365 8.28387C282.311 8.29548 282.26 8.31946 282.217 8.35392C282.174 8.38838 282.139 8.4324 282.115 8.48255C280.055 13.7125 280.775 19.9425 282.525 25.1625C283.461 27.985 284.809 30.6537 286.525 33.0825C288.315 35.5325 290.535 37.6525 291.955 40.2925Z" fill="#EBEBEB"/>
<path d="M283.275 10.8026C288.105 18.6326 291.465 27.9326 291.875 37.1826C291.875 37.3526 291.605 37.3926 291.585 37.1826C291.465 36.3526 291.345 35.5326 291.205 34.7126C289.105 32.8594 287.262 30.7339 285.725 28.3926C285.725 28.3926 285.725 28.3026 285.795 28.3426C287.452 30.3762 289.229 32.3096 291.115 34.1326C290.765 32.0826 290.355 30.0726 289.875 28.0826L289.485 27.6526C289.405 27.5626 289.545 27.4126 289.635 27.5126L289.745 27.6426C289.069 24.9269 288.228 22.2552 287.225 19.6426C285.884 18.2863 284.71 16.7757 283.725 15.1426C283.725 15.1426 283.725 15.0726 283.795 15.1426C284.485 16.1813 285.229 17.1827 286.025 18.1426C286.345 18.5126 286.705 18.8626 287.025 19.2326C285.9 16.3894 284.563 13.635 283.025 10.9926C283.025 10.7926 283.205 10.6526 283.275 10.8026Z" fill="#A6A6A6"/>
<path d="M284.255 20.4726C285.815 22.5726 287.595 24.5726 289.045 26.7426C289.045 26.8026 288.995 26.8726 288.945 26.8226C287.09 24.933 285.478 22.8202 284.145 20.5326C284.137 20.518 284.135 20.5009 284.14 20.4849C284.145 20.469 284.155 20.4555 284.17 20.4476C284.185 20.4396 284.202 20.4378 284.218 20.4425C284.234 20.4472 284.247 20.458 284.255 20.4726Z" fill="#A6A6A6"/>
<path d="M289.265 27.2325L289.325 27.2925C289.336 27.3018 289.342 27.3149 289.343 27.329C289.344 27.343 289.339 27.3569 289.33 27.3675C289.321 27.3781 289.308 27.3846 289.294 27.3855C289.279 27.3865 289.266 27.3818 289.255 27.3725L289.185 27.3025C289.176 27.2919 289.171 27.278 289.172 27.264C289.173 27.2499 289.179 27.2368 289.19 27.2275C289.201 27.2182 289.214 27.2135 289.229 27.2145C289.243 27.2154 289.256 27.2219 289.265 27.2325Z" fill="#A6A6A6"/>
<path d="M274.965 23.8826C275.529 28.2755 277.294 32.4277 280.065 35.8826C281.201 37.2329 282.608 38.3299 284.195 39.1026C285.985 39.9926 287.855 41.0126 289.705 41.7326C290.587 43.9676 291.24 46.2861 291.655 48.6526L291.835 48.0326C290.655 37.8326 284.045 29.1026 275.595 23.5026C275.531 23.4612 275.456 23.4387 275.379 23.4377C275.303 23.4366 275.227 23.457 275.162 23.4965C275.096 23.5361 275.043 23.5932 275.008 23.6615C274.973 23.7297 274.958 23.8063 274.965 23.8826Z" fill="#EBEBEB"/>
<path d="M278.065 30.4225C278.177 30.491 278.284 30.5679 278.385 30.6525C278.385 30.6525 278.385 30.7225 278.385 30.7125L278.055 30.5225C277.955 30.4825 278.005 30.3925 278.065 30.4225Z" fill="#A6A6A6"/>
<path d="M302.225 58.9825H284.825L285.685 47.5725L286.015 43.8525H300.885L301.215 47.5725L302.225 58.9825Z" fill="#DBDBDB"/>
<path d="M301.215 47.5725H285.685L286.015 43.8525H300.885L301.215 47.5725Z" fill="#C7C7C7"/>
<path d="M302.065 40.8025H284.825V44.6125H302.065V40.8025Z" fill="#DBDBDB"/>
<path d="M344.505 58.9526V17.5426H334.075V58.9526H344.505Z" fill="#C7C7C7"/>
<path d="M344.505 19.8825V15.3325H334.075V19.8825H344.505Z" fill="#DBDBDB"/>
<path d="M344.505 27.4025V25.7125H334.075V27.4025H344.505Z" fill="#DBDBDB"/>
<path d="M344.505 53.5225V48.9725H334.075V53.5225H344.505Z" fill="#DBDBDB"/>
<path d="M351.785 58.9526V10.6526H344.495V58.9526H351.785Z" fill="#DBDBDB"/>
<path d="M350.305 33.7725V15.1925H345.935V33.7725H350.305Z" fill="#EBEBEB"/>
<path d="M403.681 53.7288L369.331 19.7728L364.206 24.9572L398.556 58.9132L403.681 53.7288Z" fill="#C7C7C7"/>
<path d="M394.609 46.7813L381.396 33.7191L378.324 36.8269L391.537 49.8891L394.609 46.7813Z" fill="#DBDBDB"/>
<path d="M364.155 58.9626V22.2726H351.775V58.9626H364.155Z" fill="#A6A6A6"/>
<path d="M364.165 55.0726V51.6526H351.785V55.0726H364.165Z" fill="#C7C7C7"/>
<path d="M364.165 49.4125V48.0825H351.785V49.4125H364.165Z" fill="#C7C7C7"/>
<path d="M320.566 58.9963L334.166 27.3116L326.309 23.9393L312.709 55.624L320.566 58.9963Z" fill="#A6A6A6"/>
<path d="M321.999 55.6243L323.265 52.6746L315.408 49.3022L314.142 52.252L321.999 55.6243Z" fill="#C7C7C7"/>
<path d="M330.091 36.7894L331.357 33.8396L323.5 30.4673L322.234 33.4171L330.091 36.7894Z" fill="#C7C7C7"/>
<path d="M328.724 39.9646L329.217 38.8159L321.36 35.4436L320.867 36.5923L328.724 39.9646Z" fill="#C7C7C7"/>
<path d="M54.265 50.6526V2.12256H102.775V50.6526H54.265ZM56.555 4.43256V48.3326H100.485V4.40256L56.555 4.43256Z" fill="#C7C7C7"/>
<path d="M97.325 39.8326V24.6426L63.085 24.6426V39.8326H97.325Z" fill="#EBEBEB"/>
<path d="M64.105 109.723H75.575V76.5825H64.105V109.723Z" fill="#C7C7C7"/>
<path d="M61.425 140.713V155.123H85.535V140.713H61.425Z" fill="#EBEBEB"/>
<path d="M54.265 115.783V67.2726H102.775V115.783H54.265ZM56.555 69.5626V113.493H100.485V69.5626H56.555Z" fill="#C7C7C7"/>
<path d="M54.265 180.932V132.432H102.775V180.932H54.265ZM56.555 134.723V178.652H100.485V134.723H56.555Z" fill="#C7C7C7"/>
<path d="M87.285 35.1325V17.5925H69.745V35.1325H87.285Z" fill="#C7C7C7"/>
<path d="M87.295 100.293V82.7526H69.755V100.293H87.295Z" fill="#EBEBEB"/>
<path d="M87.295 165.453V147.913H69.755V165.453H87.295Z" fill="#C7C7C7"/>
<path d="M219.485 434.843C319.112 434.843 399.875 423.959 399.875 410.533C399.875 397.106 319.112 386.223 219.485 386.223C119.858 386.223 39.095 397.106 39.095 410.533C39.095 423.959 119.858 434.843 219.485 434.843Z" fill="#EBEBEB"/>
<path d="M2.88501 372.143L57.035 371.903L111.185 371.813L219.485 371.643L327.785 371.813L381.935 371.903L436.085 372.143L381.935 372.393L327.785 372.473L219.485 372.643L111.185 372.473L57.035 372.393L2.88501 372.143Z" fill="#263238"/>
<path d="M55.915 194.103C55.915 194.103 80.915 190.603 75.065 160.443C75.065 160.443 47.145 166.703 55.915 194.103Z" fill="#9382FF"/>
<path opacity="0.1" d="M55.915 194.103C55.915 194.103 80.915 190.603 75.065 160.443C75.065 160.443 47.145 166.703 55.915 194.103Z" fill="black"/>
<path d="M57.185 187.813C57.6758 186.285 58.2431 184.783 58.885 183.313C58.885 183.123 58.885 182.923 58.945 182.743C58.945 182.323 59.025 181.913 59.055 181.493C59.125 180.593 59.175 179.693 59.235 178.793C59.335 176.993 59.455 175.183 59.485 173.383C59.485 173.283 59.635 173.293 59.635 173.383C59.635 175.193 59.635 176.993 59.635 178.803C59.635 179.703 59.555 180.603 59.495 181.503C59.495 181.703 59.495 181.903 59.495 182.103C60.897 179.099 62.5707 176.231 64.495 173.533C65.355 172.333 66.2683 171.179 67.235 170.073C68.235 168.933 69.235 167.843 70.235 166.713C70.305 166.643 70.415 166.713 70.345 166.833C68.5483 168.816 66.9351 170.958 65.525 173.233C64.765 174.383 64.055 175.563 63.365 176.763L63.605 176.673C63.895 176.543 64.195 176.423 64.495 176.313C65.165 176.043 65.845 175.793 66.495 175.533C67.835 175.043 69.175 174.533 70.495 174.043C70.575 174.043 70.625 174.153 70.495 174.183C69.165 174.713 67.855 175.273 66.495 175.843L64.565 176.673L63.565 177.073C63.3558 177.177 63.134 177.254 62.905 177.303C62.405 178.213 61.905 179.123 61.445 180.043C60.2833 182.38 59.2615 184.784 58.385 187.243L58.205 187.763C58.8455 187.379 59.5141 187.045 60.205 186.763L62.795 185.583C64.545 184.783 66.285 183.963 67.965 183.013C67.9836 183.002 68.0056 182.999 68.0262 183.005C68.0469 183.01 68.0644 183.024 68.075 183.043C68.0856 183.061 68.0884 183.083 68.0828 183.104C68.0772 183.124 68.0636 183.142 68.045 183.153C66.325 184.093 64.645 185.083 62.925 186.023C62.065 186.483 61.195 186.943 60.315 187.373C59.5817 187.799 58.79 188.116 57.965 188.313C57.1835 190.606 56.6864 192.988 56.485 195.403C56.215 198.813 56.245 202.253 56.165 205.673H56.075C55.825 202.573 55.685 199.443 55.665 196.333C55.7129 193.43 56.226 190.553 57.185 187.813Z" fill="#263238"/>
<path d="M61.035 170.063C61.2745 171.825 61.3548 173.606 61.275 175.383H61.205C61.105 173.623 61.085 171.863 60.885 170.103C60.875 170.003 61.015 169.973 61.035 170.063Z" fill="#263238"/>
<path d="M68.175 171.573C69.2931 171.147 70.3708 170.621 71.395 170.003C71.475 169.943 71.545 170.083 71.465 170.133C70.4619 170.796 69.3669 171.308 68.215 171.653C68.155 171.703 68.115 171.653 68.175 171.573Z" fill="#263238"/>
<path d="M55.125 242.003C55.125 239.243 55.195 236.483 55.225 233.713C55.275 224.543 55.355 215.373 55.515 206.203C55.6417 198.923 55.8117 191.643 56.025 184.363C56.0273 184.343 56.0351 184.324 56.0474 184.308C56.0598 184.292 56.0762 184.28 56.095 184.273C56.095 182.273 56.095 180.273 56.095 178.273C56.095 178.223 56.155 178.203 56.215 178.203C56.275 178.203 56.335 178.203 56.335 178.283V184.283C56.3519 184.291 56.3663 184.304 56.3768 184.32C56.3874 184.335 56.3936 184.354 56.395 184.373C56.765 197.373 57.095 210.293 57.165 223.253C57.165 225.883 57.165 228.523 57.165 231.153C57.2583 239.599 57.2883 248.049 57.255 256.503C57.255 257.853 57.255 259.193 57.255 260.503C57.255 268.233 57.175 275.963 57.175 283.693C57.175 284.113 56.715 284.313 56.175 284.333C55.635 284.353 55.015 284.133 55.015 283.653C55.015 275.133 54.955 266.603 54.955 258.083C55.105 252.753 55.085 247.373 55.125 242.003Z" fill="#263238"/>
<path d="M65.555 233.653C65.555 233.653 77.555 224.743 88.985 230.763C100.415 236.783 102.185 259.973 102.185 259.973C102.185 259.973 85.435 262.373 74.885 252.333C64.715 242.653 65.555 233.653 65.555 233.653Z" fill="#9382FF"/>
<path d="M62.285 234.163C64.5056 233.279 66.9123 232.966 69.285 233.253C69.7704 233.166 70.262 233.12 70.755 233.113L72.455 232.983L75.955 232.733C78.325 232.553 80.705 232.413 83.075 232.173C83.155 232.173 83.175 232.313 83.075 232.323C80.725 232.623 78.395 232.953 76.075 233.193C74.865 233.313 73.665 233.443 72.445 233.523L71.485 233.653C71.845 233.733 72.205 233.813 72.555 233.913C74.4432 234.463 76.2695 235.207 78.005 236.133C79.005 236.303 79.895 236.563 80.825 236.783C82.305 237.133 83.825 237.513 85.265 237.903C88.185 238.673 91.075 239.533 93.975 240.373C93.9903 240.378 94.0035 240.389 94.0128 240.402C94.0222 240.415 94.0272 240.431 94.0272 240.448C94.0272 240.464 94.0222 240.48 94.0128 240.493C94.0035 240.507 93.9903 240.517 93.975 240.523C91.085 239.813 88.175 239.163 85.275 238.473C83.865 238.133 82.455 237.803 81.045 237.473L79.945 237.223C83.1723 239.224 86.0559 241.733 88.485 244.653C90.8337 247.523 92.8281 250.665 94.425 254.013C94.425 254.103 94.345 254.183 94.295 254.093C92.3115 250.646 89.8878 247.473 87.085 244.653C87.145 244.813 87.195 244.973 87.245 245.133C87.465 245.843 87.685 246.553 87.915 247.253C88.355 248.673 88.805 250.083 89.235 251.513C89.235 251.603 89.115 251.633 89.085 251.513C88.575 250.143 88.085 248.763 87.615 247.383L86.895 245.383L86.535 244.333C86.535 244.223 86.455 244.113 86.425 244.003C85.0841 242.699 83.6576 241.486 82.155 240.373C80.1748 238.913 78.0342 237.685 75.775 236.713L75.895 237.333L76.255 238.973C76.485 240.113 76.705 241.253 76.935 242.393C77.385 244.723 77.665 247.073 78.105 249.393C78.105 249.493 77.975 249.523 77.955 249.393C77.415 247.053 76.715 244.753 76.195 242.393C75.935 241.223 75.675 240.053 75.425 238.873L75.095 237.223C75.035 236.923 74.965 236.613 74.925 236.303C74.705 236.213 74.495 236.113 74.275 236.033C71.115 234.863 67.635 234.033 64.275 234.663C62.6844 234.96 61.1915 235.644 59.9286 236.656C58.6658 237.668 57.6719 238.975 57.035 240.463C56.925 240.723 56.515 240.563 56.575 240.293C57.225 237.413 59.645 235.273 62.285 234.163Z" fill="#263238"/>
<path d="M80.685 244.063C81.025 245.593 81.365 247.063 81.685 248.633C82.064 250.095 82.3446 251.582 82.525 253.083C82.525 253.143 82.445 253.143 82.435 253.083C82.0018 251.613 81.6677 250.117 81.435 248.603C81.145 247.103 80.845 245.603 80.555 244.093C80.485 244.003 80.665 243.973 80.685 244.063Z" fill="#263238"/>
<path d="M92.305 247.943C93.835 248.713 95.305 249.593 96.925 250.233C97.025 250.233 96.925 250.423 96.855 250.373C95.2882 249.659 93.7594 248.865 92.275 247.993C92.275 247.993 92.275 247.923 92.305 247.943Z" fill="#263238"/>
<path d="M62.855 217.253C62.855 217.253 77.545 218.193 84.385 208.503C91.225 198.813 89.685 184.983 89.685 184.983C89.685 184.983 74.245 186.863 68.125 193.813C62.005 200.763 62.855 217.253 62.855 217.253Z" fill="#9382FF"/>
<path d="M55.965 231.753C56.465 230.173 57.105 228.623 57.695 227.083C58.285 225.543 58.875 224.083 59.525 222.683C60.8371 219.72 62.3059 216.829 63.925 214.023C64.925 212.243 66.075 210.513 67.215 208.803C67.215 208.543 67.295 208.283 67.335 208.013C67.395 207.563 67.465 207.103 67.535 206.653C67.685 205.723 67.845 204.793 67.995 203.863C68.335 201.863 68.755 199.863 69.075 197.793C69.075 197.693 69.245 197.703 69.235 197.793C68.935 199.793 68.735 201.793 68.455 203.793C68.315 204.793 68.185 205.793 68.035 206.793C68.035 207.143 67.925 207.503 67.865 207.853C70.1107 204.579 72.5379 201.435 75.135 198.433C75.485 198.023 75.855 197.633 76.205 197.233C76.205 197.113 76.305 197.003 76.345 196.893C76.455 196.613 76.565 196.333 76.665 196.053C76.885 195.473 77.095 194.883 77.305 194.303C77.715 193.153 78.085 191.993 78.395 190.803C78.4037 190.786 78.4183 190.772 78.4359 190.765C78.4536 190.758 78.4733 190.757 78.4914 190.763C78.5095 190.769 78.5249 190.782 78.5347 190.798C78.5445 190.814 78.5482 190.834 78.545 190.853C78.245 192.053 77.935 193.263 77.545 194.453C77.375 195.023 77.185 195.593 76.985 196.163C76.985 196.253 76.915 196.343 76.885 196.443C78.765 194.393 80.715 192.443 82.695 190.443C82.7103 190.433 82.7283 190.429 82.7462 190.431C82.764 190.433 82.7806 190.442 82.7933 190.454C82.806 190.467 82.8141 190.484 82.8162 190.501C82.8183 190.519 82.8144 190.537 82.805 190.553C79.0076 194.524 75.5269 198.787 72.395 203.303C72.7531 203.193 73.117 203.102 73.485 203.033C74.615 202.813 75.755 202.653 76.895 202.503C79.285 202.203 81.675 201.893 84.055 201.503C84.155 201.503 84.195 201.633 84.055 201.653C81.775 202.103 79.525 202.653 77.265 203.133C76.195 203.373 75.125 203.583 74.055 203.793C73.1795 203.982 72.3176 204.229 71.475 204.533C71.235 204.873 70.985 205.203 70.755 205.533C69.675 207.103 68.645 208.703 67.625 210.323L69.125 210.033C70.265 209.813 71.405 209.603 72.545 209.413C74.785 209.043 77.025 208.653 79.235 208.153C79.335 208.153 79.375 208.283 79.235 208.303C76.985 208.833 74.765 209.443 72.535 210.043C71.455 210.323 70.375 210.583 69.285 210.823L67.655 211.183C67.438 211.235 67.2174 211.272 66.995 211.293C64.8417 214.773 62.8417 218.333 60.995 221.973C60.175 223.573 59.395 225.183 58.625 226.803C57.855 228.423 57.165 230.183 56.445 231.873C56.375 232.263 55.845 232.123 55.965 231.753Z" fill="#263238"/>
<path d="M70.995 197.982C71.275 196.582 71.575 195.182 71.885 193.792C71.885 193.692 72.045 193.792 72.035 193.792C71.755 195.172 71.485 196.552 71.235 197.932C71.0287 199.319 70.7517 200.694 70.405 202.052C70.405 202.052 70.405 202.052 70.405 202.052C70.5087 200.684 70.7058 199.324 70.995 197.982Z" fill="#263238"/>
<path d="M79.565 197.583C80.245 197.243 80.965 196.963 81.675 196.693L82.795 196.253L83.365 196.023C83.5817 195.958 83.7898 195.867 83.985 195.753C84.095 195.673 84.165 195.863 84.055 195.883C83.8355 195.944 83.624 196.031 83.425 196.143L82.865 196.393L81.795 196.863C81.0898 197.193 80.3651 197.48 79.625 197.723C79.6082 197.724 79.5912 197.72 79.5767 197.712C79.5621 197.703 79.5507 197.69 79.544 197.674C79.5373 197.659 79.5358 197.642 79.5396 197.625C79.5433 197.609 79.5522 197.594 79.565 197.583Z" fill="#263238"/>
<path d="M47.815 205.703C47.815 205.703 38.925 189.093 25.395 186.523C11.865 183.953 3.595 197.873 3.595 197.873C3.595 197.873 13.485 210.473 25.875 212.653C38.265 214.833 47.815 205.703 47.815 205.703Z" fill="#9382FF"/>
<path d="M16.335 193.962C19.8592 193.491 23.4334 193.535 26.945 194.093L26.345 193.772C25.345 193.262 24.345 192.773 23.345 192.223C21.2816 191.083 19.1623 190.049 16.995 189.123C16.9835 189.119 16.9727 189.114 16.9636 189.106C16.9545 189.099 16.9472 189.089 16.9423 189.078C16.9374 189.067 16.9349 189.055 16.9352 189.044C16.9354 189.032 16.9383 189.02 16.9436 189.009C16.9489 188.999 16.9566 188.989 16.966 188.982C16.9754 188.975 16.9863 188.97 16.9979 188.967C17.0095 188.964 17.0216 188.964 17.0332 188.967C17.0448 188.97 17.0557 188.975 17.065 188.983C19.175 189.983 21.365 190.792 23.495 191.772C24.555 192.262 25.595 192.773 26.635 193.313C27.295 193.673 28.035 194.003 28.695 194.423C31.6636 195.024 34.5481 195.985 37.285 197.283C36.725 196.673 36.165 196.052 35.595 195.442C34.335 194.062 33.095 192.612 31.715 191.352C31.645 191.292 31.715 191.183 31.825 191.253C33.235 192.533 34.735 193.723 36.105 195.063C36.775 195.713 37.405 196.383 38.035 197.063C38.345 197.413 38.655 197.762 38.945 198.132C43.5926 200.623 47.6291 204.114 50.7628 208.355C53.8964 212.595 56.049 217.479 57.065 222.653C57.065 222.743 56.955 222.793 56.925 222.703C55.0198 216.366 51.6094 210.585 46.985 205.852C42.0106 200.776 35.7458 197.153 28.865 195.373C24.782 194.33 20.5591 193.946 16.355 194.233C16.3246 194.227 16.2969 194.211 16.2763 194.188C16.2557 194.165 16.2433 194.136 16.241 194.105C16.2387 194.074 16.2467 194.044 16.2637 194.018C16.2807 193.992 16.3058 193.973 16.335 193.962Z" fill="#263238"/>
<path opacity="0.1" d="M3.595 197.873C3.595 197.873 13.485 210.473 25.875 212.653C35.345 214.323 43.135 209.393 46.295 206.963L46.975 205.833C46.975 205.833 40.575 200.433 28.465 197.323C16.355 194.213 3.595 197.873 3.595 197.873Z" fill="black"/>
<path d="M24.195 188.043C25.2291 188.657 26.2304 189.324 27.195 190.043C28.137 190.753 29.0108 191.55 29.805 192.423C29.8196 192.438 29.8273 192.459 29.8263 192.481C29.8254 192.503 29.8159 192.523 29.8 192.538C29.7841 192.552 29.763 192.56 29.7415 192.559C29.7199 192.558 29.6996 192.548 29.685 192.533C28.795 191.753 27.885 190.973 26.955 190.233C26.0477 189.512 25.0994 188.844 24.115 188.233C24.025 188.123 24.105 187.993 24.195 188.043Z" fill="#263238"/>
<path d="M16.765 190.853C17.265 191.063 17.765 191.243 18.285 191.453L19.785 192.083C19.895 192.083 19.845 192.303 19.785 192.253L18.225 191.653C17.725 191.453 17.225 191.213 16.725 191.013C16.635 190.963 16.675 190.823 16.765 190.853Z" fill="#263238"/>
<path d="M49.595 226.653C49.595 226.653 47.215 243.133 34.825 248.893C22.435 254.653 7.33499 248.893 7.33499 248.893C7.33499 248.893 13.275 213.203 49.595 226.653Z" fill="#9382FF"/>
<path d="M15.875 238.123C17.015 237.993 18.155 237.803 19.285 237.593L20.945 237.283L21.815 237.103C22.145 236.793 22.475 236.483 22.815 236.173C25.1652 234.102 27.7028 232.254 30.395 230.653C31.8611 229.787 33.3771 229.009 34.935 228.323H34.705L30.625 228.503C27.905 228.623 25.185 228.683 22.475 228.863C22.4629 228.867 22.4499 228.869 22.4371 228.867C22.4243 228.865 22.4121 228.861 22.4015 228.853C22.3909 228.846 22.3822 228.836 22.3763 228.825C22.3703 228.813 22.3672 228.801 22.3672 228.788C22.3672 228.775 22.3703 228.762 22.3763 228.751C22.3822 228.739 22.3909 228.729 22.4015 228.722C22.4121 228.715 22.4243 228.71 22.4371 228.708C22.4499 228.707 22.4629 228.708 22.475 228.713C25.205 228.523 27.915 228.223 30.635 227.993L34.635 227.633L36.635 227.463L37.155 227.403C37.865 227.143 38.575 226.893 39.295 226.663C42.6718 225.507 46.3029 225.31 49.785 226.093C52.905 226.883 56.015 228.933 56.785 232.213C56.785 232.323 56.635 232.403 56.585 232.293C55.425 229.543 52.375 228.163 49.585 227.593C47.7345 227.241 45.8379 227.204 43.975 227.483C43.8431 228.33 43.6322 229.164 43.345 229.973C43.005 231.133 42.665 232.293 42.345 233.453C41.645 235.763 40.865 238.053 40.185 240.373C40.1793 240.388 40.1691 240.401 40.1557 240.41C40.1423 240.42 40.1263 240.425 40.11 240.425C40.0937 240.425 40.0777 240.42 40.0643 240.41C40.0509 240.401 40.0407 240.388 40.035 240.373C40.615 238.063 41.095 235.723 41.655 233.373L42.495 229.963C42.6769 229.179 42.9073 228.408 43.185 227.653C42.0992 227.846 41.0244 228.096 39.965 228.403C38.0539 228.972 36.1802 229.66 34.355 230.463C34.175 231.643 33.905 232.803 33.635 233.963C33.305 235.413 32.925 236.853 32.465 238.273C32.465 238.291 32.4576 238.309 32.4445 238.322C32.4314 238.335 32.4136 238.343 32.395 238.343C32.3764 238.343 32.3586 238.335 32.3455 238.322C32.3324 238.309 32.325 238.291 32.325 238.273C32.3298 238.183 32.3298 238.093 32.325 238.003C32.595 236.653 32.895 235.313 33.185 234.003C33.415 232.923 33.625 231.833 33.855 230.743C32.315 231.443 30.805 232.193 29.345 233.033C29.345 233.373 29.225 233.713 29.185 234.033C29.095 234.593 28.985 235.153 28.885 235.723C28.655 236.993 28.395 238.263 28.095 239.513C27.5497 241.932 26.8584 244.317 26.025 246.653C26.0356 246.665 26.0414 246.681 26.0414 246.698C26.0414 246.714 26.0356 246.73 26.025 246.743L25.955 246.823C25.895 246.893 25.815 246.823 25.825 246.753C26.395 244.303 27.055 241.883 27.595 239.433C27.855 238.213 28.125 236.993 28.375 235.763C28.495 235.153 28.605 234.533 28.725 233.913C28.725 233.743 28.785 233.553 28.815 233.363C27.1455 234.344 25.533 235.419 23.985 236.583C21.3158 238.589 18.8446 240.846 16.605 243.323C16.515 243.423 16.335 243.323 16.425 243.173C17.363 241.922 18.3643 240.721 19.425 239.573C20.045 238.903 20.695 238.263 21.355 237.633H21.145L19.405 237.903C18.255 238.053 17.105 238.163 15.955 238.293C15.815 238.283 15.775 238.133 15.875 238.123Z" fill="#263238"/>
<path d="M24.575 243.712C24.575 243.572 24.575 243.422 24.645 243.282C24.7055 243.106 24.7556 242.925 24.795 242.742C25.045 241.642 25.265 240.532 25.465 239.412C25.465 239.342 25.595 239.362 25.595 239.412C25.5196 240.891 25.202 242.347 24.655 243.722C24.655 243.722 24.555 243.722 24.565 243.722L24.575 243.712Z" fill="#263238"/>
<path d="M34.945 243.453C34.9475 243.433 34.957 243.415 34.9717 243.402C34.9864 243.389 35.0054 243.382 35.025 243.383C35.365 241.923 35.705 240.463 36.025 238.993C36.185 238.223 36.345 237.443 36.495 236.673C36.575 236.253 36.645 235.843 36.725 235.423C36.7547 235.054 36.8424 234.693 36.985 234.353C36.9919 234.34 37.0021 234.33 37.0144 234.322C37.0267 234.315 37.0407 234.311 37.055 234.311C37.0693 234.311 37.0833 234.315 37.0956 234.322C37.108 234.33 37.1181 234.34 37.125 234.353C37.1405 235.101 37.0359 235.847 36.815 236.563C36.665 237.363 36.505 238.173 36.335 238.973C35.975 240.593 35.565 242.213 35.105 243.813C35.105 243.834 35.0966 243.854 35.0816 243.869C35.0666 243.884 35.0462 243.893 35.025 243.893C35.0038 243.893 34.9834 243.884 34.9684 243.869C34.9534 243.854 34.945 243.834 34.945 243.813V243.453Z" fill="#263238"/>
<path d="M17.005 233.383C19.265 233.073 21.525 232.743 23.795 232.473C23.885 232.473 23.925 232.603 23.795 232.613C21.545 232.953 19.275 233.233 17.005 233.533C16.945 233.543 16.905 233.393 17.005 233.383Z" fill="#263238"/>
<path d="M55.935 187.963C55.935 187.963 63.485 154.713 27.785 141.253C27.785 141.253 17.885 185.023 55.935 187.963Z" fill="#9382FF"/>
<path d="M51.235 161.503C51.235 161.403 51.395 161.403 51.395 161.503C51.265 163.403 51.195 165.303 50.995 167.193C50.9889 167.21 50.9774 167.226 50.9622 167.236C50.9469 167.247 50.9287 167.253 50.91 167.253C50.8913 167.253 50.8731 167.247 50.8579 167.236C50.8426 167.226 50.8312 167.21 50.825 167.193C50.895 165.283 51.095 163.393 51.235 161.503Z" fill="#263238"/>
<path d="M34.105 167.853C36.345 168.753 38.595 169.603 40.825 170.543C40.885 170.543 40.825 170.663 40.825 170.643C38.565 169.793 36.335 168.873 34.095 168.003C33.975 167.963 34.015 167.813 34.105 167.853Z" fill="#263238"/>
<path d="M30.715 152.513C32.8985 153.52 35.019 154.659 37.065 155.923C37.0862 155.936 37.1013 155.957 37.1069 155.981C37.1125 156.006 37.1083 156.031 37.095 156.053C37.0817 156.074 37.0606 156.089 37.0362 156.094C37.0118 156.1 36.9862 156.096 36.965 156.083C34.895 154.873 32.785 153.713 30.625 152.643C30.545 152.653 30.625 152.473 30.715 152.513Z" fill="#263238"/>
<path d="M31.255 314.203H82.785V259.883H31.255L31.255 314.203Z" fill="#37474F"/>
<path d="M86.335 279.103H83.695V372.143H86.335V279.103Z" fill="#263238"/>
<path d="M30.625 279.103H27.985V372.143H30.625V279.103Z" fill="#263238"/>
<path d="M57.075 279.103H54.435V372.143H57.075V279.103Z" fill="#263238"/>
<path d="M29.305 318.243H85.015V310.723H29.305V318.243Z" fill="#263238"/>
<path d="M113.835 202.623H63.365V335.053H113.835V202.623Z" fill="#9382FF"/>
<path opacity="0.2" d="M113.835 202.623H63.365V335.053H113.835V202.623Z" fill="black"/>
<path d="M375.615 202.623H325.145V335.053H375.615V202.623Z" fill="#9382FF"/>
<path opacity="0.2" d="M375.615 202.623H325.145V335.053H375.615V202.623Z" fill="black"/>
<path d="M325.155 109.403H113.825V335.053H325.155V109.403Z" fill="#9382FF"/>
<path opacity="0.2" d="M325.155 109.403H113.825V335.053H325.155V109.403Z" fill="black"/>
<g opacity="0.2">
<path d="M326.375 202.623H325.175V335.043H326.375V202.623Z" fill="black"/>
<path d="M114.425 202.623H113.225V335.043H114.425V202.623Z" fill="black"/>
<path d="M326.395 296.653H113.225V255.543H326.395V296.653ZM114.485 295.383H325.155V256.773H114.485V295.383Z" fill="black"/>
</g>
<g opacity="0.2">
<path d="M126.985 181.813C126.779 181.835 126.589 181.933 126.451 182.087C126.313 182.241 126.237 182.441 126.237 182.648C126.237 182.855 126.313 183.054 126.451 183.208C126.589 183.362 126.779 183.46 126.985 183.483C127.191 183.46 127.381 183.362 127.519 183.208C127.657 183.054 127.734 182.855 127.734 182.648C127.734 182.441 127.657 182.241 127.519 182.087C127.381 181.933 127.191 181.835 126.985 181.813Z" fill="black"/>
<path d="M128.415 284.063C128.209 284.085 128.019 284.183 127.881 284.337C127.743 284.491 127.667 284.691 127.667 284.898C127.667 285.105 127.743 285.304 127.881 285.458C128.019 285.612 128.209 285.71 128.415 285.733C128.621 285.71 128.811 285.612 128.949 285.458C129.087 285.304 129.164 285.105 129.164 284.898C129.164 284.691 129.087 284.491 128.949 284.337C128.811 284.183 128.621 284.085 128.415 284.063Z" fill="black"/>
<path d="M185.535 268.093C185.535 268.003 185.445 267.923 185.405 267.843C185.371 267.787 185.323 267.741 185.267 267.708C185.21 267.676 185.145 267.66 185.08 267.66C185.015 267.66 184.95 267.676 184.894 267.708C184.837 267.741 184.789 267.787 184.755 267.843C184.706 267.923 184.662 268.006 184.625 268.093C184.145 269.083 186.005 269.083 185.535 268.093Z" fill="black"/>
<path d="M102.105 286.163C102.105 286.083 102.025 285.993 101.975 285.913C101.941 285.857 101.893 285.81 101.837 285.778C101.78 285.746 101.715 285.729 101.65 285.729C101.585 285.729 101.52 285.746 101.464 285.778C101.407 285.81 101.359 285.857 101.325 285.913C101.275 285.993 101.235 286.083 101.195 286.163C100.725 287.153 102.585 287.153 102.105 286.163Z" fill="black"/>
<path d="M134.175 186.913C134.005 186.913 133.843 186.98 133.722 187.1C133.602 187.22 133.535 187.383 133.535 187.553C133.535 187.722 133.602 187.885 133.722 188.005C133.843 188.125 134.005 188.193 134.175 188.193C134.345 188.193 134.508 188.125 134.628 188.005C134.748 187.885 134.815 187.722 134.815 187.553C134.815 187.383 134.748 187.22 134.628 187.1C134.508 186.98 134.345 186.913 134.175 186.913Z" fill="black"/>
<path d="M89.685 251.723C89.5303 251.742 89.3881 251.817 89.2849 251.934C89.1818 252.051 89.1249 252.202 89.1249 252.358C89.1249 252.514 89.1818 252.664 89.2849 252.781C89.3881 252.898 89.5303 252.973 89.685 252.993C89.8397 252.973 89.982 252.898 90.0851 252.781C90.1883 252.664 90.2452 252.514 90.2452 252.358C90.2452 252.202 90.1883 252.051 90.0851 251.934C89.982 251.817 89.8397 251.742 89.685 251.723Z" fill="black"/>
<path d="M173.485 151.293C173.319 151.128 173.094 151.036 172.86 151.036C172.626 151.036 172.402 151.128 172.235 151.293C172.084 151.45 171.976 151.645 171.923 151.858C171.871 152.07 171.875 152.292 171.935 152.503C172.009 152.689 172.137 152.849 172.303 152.962C172.469 153.075 172.665 153.135 172.865 153.135C173.066 153.135 173.262 153.075 173.427 152.962C173.593 152.849 173.721 152.689 173.795 152.503C173.855 152.292 173.858 152.068 173.804 151.856C173.749 151.643 173.639 151.449 173.485 151.293Z" fill="black"/>
<path d="M135.415 279.333C135.248 279.168 135.024 279.076 134.79 279.076C134.556 279.076 134.332 279.168 134.165 279.333C134.013 279.488 133.906 279.681 133.853 279.892C133.8 280.103 133.805 280.324 133.865 280.533C133.94 280.716 134.069 280.873 134.233 280.983C134.398 281.094 134.592 281.153 134.79 281.153C134.988 281.153 135.182 281.094 135.347 280.983C135.511 280.873 135.64 280.716 135.715 280.533C135.778 280.324 135.783 280.103 135.73 279.891C135.677 279.68 135.568 279.487 135.415 279.333Z" fill="black"/>
<path d="M310.995 287.953C311.218 287.953 311.431 287.864 311.589 287.707C311.747 287.549 311.835 287.335 311.835 287.113C311.835 286.89 311.747 286.676 311.589 286.519C311.431 286.361 311.218 286.273 310.995 286.273C310.772 286.273 310.559 286.361 310.401 286.519C310.244 286.676 310.155 286.89 310.155 287.113C310.155 287.335 310.244 287.549 310.401 287.707C310.559 287.864 310.772 287.953 310.995 287.953Z" fill="black"/>
<path d="M260.255 176.393C260.461 176.37 260.651 176.272 260.789 176.118C260.927 175.964 261.004 175.765 261.004 175.558C261.004 175.351 260.927 175.151 260.789 174.997C260.651 174.843 260.461 174.745 260.255 174.723C260.049 174.745 259.859 174.843 259.721 174.997C259.583 175.151 259.507 175.351 259.507 175.558C259.507 175.765 259.583 175.964 259.721 176.118C259.859 176.272 260.049 176.37 260.255 176.393Z" fill="black"/>
<path d="M338.065 280.063C338.065 280.143 338.145 280.233 338.195 280.313C338.229 280.369 338.277 280.415 338.333 280.447C338.39 280.479 338.455 280.496 338.52 280.496C338.585 280.496 338.65 280.479 338.707 280.447C338.763 280.415 338.811 280.369 338.845 280.313C338.895 280.233 338.935 280.143 338.975 280.063C339.485 279.073 337.595 279.073 338.065 280.063Z" fill="black"/>
<path d="M234.755 229.713C234.922 229.877 235.146 229.969 235.38 229.969C235.614 229.969 235.839 229.877 236.005 229.713C236.158 229.556 236.267 229.361 236.32 229.148C236.372 228.936 236.367 228.713 236.305 228.503C236.23 228.319 236.102 228.162 235.937 228.052C235.772 227.942 235.578 227.883 235.38 227.883C235.182 227.883 234.988 227.942 234.823 228.052C234.659 228.162 234.53 228.319 234.455 228.503C234.396 228.713 234.392 228.935 234.445 229.147C234.498 229.359 234.604 229.554 234.755 229.713Z" fill="black"/>
</g>
<g opacity="0.2">
<path d="M114.485 296.653C114.485 296.653 167.705 307.033 219.785 307.033C271.865 307.033 325.145 296.653 325.145 296.653H114.485Z" fill="black"/>
</g>
<path d="M375.605 323.403H63.365V335.043H375.605V323.403Z" fill="#37474F"/>
<path d="M130.965 335.053L118.135 361.323L105.245 387.733H94.015L98.185 361.323L102.335 335.053H130.965Z" fill="#37474F"/>
<path d="M102.335 335.053H130.975L123.185 350.983H99.825L102.335 335.053Z" fill="#263238"/>
<path d="M340.145 387.733H328.925L316.035 361.323L303.195 335.053H331.835L335.975 361.323L340.145 387.733Z" fill="#37474F"/>
<path d="M334.345 350.983H310.985L303.195 335.053H331.825L334.345 350.983Z" fill="#263238"/>
<path d="M342.785 278.283C341.865 275.513 292.835 210.723 289.485 209.483C289.105 209.313 267.185 224.913 267.185 224.913C266.285 226.123 224.625 217.313 224.625 217.313L224.205 267.573L300.095 265.963C300.095 265.963 310.345 271.963 319.725 276.893C325.495 279.893 330.605 282.493 332.065 282.893C335.885 283.853 343.715 281.033 342.785 278.283Z" fill="#774442"/>
<path d="M332.095 282.883C330.625 282.503 325.525 279.943 319.765 276.883C310.395 271.973 300.145 265.933 300.145 265.933L283.255 266.303L256.765 223.653C262.575 224.653 266.905 225.293 267.195 224.913C267.195 224.913 289.095 209.313 289.485 209.483C292.835 210.723 341.865 275.483 342.785 278.273C343.705 281.063 335.885 283.863 332.095 282.883Z" fill="white"/>
<path d="M343.225 278.363C342.225 275.523 293.015 210.783 289.575 209.503C288.275 209.003 277.575 215.633 267.185 224.913L298.995 266.653C298.995 266.653 328.335 282.203 332.255 283.203C336.175 284.203 344.195 281.203 343.225 278.363Z" fill="#9382FF"/>
<path d="M339.935 279.403C331.415 268.753 298.045 224.993 290.425 213.823C290.365 213.723 290.425 213.683 290.495 213.763C299.175 224.143 332.185 268.173 340.115 279.273C340.275 279.503 340.115 279.653 339.935 279.403Z" fill="#263238"/>
<path d="M326.755 280.773C325.807 279.589 325.115 278.221 324.721 276.757C324.326 275.292 324.239 273.762 324.465 272.263C324.855 269.56 326.27 267.111 328.415 265.423C328.485 265.423 328.575 265.493 328.515 265.553C326.648 267.556 325.482 270.11 325.189 272.833C324.897 275.555 325.496 278.299 326.895 280.653C326.911 280.671 326.919 280.695 326.917 280.72C326.915 280.744 326.904 280.767 326.885 280.783C326.866 280.799 326.842 280.806 326.818 280.805C326.794 280.803 326.771 280.791 326.755 280.773Z" fill="#263238"/>
<path d="M302.665 269.193C299.305 264.893 297.005 258.693 298.505 253.293C298.565 253.083 298.855 253.163 298.895 253.343C299.79 258.658 301.255 263.861 303.265 268.863C303.288 268.939 303.284 269.022 303.254 269.096C303.224 269.17 303.169 269.232 303.099 269.271C303.028 269.309 302.947 269.323 302.868 269.308C302.789 269.294 302.717 269.253 302.665 269.193Z" fill="#263238"/>
<path d="M306.485 271.553C303.125 267.253 300.825 261.053 302.325 255.653C302.385 255.443 302.675 255.523 302.705 255.703C303.609 261.016 305.074 266.218 307.075 271.223C307.108 271.3 307.111 271.386 307.084 271.466C307.057 271.545 307.001 271.611 306.928 271.652C306.855 271.693 306.769 271.706 306.688 271.687C306.606 271.669 306.534 271.621 306.485 271.553Z" fill="#263238"/>
<path d="M310.385 273.913C307.025 269.613 304.725 263.413 306.225 258.013C306.275 257.803 306.575 257.883 306.605 258.063C307.509 263.376 308.974 268.578 310.975 273.583C311.008 273.66 311.011 273.746 310.984 273.826C310.957 273.905 310.901 273.971 310.828 274.012C310.755 274.053 310.669 274.066 310.587 274.047C310.506 274.029 310.434 273.981 310.385 273.913Z" fill="#263238"/>
<path d="M314.245 276.273C310.875 271.973 308.585 265.773 310.085 260.363C310.085 260.163 310.435 260.243 310.465 260.423C311.364 265.737 312.829 270.94 314.835 275.943C314.868 276.02 314.871 276.106 314.844 276.186C314.817 276.265 314.761 276.331 314.688 276.372C314.615 276.413 314.529 276.426 314.447 276.407C314.366 276.389 314.294 276.341 314.245 276.273Z" fill="#263238"/>
<path d="M282.225 224.423C278.525 219.543 286.115 213.793 289.815 218.683C293.515 223.573 285.925 229.313 282.225 224.423Z" fill="#263238"/>
<path d="M300.755 277.513C301.995 272.873 301.175 267.853 300.965 263.133C300.951 263.029 300.913 262.93 300.854 262.844C300.795 262.758 300.717 262.687 300.626 262.637C300.534 262.586 300.432 262.558 300.328 262.554C300.224 262.549 300.12 262.57 300.025 262.613C300.011 262.596 299.993 262.582 299.974 262.573C299.954 262.564 299.932 262.559 299.91 262.559C299.888 262.559 299.866 262.564 299.847 262.573C299.827 262.582 299.809 262.596 299.795 262.613C296.052 265.964 293.256 270.24 291.685 275.013C290.825 277.813 291.155 281.933 294.685 282.743C297.955 283.473 300.025 280.223 300.755 277.513ZM297.305 280.453C292.255 283.613 292.635 276.593 293.355 274.553C293.844 273.246 294.419 271.973 295.075 270.743C296.477 268.217 298.006 265.764 299.655 263.393C299.655 265.723 299.775 268.033 299.825 270.393C299.885 273.123 300.095 278.713 297.305 280.453Z" fill="#263238"/>
<path d="M285.285 249.253C282.715 251.753 284.565 255.453 286.735 257.413C290.54 260.692 295.14 262.913 300.075 263.853C300.097 263.857 300.119 263.857 300.14 263.852C300.162 263.846 300.182 263.836 300.198 263.821C300.215 263.806 300.228 263.788 300.236 263.767C300.244 263.747 300.247 263.725 300.245 263.703C300.35 263.692 300.451 263.657 300.539 263.601C300.628 263.544 300.702 263.467 300.756 263.377C300.809 263.286 300.841 263.184 300.847 263.079C300.854 262.974 300.836 262.869 300.795 262.773C298.545 258.623 296.655 253.893 293.195 250.553C291.175 248.653 287.725 246.893 285.285 249.253ZM296.095 257.173C297.255 259.173 298.305 261.253 299.535 263.223C296.899 262.044 294.325 260.728 291.825 259.283C290.622 258.574 289.473 257.778 288.385 256.903C286.715 255.533 282.765 249.713 288.725 249.813C292.015 249.873 294.715 254.773 296.095 257.173Z" fill="#263238"/>
<path d="M222.325 201.903H188.265C188.265 201.903 152.635 184.783 123.935 191.653C91.035 199.563 86.825 240.883 111.415 255.493C142.575 274.013 281.235 270.423 281.235 270.423L251.235 219.623C251.235 219.623 205.125 209.913 163.315 211.323L222.315 219.323L222.325 201.903Z" fill="#263238"/>
<path d="M253.255 222.933C253.221 222.85 253.201 222.762 253.195 222.673L253.135 222.453C253.135 222.293 253.055 222.133 253.005 221.963C252.908 221.623 252.791 221.289 252.655 220.963C252.535 220.633 252.385 220.313 252.235 219.963C252.071 219.649 251.884 219.348 251.675 219.063C251.675 219.063 251.625 219.063 251.595 219.063C251.579 219.058 251.561 219.058 251.545 219.063C251.545 219.063 251.495 219.063 251.465 219.063C251.442 219.057 251.418 219.057 251.395 219.063C246.325 218.063 211.865 213.183 206.745 212.603C201.625 212.023 196.395 211.533 191.215 211.103C180.877 210.204 170.501 209.831 160.125 209.983C159.125 209.983 158.185 210.033 157.215 210.073C157.005 210.003 156.785 209.963 156.575 209.913C156.075 209.793 155.575 209.673 155.075 209.573C154.145 209.393 153.195 209.253 152.255 209.113C150.255 208.813 148.325 208.603 146.375 208.243C146.351 208.243 146.328 208.252 146.311 208.269C146.295 208.286 146.285 208.309 146.285 208.333C146.285 208.356 146.295 208.379 146.311 208.396C146.328 208.413 146.351 208.423 146.375 208.423C148.375 208.853 150.275 209.423 152.235 209.853C152.805 209.973 153.365 210.103 153.935 210.213C150.135 210.413 146.335 210.703 142.545 211.053C142.525 211.059 142.508 211.072 142.495 211.089C142.483 211.106 142.476 211.126 142.476 211.148C142.476 211.169 142.483 211.189 142.495 211.206C142.508 211.223 142.525 211.236 142.545 211.243C147.705 210.933 152.905 210.893 158.085 210.983C163.265 211.073 168.345 211.183 173.475 211.483C183.855 212.073 194.215 213.003 204.555 214.083C210.355 214.693 245.485 219.823 251.305 220.083H251.375C251.425 220.213 251.475 220.353 251.535 220.483C251.695 220.793 251.855 221.113 252.035 221.413C252.193 221.715 252.366 222.009 252.555 222.293C252.645 222.433 252.735 222.573 252.835 222.713L252.985 222.923C253.044 222.989 253.094 223.063 253.135 223.143C253.125 223.133 253.325 223.053 253.255 222.933Z" fill="#455A64"/>
<path d="M270.425 267.363C268.565 264.363 266.985 261.233 265.285 258.173C263.585 255.113 261.875 252.033 260.165 248.963C256.755 242.843 244.515 222.263 243.305 220.823C243.225 220.733 243.075 220.823 243.105 220.943C243.685 222.533 251.325 236.163 253.105 239.193C256.625 245.273 260.315 251.193 263.965 257.193C264.965 258.903 266.075 260.593 267.135 262.303C268.195 264.013 269.315 265.673 270.275 267.423C270.315 267.573 270.485 267.473 270.425 267.363Z" fill="#455A64"/>
<path d="M242.955 225.943C239.895 225.203 236.765 224.733 233.675 224.143C230.585 223.553 227.475 222.973 224.375 222.403C218.175 221.249 211.962 220.146 205.735 219.093C193.335 217.013 180.875 215.273 168.345 214.093C161.275 213.413 154.195 212.973 147.105 212.453C146.955 212.453 146.965 212.673 147.105 212.683C159.715 213.253 172.315 214.963 184.805 216.753C197.295 218.543 209.525 220.483 221.805 222.563C225.285 223.149 228.765 223.746 232.245 224.353C235.775 224.963 239.305 225.713 242.855 226.163C243.035 226.163 243.095 225.973 242.955 225.943Z" fill="#455A64"/>
<path d="M278.195 443.593C275.195 443.293 200.935 409.913 198.905 406.843C198.125 405.693 202.355 394.583 207.905 381.313C209.085 378.453 210.335 375.503 211.615 372.513C219.885 353.083 229.125 332.663 229.125 332.663L278.875 354.853L259.995 394.083L255.855 402.703C255.855 402.703 278.575 428.203 280.445 431.803C282.315 435.403 281.185 443.893 278.195 443.593Z" fill="#774442"/>
<path d="M278.195 443.593C275.195 443.293 200.935 409.913 198.905 406.843C197.965 405.433 204.405 389.333 211.565 372.513L259.945 394.083L255.805 402.703C255.805 402.703 278.525 428.203 280.395 431.803C282.265 435.403 281.185 443.893 278.195 443.593Z" fill="white"/>
<path d="M278.195 443.593C275.195 443.293 200.935 409.913 198.905 406.843C198.125 405.693 202.355 394.583 207.905 381.313L255.855 402.703C255.855 402.703 278.575 428.203 280.445 431.803C282.315 435.403 281.185 443.893 278.195 443.593Z" fill="#9382FF"/>
<path d="M278.485 440.143C266.175 434.243 215.945 411.593 203.325 406.703C203.225 406.703 203.195 406.703 203.325 406.773C215.405 412.893 265.805 435.133 278.425 440.353C278.645 440.453 278.725 440.273 278.485 440.143Z" fill="#263238"/>
<path d="M276.815 426.983C275.445 426.326 273.954 425.961 272.436 425.909C270.918 425.858 269.406 426.121 267.995 426.683C265.452 427.673 263.386 429.602 262.225 432.073C262.225 432.153 262.335 432.213 262.375 432.143C263.908 429.868 266.137 428.152 268.728 427.25C271.318 426.349 274.131 426.311 276.745 427.143C276.765 427.146 276.785 427.143 276.803 427.133C276.821 427.123 276.834 427.108 276.843 427.09C276.851 427.072 276.852 427.051 276.847 427.032C276.842 427.012 276.831 426.995 276.815 426.983Z" fill="#263238"/>
<path d="M260.075 406.113C255.125 403.803 248.555 402.963 243.625 405.653C243.435 405.753 243.625 406.023 243.775 406.013C249.156 405.687 254.557 405.939 259.885 406.763C259.968 406.779 260.055 406.764 260.127 406.719C260.2 406.675 260.253 406.606 260.277 406.524C260.301 406.443 260.293 406.356 260.256 406.279C260.218 406.203 260.154 406.144 260.075 406.113Z" fill="#263238"/>
<path d="M263.255 409.343C258.255 407.033 251.735 406.193 246.805 408.883C246.615 408.983 246.805 409.253 246.945 409.243C252.33 408.917 257.734 409.169 263.065 409.993C263.148 410.009 263.235 409.993 263.307 409.949C263.38 409.905 263.433 409.836 263.457 409.754C263.481 409.673 263.473 409.585 263.436 409.509C263.398 409.433 263.334 409.374 263.255 409.343Z" fill="#263238"/>
<path d="M266.425 412.573C261.475 410.263 254.905 409.423 249.975 412.103C249.785 412.213 249.975 412.483 250.115 412.473C255.5 412.147 260.904 412.399 266.235 413.223C266.318 413.239 266.405 413.224 266.477 413.179C266.55 413.135 266.603 413.066 266.627 412.984C266.651 412.903 266.643 412.816 266.606 412.739C266.568 412.663 266.504 412.604 266.425 412.573Z" fill="#263238"/>
<path d="M269.595 415.803C264.645 413.493 258.075 412.653 253.145 415.333C252.955 415.443 253.145 415.713 253.295 415.703C258.676 415.377 264.077 415.629 269.405 416.453C269.488 416.469 269.575 416.454 269.647 416.409C269.72 416.365 269.773 416.296 269.797 416.214C269.821 416.133 269.813 416.046 269.776 415.969C269.738 415.893 269.674 415.834 269.595 415.803Z" fill="#263238"/>
<path d="M211.795 396.303C206.195 393.803 202.305 402.503 207.915 405.003C213.525 407.503 217.405 398.803 211.795 396.303Z" fill="#263238"/>
<path d="M271.485 395.233C269.895 392.013 265.805 392.623 263.275 394.103C258.975 396.707 255.436 400.397 253.015 404.803C253.004 404.822 252.997 404.845 252.995 404.868C252.994 404.891 252.997 404.913 253.006 404.935C253.015 404.956 253.028 404.975 253.045 404.99C253.062 405.005 253.083 405.017 253.105 405.023C253.055 405.423 253.335 405.913 253.825 405.823C258.475 404.963 263.555 404.623 267.825 402.363C270.245 401.043 272.935 398.283 271.485 395.233ZM260.605 403.083C258.325 403.553 256.045 403.923 253.785 404.483C255.722 402.339 257.768 400.296 259.915 398.363C260.965 397.437 262.078 396.585 263.245 395.813C265.065 394.653 271.825 392.693 269.885 398.333C268.775 401.453 263.285 402.513 260.565 403.083H260.605Z" fill="#263238"/>
<path d="M239.765 401.093C243.765 403.703 248.835 404.483 253.395 405.733C253.865 405.863 254.195 405.403 254.175 404.993C254.197 404.99 254.219 404.982 254.237 404.97C254.256 404.957 254.271 404.941 254.282 404.921C254.292 404.901 254.298 404.88 254.299 404.857C254.3 404.835 254.295 404.813 254.285 404.793C252.251 400.194 249.044 396.211 244.985 393.243C242.585 391.563 238.555 390.593 236.705 393.673C234.955 396.583 237.405 399.563 239.765 401.093ZM238.025 396.903C236.575 391.113 243.145 393.653 244.865 394.963C245.962 395.831 246.997 396.773 247.965 397.783C249.938 399.892 251.8 402.101 253.545 404.403C251.345 403.653 249.095 403.093 246.865 402.403C244.215 401.653 238.825 400.093 238.025 396.903Z" fill="#263238"/>
<path d="M212.695 367.953L268.695 393.253C268.695 393.253 335.305 265.413 337.045 226.253C338.525 192.953 315.345 180.103 240.395 201.643L222.035 201.873V214.543C230.095 215.603 251.595 218.983 251.595 218.983C267.235 224.883 272.275 227.323 272.025 227.833C232.965 306.653 212.695 367.953 212.695 367.953Z" fill="#263238"/>
<path d="M281.145 213.813C278.885 216.813 276.795 219.953 274.795 223.153C262.795 217.803 249.685 214.713 236.665 213.103C232.985 212.656 229.288 212.323 225.575 212.103C225.425 212.103 225.435 212.333 225.575 212.343C238.751 213.265 251.771 215.742 264.365 219.723C267.855 220.803 271.265 222.043 274.705 223.273C272.305 227.113 270.035 231.053 267.865 235.013C263.808 242.422 260.156 250.047 256.925 257.853C255.125 262.173 253.375 266.523 251.825 270.943C251.825 271.073 251.995 271.153 252.045 271.033C258.885 255.786 266.348 240.866 274.435 226.273C276.715 222.153 279.095 218.093 281.325 213.943C281.405 213.833 281.225 213.653 281.145 213.813Z" fill="#455A64"/>
<path d="M269.875 379.723C266.605 378.453 263.445 376.863 260.255 375.423L250.645 371.113C244.245 368.253 222.125 359.113 220.295 358.653C220.175 358.653 220.115 358.803 220.205 358.863C221.625 359.793 235.895 366.143 239.125 367.523C245.585 370.293 252.125 372.853 258.615 375.523C260.475 376.273 262.345 376.983 264.215 377.713C266.085 378.443 267.975 379.113 269.805 379.943C269.915 379.953 269.985 379.763 269.875 379.723Z" fill="#455A64"/>
<path d="M280.865 219.582C276.455 227.972 272.695 236.752 268.865 245.422C265.035 254.092 261.335 262.732 257.725 271.422C250.545 288.796 243.858 306.363 237.665 324.123C234.145 334.123 230.855 344.283 227.665 354.423C227.615 354.572 227.845 354.622 227.895 354.482C233.825 336.542 240.245 318.763 246.945 301.103C253.645 283.443 260.745 266.022 268.265 248.732C270.378 243.879 272.522 239.043 274.695 234.223C276.875 229.393 279.145 224.593 281.185 219.713C281.245 219.553 280.975 219.382 280.865 219.582Z" fill="#455A64"/>
<path d="M186.565 200.843C187.795 202.143 265.565 203.923 265.965 203.433C267.025 202.093 256.965 152.733 248.855 133.863C238.485 109.653 232.575 107.503 229.085 106.063C224.625 104.223 216.505 104.653 214.545 105.473C212.315 106.383 202.665 117.213 199.765 125.963C193.955 143.553 185.485 199.703 186.565 200.843Z" fill="#455A64"/>
<path d="M235.425 110.373H209.375C209.855 109.813 210.375 109.283 210.775 108.803H233.775C234.285 109.243 234.835 109.763 235.425 110.373ZM238.705 114.473H206.125L205.015 116.033H239.755C239.395 115.486 239.045 114.966 238.705 114.473ZM242.215 120.133H202.485C202.185 120.653 201.905 121.133 201.635 121.693H243.105L242.215 120.133ZM245.165 125.803H199.825L199.765 125.963C199.615 126.403 199.475 126.873 199.325 127.363H245.915C245.665 126.823 245.415 126.313 245.165 125.803ZM247.805 131.463H198.175C198.045 131.963 197.905 132.463 197.775 133.023H248.485L247.805 131.463ZM250.165 137.123H196.785C196.675 137.643 196.555 138.123 196.435 138.693H250.745C250.555 138.153 250.355 137.653 250.165 137.123ZM252.165 142.793H195.565C195.445 143.313 195.335 143.833 195.235 144.353H252.675L252.165 142.793ZM253.935 148.453H194.395C194.295 148.973 194.185 149.453 194.085 150.013H254.395C254.235 149.483 254.085 148.963 253.925 148.453H253.935ZM255.565 154.123H193.305C193.205 154.643 193.115 155.123 193.015 155.683H256.015C255.845 155.163 255.705 154.653 255.555 154.123H255.565ZM257.095 159.783H192.275C192.175 160.303 192.085 160.783 191.995 161.343H257.485C257.355 160.823 257.225 160.303 257.085 159.783H257.095ZM258.545 165.443H191.285L191.015 167.013H258.915C258.785 166.493 258.655 165.963 258.535 165.443H258.545ZM259.915 171.113H190.335C190.255 171.633 190.165 172.113 190.085 172.673H260.265L259.915 171.113ZM261.215 176.773H189.485L189.245 178.333H261.605C261.485 177.813 261.325 177.293 261.205 176.773H261.215ZM262.465 182.433H188.575C188.495 182.963 188.425 183.493 188.345 184.003H262.785L262.465 182.433ZM263.645 188.103H187.775C187.695 188.643 187.625 189.163 187.565 189.663H263.935C263.845 189.153 263.735 188.653 263.635 188.103H263.645ZM264.735 193.763H187.035C186.975 194.313 186.915 194.843 186.865 195.333H265.005C264.915 194.833 264.825 194.303 264.725 193.763H264.735ZM265.735 199.433H186.485C186.411 199.902 186.435 200.382 186.555 200.843C186.699 200.925 186.86 200.977 187.025 200.993H265.885C265.835 200.533 265.765 200.013 265.685 199.433H265.735Z" fill="#263238"/>
<path d="M241.975 112.653C275.515 137.853 304.515 172.833 301.735 183.913C298.785 195.623 275.605 208.723 255.125 211.393C250.935 211.943 237.965 181.193 242.255 179.783C245.605 178.683 260.825 174.353 262.645 172.273C263.905 170.823 240.295 137.603 232.645 120.273C224.565 102.063 232.995 105.863 241.975 112.653Z" fill="#774442"/>
<path d="M250.905 178.813C250.905 178.813 238.105 180.093 229.775 181.333C225.125 182.023 217.265 183.913 214.085 185.983C209.325 189.073 191.385 205.053 195.165 209.483C198.585 213.483 203.755 207.143 203.755 207.143C203.755 207.143 197.455 213.553 202.075 216.493C206.695 219.433 212.655 210.493 212.655 210.493C212.655 210.493 205.495 216.833 210.725 219.493C215.265 221.803 223.205 212.263 223.205 212.263C223.205 212.263 214.955 218.103 219.375 220.923C224.255 224.043 237.955 211.243 237.955 211.243C248.905 212.463 255.655 211.713 263.375 209.553C264.785 209.193 250.905 178.813 250.905 178.813Z" fill="#774442"/>
<path d="M210.735 212.653C211.225 211.973 211.735 211.303 212.235 210.653C213.18 209.314 214.201 208.032 215.295 206.813C216.385 205.643 217.525 204.523 218.695 203.433C219.865 202.343 221.305 201.263 222.505 200.083C222.513 200.069 222.524 200.057 222.537 200.049C222.55 200.04 222.565 200.035 222.58 200.033C222.596 200.031 222.612 200.033 222.626 200.039C222.641 200.044 222.654 200.053 222.665 200.064C222.676 200.076 222.683 200.09 222.688 200.105C222.692 200.12 222.693 200.136 222.69 200.151C222.687 200.166 222.681 200.181 222.671 200.193C222.662 200.206 222.649 200.216 222.635 200.223C221.426 201.373 220.285 202.592 219.215 203.873C218.125 205.093 217.055 206.323 215.975 207.553C214.895 208.783 213.805 209.883 212.715 211.053C212.175 211.643 211.715 212.253 211.145 212.853C210.694 213.463 210.192 214.035 209.645 214.563C209.632 214.568 209.617 214.57 209.602 214.568C209.588 214.566 209.574 214.56 209.563 214.551C209.551 214.542 209.543 214.53 209.538 214.516C209.533 214.502 209.532 214.487 209.535 214.473C209.869 213.825 210.271 213.215 210.735 212.653Z" fill="#263238"/>
<path d="M202.485 208.503C204.161 205.962 206.008 203.54 208.015 201.253C210.054 198.98 212.315 196.916 214.765 195.093C214.855 195.033 214.965 195.153 214.895 195.233C212.895 197.513 210.785 199.753 208.715 202.003C207.715 203.103 203.265 208.233 202.715 208.713C202.585 208.833 202.405 208.653 202.485 208.503Z" fill="#263238"/>
<path d="M218.395 216.783C220.017 214.424 221.794 212.175 223.715 210.053C225.87 208.087 228.166 206.282 230.585 204.653C230.675 204.653 230.795 204.713 230.715 204.793C228.565 206.793 226.395 208.713 224.355 210.793C223.355 211.793 219.615 216.093 218.575 216.983C218.485 217.023 218.335 216.893 218.395 216.783Z" fill="#263238"/>
<path d="M279.265 143.653L253.725 160.213C253.725 160.213 234.775 130.873 229.865 116.973C224.955 103.073 230.675 103.043 244.085 113.113C257.495 123.183 279.265 143.653 279.265 143.653Z" fill="#455A64"/>
<path d="M240.205 110.373H228.205C228.152 109.851 228.152 109.325 228.205 108.803H237.815C238.485 109.263 239.345 109.793 240.205 110.373ZM245.825 114.473H229.045C229.185 114.973 229.345 115.473 229.535 116.033H247.815L245.825 114.473ZM252.825 120.133H231.095C231.305 120.633 231.535 121.133 231.775 121.693H254.675C254.055 121.163 253.485 120.653 252.815 120.133H252.825ZM259.475 125.803H233.725L234.505 127.363H261.255L259.475 125.803ZM265.905 131.463H236.635C236.915 131.973 237.195 132.463 237.485 133.023H267.625L265.905 131.463ZM272.175 137.123H239.755L240.645 138.693H273.875L272.175 137.123ZM278.325 142.793H243.025C243.335 143.323 243.635 143.843 243.945 144.353H278.235L279.235 143.683L278.325 142.793ZM246.405 148.453L247.345 150.013H269.485L271.885 148.453H246.405ZM249.875 154.123L250.875 155.683H260.795L263.205 154.123H249.875ZM253.445 159.783L253.735 160.243L254.445 159.783H253.445Z" fill="#263238"/>
<path d="M273.485 140.023C263.745 147.773 254.125 153.023 252.215 154.373C252.125 154.433 252.045 154.283 252.135 154.223C254.075 153.043 264.485 145.383 273.385 139.863C273.485 139.793 273.555 139.953 273.485 140.023Z" fill="#263238"/>
<path d="M255.365 159.113C254.831 159.344 254.313 159.611 253.815 159.913C250.975 155.013 247.915 150.053 245.025 145.173L240.785 138.013C239.325 135.523 237.985 132.923 236.385 130.523C236.381 130.515 236.376 130.509 236.369 130.504C236.363 130.499 236.356 130.495 236.348 130.493C236.34 130.49 236.332 130.489 236.323 130.49C236.315 130.491 236.307 130.494 236.3 130.498C236.293 130.502 236.286 130.507 236.281 130.513C236.276 130.52 236.272 130.527 236.27 130.535C236.268 130.543 236.267 130.551 236.268 130.559C236.269 130.567 236.271 130.575 236.275 130.583C237.316 132.954 238.478 135.27 239.755 137.523C239.495 137.183 239.245 136.823 238.965 136.523C238.335 135.773 237.715 135.023 237.155 134.223C237.065 134.103 236.855 134.223 236.945 134.343C237.485 135.103 237.945 135.893 238.455 136.693C238.965 137.493 239.455 138.253 240.005 139.023C240.555 139.793 241.095 140.463 241.665 141.153C241.726 141.243 241.793 141.33 241.865 141.413C242.645 142.843 243.405 144.273 244.215 145.683C247.055 150.613 253.505 160.543 253.595 160.513C254.245 160.155 254.864 159.744 255.445 159.283C255.485 159.193 255.485 159.093 255.365 159.113Z" fill="#263238"/>
<path d="M199.955 111.653C172.735 125.793 147.175 142.993 142.375 154.943C139.375 162.463 143.085 176.093 146.115 184.283C147.595 188.283 185.245 172.743 182.115 169.433C174.375 161.253 173.115 157.973 173.965 156.313C174.495 155.253 204.285 129.393 212.645 117.733C224.305 101.493 211.865 105.463 199.955 111.653Z" fill="#774442"/>
<path d="M196.345 206.363C192.785 208.363 188.605 199.173 188.605 199.173C188.475 200.927 187.731 202.58 186.505 203.843C184.245 205.963 179.935 203.343 179.935 203.343C179.415 205.132 178.37 206.724 176.935 207.913C174.565 209.723 169.835 207.713 169.835 207.713C168.451 209.093 166.615 209.928 164.665 210.063C159.445 210.223 155.015 203.593 152.145 199.413C149.275 195.233 145.085 180.663 144.005 177.973L170.715 159.363C170.715 159.363 188.895 174.483 191.565 179.883C193.805 184.433 201.775 203.313 196.345 206.363Z" fill="#774442"/>
<path d="M188.665 199.043C187.485 193.653 184.915 188.533 182.485 183.653C182.425 183.543 182.255 183.653 182.315 183.733C184.845 188.583 186.135 194.223 188.475 199.153C188.494 199.163 188.516 199.168 188.538 199.167C188.56 199.167 188.581 199.161 188.6 199.15C188.619 199.139 188.635 199.123 188.646 199.104C188.658 199.086 188.664 199.064 188.665 199.043Z" fill="#263238"/>
<path d="M180.225 203.013C179.824 201.813 179.27 200.67 178.575 199.613C177.905 198.453 177.225 197.303 176.525 196.153C175.115 193.873 173.655 191.623 172.125 189.413C172.055 189.313 171.895 189.413 171.955 189.503C173.355 191.783 174.725 194.083 176.025 196.413C176.675 197.583 177.315 198.763 177.955 199.933C178.48 201.084 179.13 202.174 179.895 203.183C179.923 203.216 179.961 203.239 180.003 203.248C180.046 203.256 180.09 203.25 180.128 203.23C180.167 203.21 180.198 203.178 180.215 203.138C180.233 203.099 180.236 203.054 180.225 203.013Z" fill="#263238"/>
<path d="M169.775 207.653C169.402 206.567 168.847 205.553 168.135 204.653C167.465 203.653 166.815 202.593 166.135 201.563C164.825 199.493 163.525 197.423 162.295 195.313C162.28 195.297 162.26 195.286 162.239 195.283C162.217 195.28 162.195 195.283 162.176 195.293C162.157 195.304 162.141 195.32 162.132 195.339C162.123 195.359 162.121 195.381 162.125 195.403C163.365 197.553 164.575 199.723 165.835 201.863C166.455 202.863 167.075 203.963 167.705 205.013C168.185 206.021 168.842 206.936 169.645 207.713C169.725 207.713 169.795 207.653 169.775 207.653Z" fill="#263238"/>
<path d="M160.635 132.843L180.565 152.393C180.565 152.393 206.775 129.183 214.365 116.543C221.955 103.903 216.365 102.723 201.195 109.923C186.025 117.123 160.635 132.843 160.635 132.843Z" fill="#9382FF"/>
<path d="M160.635 132.843L180.565 152.393C180.565 152.393 206.775 129.183 214.365 116.543C221.955 103.903 216.365 102.723 201.195 109.923C186.025 117.123 160.635 132.843 160.635 132.843Z" fill="#455A64"/>
<path d="M217.685 108.803C217.619 109.336 217.502 109.862 217.335 110.373H200.265L201.195 109.923C202.035 109.523 202.845 109.153 203.625 108.803H217.685ZM192.275 114.473L189.395 116.033H214.665C214.985 115.493 215.285 114.963 215.555 114.473H192.275ZM182.075 120.133L179.345 121.653H210.755C211.165 121.123 211.555 120.653 211.935 120.093L182.075 120.133ZM172.305 125.803L169.695 127.363H205.985C206.445 126.843 206.905 126.363 207.345 125.803H172.305ZM162.885 131.463L160.635 132.843L160.815 133.023H200.735L202.215 131.463H162.885ZM164.995 137.123L166.595 138.693H195.145L196.715 137.123H164.995ZM170.775 142.793L172.365 144.353H189.285L190.935 142.793H170.775ZM176.545 148.453L178.135 150.013H183.205L184.905 148.453H176.545Z" fill="#263238"/>
<path d="M184.705 147.283C175.505 139.463 168.705 131.333 167.125 129.773C167.055 129.693 167.185 129.583 167.255 129.663C168.735 131.283 177.965 139.753 184.855 147.163C184.935 147.253 184.795 147.363 184.705 147.283Z" fill="#263238"/>
<path d="M202.335 121.293C201.335 123.433 200.335 125.563 199.485 127.763C199.485 127.613 199.485 127.473 199.485 127.323C199.593 125.976 199.797 124.64 200.095 123.323C200.095 123.173 199.905 123.103 199.865 123.253C199.565 124.583 199.295 125.933 199.085 127.253C198.975 127.903 198.915 128.553 198.865 129.203C198.87 129.283 198.87 129.363 198.865 129.443C198.859 129.469 198.859 129.496 198.865 129.523C197.865 132.453 197.285 135.453 196.455 138.413C196.451 138.427 196.45 138.442 196.452 138.457C196.454 138.472 196.459 138.486 196.466 138.499C196.474 138.512 196.483 138.524 196.495 138.533C196.507 138.542 196.521 138.549 196.535 138.553C196.55 138.557 196.565 138.558 196.579 138.556C196.594 138.554 196.609 138.549 196.622 138.542C196.635 138.534 196.646 138.524 196.655 138.512C196.664 138.501 196.671 138.487 196.675 138.473C197.495 135.573 198.675 132.763 199.675 129.933C200.675 127.103 201.535 124.213 202.515 121.363C202.545 121.273 202.375 121.193 202.335 121.293Z" fill="#263238"/>
<path d="M216.355 118.963C220.735 120.163 228.565 113.703 231.755 108.343C231.975 107.973 231.545 104.003 231.255 99.1525C231.085 96.1525 230.965 92.9225 231.075 89.9225C231.075 89.3025 212.075 93.8025 212.075 93.8025C213.012 97.5978 213.483 101.493 213.475 105.403C213.448 105.813 213.388 106.221 213.295 106.623C213.289 106.692 213.289 106.763 213.295 106.833C212.795 109.153 212.125 117.793 216.355 118.963Z" fill="#774442"/>
<path d="M229.915 89.9526C228.855 94.9526 225.245 107.153 215.185 106.953C214.541 106.956 213.898 106.899 213.265 106.783C213.258 106.713 213.258 106.642 213.265 106.573C213.358 106.172 213.418 105.763 213.445 105.353C213.452 101.44 212.982 97.5414 212.045 93.7426C212.045 93.7426 225.805 90.5526 229.915 89.9526Z" fill="#263238"/>
<path d="M210.925 79.4026C211.015 84.0126 207.805 87.8226 203.755 87.8926C199.705 87.9626 196.355 84.3026 196.265 79.6826C196.175 75.0626 199.385 71.2626 203.435 71.1826C207.485 71.1026 210.835 74.7826 210.925 79.4026Z" fill="#9382FF"/>
<path d="M205.324 89.1161C209.83 89.0296 213.403 84.7964 213.304 79.6611C213.205 74.5258 209.473 70.433 204.967 70.5195C200.461 70.606 196.888 74.8391 196.987 79.9744C197.086 85.1097 200.818 89.2026 205.324 89.1161Z" fill="#C7C7C7"/>
<path d="M230.105 64.9826C233.215 71.2426 232.915 90.8626 228.935 95.8926C223.165 103.183 212.135 105.623 205.535 98.3326C199.145 91.2526 199.995 65.6926 204.595 60.9626C211.355 53.9926 225.485 55.7426 230.105 64.9826Z" fill="#774442"/>
<path d="M214.645 82.0326C214.645 82.0326 214.745 82.0926 214.745 82.1526C214.685 83.4726 214.845 84.9926 216.035 85.4426V85.5226C214.575 85.3026 214.385 83.2726 214.645 82.0326Z" fill="#263238"/>
<path d="M215.845 80.6525C217.965 80.5125 218.085 84.7825 216.115 84.9125C214.145 85.0425 214.055 80.7825 215.845 80.6525Z" fill="#263238"/>
<path d="M207.255 82.2826C207.255 82.2826 207.145 82.3526 207.155 82.4026C207.235 83.7226 207.095 85.2426 205.915 85.7226C205.915 85.7226 205.915 85.8026 205.915 85.7926C207.385 85.5426 207.535 83.5226 207.255 82.2826Z" fill="#263238"/>
<path d="M206.035 80.9326C203.905 80.8326 203.855 85.1026 205.825 85.1926C207.795 85.2826 207.815 81.0226 206.035 80.9326Z" fill="#263238"/>
<path d="M217.715 77.2326C217.131 77.1911 216.55 77.1143 215.975 77.0026C215.351 77.0034 214.743 76.7997 214.245 76.4226C214.112 76.2757 214.033 76.0888 214.018 75.8913C214.004 75.6939 214.055 75.4973 214.165 75.3326C214.431 75.0358 214.772 74.8154 215.151 74.6941C215.531 74.5728 215.936 74.555 216.325 74.6426C217.142 74.6933 217.91 75.0504 218.475 75.6426C218.582 75.7885 218.647 75.9606 218.664 76.1406C218.681 76.3206 218.649 76.5018 218.571 76.665C218.493 76.8281 218.372 76.967 218.221 77.067C218.071 77.167 217.896 77.2242 217.715 77.2326Z" fill="#263238"/>
<path d="M203.985 77.8826C204.575 77.7626 205.095 77.5626 205.665 77.3926C206.281 77.3005 206.85 77.0089 207.285 76.5626C207.396 76.3964 207.448 76.1981 207.433 75.9989C207.419 75.7998 207.339 75.6111 207.205 75.4626C206.898 75.2084 206.527 75.0417 206.133 74.9801C205.739 74.9185 205.335 74.9643 204.965 75.1126C204.157 75.2812 203.442 75.7491 202.965 76.4226C202.879 76.5853 202.839 76.7687 202.85 76.9526C202.861 77.1365 202.923 77.3137 203.028 77.4648C203.134 77.6158 203.279 77.7347 203.448 77.8085C203.617 77.8822 203.803 77.9079 203.985 77.8826Z" fill="#263238"/>
<path d="M217.205 94.2526C216.895 94.5626 216.585 95.0026 216.115 95.0526C215.623 95.0569 215.136 94.9581 214.685 94.7626C214.685 94.7626 214.595 94.7626 214.625 94.8326C214.822 95.0867 215.084 95.283 215.383 95.4009C215.682 95.5188 216.008 95.5539 216.325 95.5026C216.591 95.4234 216.829 95.2672 217.006 95.0537C217.184 94.8402 217.295 94.5789 217.325 94.3026C217.345 94.2226 217.245 94.2026 217.205 94.2526Z" fill="#263238"/>
<path d="M211.725 92.0026C212.302 92.7141 213.053 93.2651 213.905 93.6026C214.38 93.7535 214.89 93.7535 215.365 93.6026C216.415 93.2926 216.415 92.3226 216.195 91.5026C216.073 91.0646 215.902 90.6419 215.685 90.2426C214.589 91.2399 213.2 91.8571 211.725 92.0026Z" fill="#263238"/>
<path d="M213.905 93.6526C214.38 93.8036 214.89 93.8036 215.365 93.6526C216.415 93.3426 216.415 92.3726 216.195 91.5526C215.632 91.5912 215.098 91.82 214.682 92.2016C214.266 92.5832 213.992 93.0948 213.905 93.6526Z" fill="#FF98B9"/>
<path opacity="0.2" d="M232.195 78.9026C230.915 78.6626 227.955 74.2326 226.685 72.4726C225.415 70.7126 224.915 61.4126 224.845 59.3126C227.099 60.6678 228.923 62.6337 230.105 64.9826C231.485 67.7826 232.195 73.2526 232.195 78.9026Z" fill="#263238"/>
<path d="M208.695 66.5426C209.436 67.3991 210.383 68.0525 211.447 68.4409C212.511 68.8294 213.656 68.9401 214.775 68.7626C215.92 68.5792 216.998 68.105 217.907 67.3853C218.815 66.6657 219.524 65.7247 219.965 64.6526C219.965 64.5926 220.085 64.6526 220.065 64.6526C219.697 65.8156 219.017 66.8559 218.101 67.6613C217.185 68.4666 216.066 69.0065 214.865 69.2226C213.676 69.3733 212.468 69.2087 211.362 68.7454C210.256 68.282 209.292 67.5362 208.565 66.5826C208.485 66.5626 208.625 66.4626 208.695 66.5426Z" fill="#263238"/>
<path d="M215.485 50.1026C219.335 50.1726 222.875 52.2826 224.305 54.8926C225.094 56.3786 225.358 58.0876 225.055 59.7426C225.055 59.8126 224.905 59.8026 224.915 59.7426C224.984 58.2774 224.659 56.8206 223.973 55.5241C223.287 54.2277 222.266 53.1392 221.015 52.3726C219.648 51.4829 218.092 50.9231 216.471 50.7374C214.85 50.5517 213.208 50.7452 211.675 51.3026C210.182 51.8208 208.918 52.8472 208.105 54.2026C208.035 54.3426 207.745 54.2026 207.805 54.1026C208.825 51.6526 211.985 50.0526 215.485 50.1026Z" fill="#263238"/>
<path d="M193.165 58.5826C193.78 56.6754 195.052 55.0486 196.755 53.9926C199.105 52.5226 201.755 52.7226 204.425 52.9926C204.505 52.9926 204.495 53.1126 204.425 53.1026C202.165 52.8926 199.865 52.8126 197.795 53.8926C196.08 54.7651 194.722 56.2077 193.955 57.9726C193.219 59.7844 193.16 61.8009 193.79 63.6523C194.42 65.5037 195.697 67.0659 197.385 68.0526C198.371 68.5973 199.459 68.9341 200.58 69.0425C201.701 69.1508 202.833 69.0284 203.905 68.6826C203.985 68.6826 204.045 68.7726 203.965 68.8126C202.515 69.3448 200.946 69.4619 199.434 69.151C197.921 68.84 196.525 68.1133 195.403 67.0524C194.281 65.9916 193.477 64.6387 193.082 63.146C192.686 61.6533 192.715 60.0798 193.165 58.6026V58.5826Z" fill="#263238"/>
<path d="M231.405 68.8026C231.405 68.8026 234.985 61.8826 231.895 57.9226C230.135 55.6826 224.395 56.0426 224.395 56.0426C222.837 53.7733 220.441 52.2158 217.735 51.7126C212.915 50.7126 207.225 53.5326 207.225 53.5326C207.225 53.5326 202.635 50.9626 198.385 53.4526C192.455 56.9226 193.295 66.0026 199.325 68.8626C203.565 70.8626 209.255 67.0726 209.255 67.0726C209.805 67.1426 215.475 70.4826 219.685 65.4126C219.685 65.4126 223.175 68.4126 226.265 66.2626C226.758 67.162 227.515 67.8882 228.435 68.3425C229.354 68.7969 230.391 68.9575 231.405 68.8026Z" fill="#263238"/>
<path d="M228.625 81.1825C228.625 81.1825 232.035 74.3725 235.065 75.5025C238.095 76.6325 236.155 86.0625 233.065 87.7725C232.681 88.0196 232.251 88.1864 231.801 88.2629C231.351 88.3393 230.89 88.3238 230.447 88.2173C230.003 88.1107 229.585 87.9154 229.219 87.643C228.852 87.3707 228.545 87.0269 228.315 86.6325L228.625 81.1825Z" fill="#774442"/>
<path d="M234.485 78.1926C234.535 78.1926 234.555 78.2526 234.485 78.2826C232.315 79.5526 231.415 81.8726 230.885 84.2126C230.986 83.9623 231.139 83.7368 231.335 83.5515C231.531 83.3661 231.765 83.2254 232.021 83.139C232.276 83.0525 232.548 83.0224 232.816 83.0506C233.084 83.0789 233.343 83.1648 233.575 83.3026C233.645 83.3026 233.575 83.4426 233.575 83.4326C233.156 83.3583 232.724 83.4143 232.338 83.5931C231.952 83.7719 231.63 84.065 231.415 84.4326C231.069 85.0671 230.794 85.7378 230.595 86.4326C230.515 86.6626 230.125 86.6026 230.175 86.3526C229.645 83.4026 231.325 78.9526 234.485 78.1926Z" fill="#263238"/>
<path d="M221.195 94.8326L227.415 92.3426L232.525 86.3126L231.595 85.5226L226.685 91.3226L220.745 93.7026L221.195 94.8326Z" fill="#C7C7C7"/>
<path d="M221.875 93.8726C221.325 92.0626 216.285 92.5926 217.125 95.3326C217.965 98.0726 222.485 95.6526 221.875 93.8726Z" fill="#37474F"/>
<path d="M235.165 75.3225C235.165 75.3225 236.095 65.2625 233.295 59.6325C230.165 53.3625 216.705 47.1225 207.225 53.5325C207.225 53.5325 222.465 51.2125 229.295 59.9725C232.175 63.6625 231.795 75.5025 231.795 75.5025L235.165 75.3225Z" fill="#C7C7C7"/>
<path d="M241.917 80.7558C242.101 75.6229 238.6 71.3305 234.096 71.1685C229.592 71.0065 225.792 75.0362 225.607 80.1691C225.422 85.3021 228.924 89.5945 233.428 89.7565C237.931 89.9185 241.732 85.8887 241.917 80.7558Z" fill="#C7C7C7"/>
<path d="M227.985 79.9625C227.815 84.5725 230.985 88.4325 234.985 88.5725C238.985 88.7125 242.455 85.1025 242.615 80.4925C242.775 75.8825 239.615 72.0225 235.615 71.8725C231.615 71.7225 228.145 75.3525 227.985 79.9625Z" fill="#9382FF"/>
<path d="M234.035 109.733C231.98 112.29 229.783 114.731 227.455 117.043C225.205 119.143 222.455 121.043 219.455 121.343C216.455 121.643 213.455 121.063 212.345 117.423C211.445 114.533 211.565 111.553 212.045 107.833C212.045 107.803 212.033 107.775 212.013 107.755C211.992 107.734 211.964 107.723 211.935 107.723C211.906 107.723 211.878 107.734 211.857 107.755C211.837 107.775 211.825 107.803 211.825 107.833C211.185 112.613 210.545 120.023 214.895 121.633C219.775 123.443 224.515 120.893 227.895 117.513C230.253 115.19 232.352 112.618 234.155 109.843C234.155 109.753 234.075 109.653 234.035 109.733Z" fill="#263238"/>
<path d="M259.095 219.213H170.165V223.203H259.095V219.213Z" fill="#C7C7C7"/>
<path d="M240.055 219.213L243.105 223.203H170.165V219.213H240.055Z" fill="#A6A6A6"/>
<path d="M236.255 223.203H149.585L142.375 164.343H229.045L236.255 223.203Z" fill="#C7C7C7"/>
<path d="M194.595 193.773C194.608 194.462 194.484 195.146 194.229 195.787C193.974 196.427 193.593 197.009 193.11 197.5C192.626 197.991 192.049 198.381 191.413 198.646C190.777 198.91 190.094 199.045 189.405 199.043C188 199.038 186.654 198.484 185.652 197.499C184.65 196.514 184.074 195.177 184.045 193.773C184.028 193.083 184.149 192.397 184.402 191.755C184.655 191.113 185.034 190.528 185.517 190.036C186 189.543 186.577 189.153 187.214 188.888C187.851 188.623 188.535 188.488 189.225 188.493C190.631 188.5 191.979 189.056 192.982 190.042C193.985 191.028 194.564 192.367 194.595 193.773Z" fill="white"/>
<path d="M435.715 230.983H342.995V242.863H435.715V230.983Z" fill="#455A64"/>
<path d="M433.095 242.863H345.605V246.573H433.095V242.863Z" fill="#37474F"/>
<path d="M420.605 333.193H358.105V336.903H420.605V333.193Z" fill="#455A64"/>
<path d="M356.075 387.732H351.445V246.573H364.075L356.075 387.732Z" fill="#455A64"/>
<path d="M364.075 246.573L363.605 254.922H351.445V246.573H364.075Z" fill="#263238"/>
<path d="M422.625 387.732H427.265V246.573H414.625L422.625 387.732Z" fill="#455A64"/>
<path d="M414.625 246.573L415.105 254.922H427.255V246.573H414.625Z" fill="#263238"/>
</g>
<defs>
<clipPath id="clip0_202_3734">
<rect width="437.32" height="442.7" fill="white" transform="translate(0.825012 0.900024)"/>
</clipPath>
</defs>
</svg>
