<svg width="405" height="422" viewBox="0 0 405 422" fill="none" xmlns="http://www.w3.org/2000/svg">
<g clip-path="url(#clip0_202_5137)">
<path d="M336.305 367.12H379.995V353.21H336.305V367.12Z" fill="#EBEBEB"/>
<path d="M285.505 139.12H329.195V125.21H285.505V139.12Z" fill="#EBEBEB"/>
<path d="M360.685 384.66C367.945 384.56 386.525 384.31 393.525 384.24H404.375L403.915 384.7V370.79L404.415 371.29C397.155 371.29 378.655 371.22 371.645 371.14L360.725 371.03L360.965 370.79L360.725 384.7L360.685 384.66ZM360.685 384.66L360.445 370.75V370.52H360.685C366.135 370.47 377.085 370.36 382.525 370.33L404.375 370.26H404.875V370.76L404.825 384.67V385.12H404.335H393.335C386.335 385.06 367.825 384.8 360.645 384.71L360.685 384.66Z" fill="#EBEBEB"/>
<path d="M175.995 279.08C183.255 278.98 201.835 278.73 208.845 278.66H219.685L219.225 279.12V265.21L219.725 265.71C212.475 265.71 193.965 265.64 186.955 265.56L176.035 265.45L176.275 265.21L176.035 279.12L175.995 279.08ZM175.995 279.08L175.755 265.17V264.93H175.995C181.445 264.88 192.395 264.77 197.845 264.74L219.685 264.67H220.185V265.17V279.08V279.58H219.735H208.735C201.735 279.52 183.235 279.26 176.045 279.17L175.995 279.08Z" fill="#EBEBEB"/>
<path d="M200.335 296.58C207.595 296.48 226.175 296.23 233.185 296.17L244.025 296.12L243.575 296.58V282.67L244.075 283.17C236.825 283.17 218.315 283.1 211.305 283.02L200.335 282.94L200.575 282.7L200.335 296.58ZM200.335 296.58L200.105 282.67V282.44H200.335C205.785 282.38 216.735 282.28 222.185 282.24L244.025 282.17H244.525V282.67V296.58V297.04H244.065L233.065 296.99C226.065 296.93 207.565 296.68 200.375 296.58H200.335Z" fill="#EBEBEB"/>
<path d="M224.645 279.08H268.335V265.17H224.645V279.08Z" fill="#EBEBEB"/>
<path d="M0.295044 384.66H43.985V370.75H0.295044V384.66Z" fill="#EBEBEB"/>
<path d="M24.6751 21.4199L68.3651 21.4199V7.50992L24.6751 7.50992V21.4199Z" fill="#EBEBEB"/>
<path d="M0.335033 38.9501C7.59503 38.8501 26.175 38.6001 33.185 38.5401H44.025L43.575 38.9901V25.0901L44.075 25.5901C36.825 25.5901 18.315 25.5101 11.305 25.4301L0.335033 25.2801L0.575035 25.0501L0.335033 38.9501ZM0.335033 38.9501L0.0950317 25.0501V24.8101H0.335033C5.78503 24.7501 16.735 24.6501 22.185 24.6201L43.985 24.5801H44.485V25.0801V38.9801V39.4401H44.025H33.025C26.025 39.3701 7.52503 39.1201 0.335033 39.0201V38.9501Z" fill="#EBEBEB"/>
<path d="M336.335 21.42C343.595 21.32 362.175 21.07 369.175 21.01H380.025L379.565 21.47V7.56001L380.065 8.06001C372.805 8.06001 354.305 7.99001 347.295 7.91001L336.335 7.75001L336.565 7.51001L336.335 21.42ZM336.335 21.42L336.095 7.51001V7.28001H336.335C341.785 7.22001 352.725 7.12001 358.175 7.08001L380.025 7.01001H380.525V7.51001L380.475 21.42V21.88H380.025H369.025C362.025 21.82 343.515 21.57 336.335 21.47V21.42Z" fill="#EBEBEB"/>
<path d="M149.055 56.22H6.68503V215.07H149.055V56.22Z" fill="#DBDBDB"/>
<path d="M139.685 65.6001H16.065V205.77H139.685V65.6001Z" fill="#EBEBEB"/>
<path d="M70.805 90.3801H27.235V142.01H70.805V90.3801Z" fill="white"/>
<path d="M50.595 93.9001C50.595 94.2106 50.503 94.5142 50.3305 94.7724C50.1579 95.0305 49.9127 95.2318 49.6259 95.3506C49.339 95.4694 49.0233 95.5005 48.7188 95.4399C48.4142 95.3794 48.1345 95.2298 47.9149 95.0103C47.6953 94.7907 47.5458 94.511 47.4852 94.2064C47.4246 93.9019 47.4557 93.5862 47.5746 93.2993C47.6934 93.0124 47.8946 92.7672 48.1528 92.5947C48.411 92.4222 48.7145 92.3301 49.025 92.3301C49.2316 92.3288 49.4363 92.3685 49.6274 92.4469C49.8185 92.5253 49.9921 92.6409 50.1382 92.787C50.2842 92.933 50.3998 93.1067 50.4782 93.2977C50.5567 93.4888 50.5964 93.6936 50.595 93.9001Z" fill="#455A64"/>
<path d="M35.535 100.73C39.935 100.39 44.345 100.37 48.745 100.32C53.145 100.27 57.555 100.38 61.965 100.73C57.555 101.07 53.155 101.09 48.745 101.14C44.335 101.19 39.935 101.07 35.535 100.73Z" fill="#EBEBEB"/>
<path d="M35.535 104.81C40.3094 104.263 45.1306 104.263 49.905 104.81C45.1306 105.357 40.3094 105.357 35.535 104.81Z" fill="#EBEBEB"/>
<path d="M35.535 108.89C38.5862 108.599 41.6501 108.462 44.715 108.48C47.78 108.462 50.8439 108.599 53.895 108.89C50.835 109.21 47.775 109.28 44.715 109.3C41.655 109.32 38.595 109.21 35.535 108.89Z" fill="#EBEBEB"/>
<path d="M35.535 112.97C39.365 112.65 43.185 112.57 47.015 112.56C50.845 112.55 54.675 112.65 58.505 112.97C54.675 113.29 50.845 113.36 47.015 113.38C43.185 113.4 39.335 113.29 35.535 112.97Z" fill="#EBEBEB"/>
<path d="M35.535 117.05C38.855 116.73 42.185 116.65 45.535 116.64C48.885 116.63 52.185 116.73 55.535 117.05C52.215 117.37 48.885 117.44 45.535 117.46C42.185 117.48 38.855 117.37 35.535 117.05Z" fill="#EBEBEB"/>
<path d="M35.535 121.13C39.785 120.79 44.045 120.77 48.305 120.72C52.565 120.67 56.825 120.79 61.075 121.13C56.825 121.47 52.565 121.49 48.305 121.54C44.045 121.59 39.785 121.47 35.535 121.13Z" fill="#EBEBEB"/>
<path d="M35.535 125.21C38.2756 124.924 41.0296 124.787 43.785 124.8C46.5405 124.782 49.2949 124.919 52.035 125.21C46.5486 125.757 41.0215 125.757 35.535 125.21Z" fill="#EBEBEB"/>
<path d="M35.535 129.29C39.935 128.95 44.345 128.93 48.745 128.88C53.145 128.83 57.555 128.95 61.965 129.29C57.555 129.63 53.155 129.65 48.745 129.7C44.335 129.75 39.935 129.63 35.535 129.29Z" fill="#EBEBEB"/>
<path d="M35.535 133.37C39.935 133.03 44.345 133.01 48.745 132.96C53.145 132.91 57.555 133.03 61.965 133.37C57.555 133.71 53.155 133.73 48.745 133.78C44.335 133.83 39.935 133.71 35.535 133.37Z" fill="#EBEBEB"/>
<path d="M129.005 122.58H77.4451V183.67H129.005V122.58Z" fill="white"/>
<path d="M104.795 130.82C104.795 131.131 104.703 131.434 104.53 131.692C104.358 131.95 104.113 132.152 103.826 132.27C103.539 132.389 103.223 132.42 102.919 132.36C102.614 132.299 102.334 132.15 102.115 131.93C101.895 131.711 101.746 131.431 101.685 131.126C101.625 130.822 101.656 130.506 101.775 130.219C101.893 129.932 102.095 129.687 102.353 129.515C102.611 129.342 102.915 129.25 103.225 129.25C103.641 129.253 104.038 129.419 104.332 129.713C104.626 130.007 104.792 130.404 104.795 130.82Z" fill="#455A64"/>
<path d="M84.665 137.82C86.5547 137.534 88.4639 137.397 90.375 137.41C92.2896 137.392 94.2025 137.529 96.095 137.82C92.3047 138.367 88.4554 138.367 84.665 137.82Z" fill="#EBEBEB"/>
<path d="M84.665 142.43C87.1207 142.139 89.5922 142.002 92.065 142.02C94.538 141.997 97.0098 142.134 99.465 142.43C97.0089 142.716 94.5377 142.853 92.065 142.84C89.5925 142.848 87.1216 142.711 84.665 142.43Z" fill="#EBEBEB"/>
<path d="M84.665 147.03C89.2187 146.483 93.8214 146.483 98.375 147.03C93.8214 147.577 89.2187 147.577 84.665 147.03Z" fill="#EBEBEB"/>
<path d="M84.665 151.64C86.937 151.354 89.2252 151.217 91.515 151.23C93.8083 151.212 96.1002 151.349 98.375 151.64C93.8214 152.187 89.2187 152.187 84.665 151.64Z" fill="#EBEBEB"/>
<path d="M84.665 156.24C86.6355 155.958 88.6245 155.824 90.615 155.84C92.6224 155.816 94.6286 155.95 96.615 156.24C94.6294 156.538 92.6228 156.675 90.615 156.65C88.6241 156.668 86.6347 156.531 84.665 156.24Z" fill="#EBEBEB"/>
<path d="M84.665 160.85C89.7337 160.303 94.8464 160.303 99.915 160.85C97.3824 161.141 94.8343 161.278 92.285 161.26C89.7392 161.273 87.1948 161.136 84.665 160.85Z" fill="#EBEBEB"/>
<path d="M84.665 165.46C88.8406 164.913 93.0695 164.913 97.245 165.46C93.0695 166.007 88.8406 166.007 84.665 165.46Z" fill="#EBEBEB"/>
<path d="M84.665 170.06C87.2855 169.779 89.9195 169.642 92.555 169.65C95.1907 169.637 97.8249 169.774 100.445 170.06C97.8258 170.356 95.1909 170.493 92.555 170.47C89.9193 170.488 87.2847 170.351 84.665 170.06Z" fill="#EBEBEB"/>
<path d="M84.665 174.67C89.9108 174.123 95.1992 174.123 100.445 174.67C97.8253 174.961 95.1908 175.098 92.555 175.08C89.9194 175.093 87.2851 174.956 84.665 174.67Z" fill="#EBEBEB"/>
<path d="M107.195 137.82C109.681 137.534 112.182 137.397 114.685 137.41C117.188 137.392 119.689 137.529 122.175 137.82C117.19 138.368 112.16 138.368 107.175 137.82H107.195Z" fill="#EBEBEB"/>
<path d="M107.195 142.43C108.819 142.14 110.466 142.002 112.115 142.02C113.768 141.998 115.419 142.135 117.045 142.43C115.417 142.715 113.767 142.852 112.115 142.84C110.466 142.847 108.82 142.71 107.195 142.43Z" fill="#EBEBEB"/>
<path d="M107.195 147.03C111.876 146.483 116.604 146.483 121.285 147.03C116.604 147.577 111.876 147.577 107.195 147.03Z" fill="#EBEBEB"/>
<path d="M107.195 151.64C109.467 151.354 111.755 151.217 114.045 151.23C116.338 151.212 118.63 151.349 120.905 151.64C116.351 152.187 111.749 152.187 107.195 151.64Z" fill="#EBEBEB"/>
<path d="M107.195 156.24C109.681 155.957 112.183 155.823 114.685 155.84C117.188 155.819 119.689 155.953 122.175 156.24C119.69 156.536 117.188 156.673 114.685 156.65C112.182 156.668 109.681 156.531 107.195 156.24Z" fill="#EBEBEB"/>
<path d="M107.195 160.85C111.146 160.303 115.154 160.303 119.105 160.85C117.119 161.143 115.113 161.28 113.105 161.26C111.128 161.271 109.152 161.134 107.195 160.85Z" fill="#EBEBEB"/>
<path d="M107.195 165.46C111.876 164.913 116.604 164.913 121.285 165.46C116.604 166.007 111.876 166.007 107.195 165.46Z" fill="#EBEBEB"/>
<path d="M107.195 170.06C108.998 169.779 110.82 169.642 112.645 169.65C114.47 169.638 116.293 169.775 118.095 170.06C116.294 170.355 114.47 170.492 112.645 170.47C110.82 170.488 108.997 170.351 107.195 170.06Z" fill="#EBEBEB"/>
<path d="M107.195 174.67C110.66 174.123 114.19 174.123 117.655 174.67C115.927 174.96 114.177 175.097 112.425 175.08C110.673 175.093 108.923 174.956 107.195 174.67Z" fill="#EBEBEB"/>
<path d="M93.0251 76.1899H66.8051V102.41H93.0251V76.1899Z" fill="#C7C7C7"/>
<path d="M81.475 78.8501C81.475 79.161 81.3827 79.4649 81.2097 79.7233C81.0368 79.9817 80.791 80.183 80.5035 80.3015C80.216 80.42 79.8999 80.4505 79.595 80.3891C79.2902 80.3277 79.0105 80.1772 78.7913 79.9566C78.5722 79.7361 78.4234 79.4554 78.364 79.1502C78.3045 78.845 78.3371 78.529 78.4574 78.2423C78.5778 77.9556 78.7806 77.7111 79.0401 77.5398C79.2996 77.3685 79.6041 77.2781 79.915 77.2801C80.1207 77.2801 80.3244 77.3207 80.5143 77.3998C80.7042 77.4788 80.8767 77.5946 81.0217 77.7405C81.1666 77.8864 81.2814 78.0596 81.3592 78.25C81.437 78.4404 81.4763 78.6444 81.475 78.8501Z" fill="#455A64"/>
<path d="M139.565 65.6001H136.025V205.92H139.565V65.6001Z" fill="#C7C7C7"/>
<path d="M402.205 410.48C274.205 411.1 130.515 411.1 2.46503 410.48C130.515 409.87 274.155 409.87 402.205 410.48Z" fill="#263238"/>
<path d="M380.685 291.44C361.025 310.68 357.685 340.44 361.865 366.53C361.975 367.12 362.865 366.96 362.865 366.4C362.865 360.46 362.685 354.58 362.705 348.72C362.805 348.45 362.895 348.2 363.005 347.93C368.135 344.2 372.855 339.99 375.775 334.21C379.055 327.76 380.345 320.47 382.855 313.73C383.085 313.09 382.405 313.28 381.955 313.61C369.955 322.43 366.185 331.91 362.755 344.61C362.823 337.979 363.52 331.37 364.835 324.87C367.415 312.87 372.525 300.87 381.175 291.98C381.525 291.58 381.025 291.1 380.685 291.44Z" fill="#263238"/>
<path d="M384.335 293.69C387.715 293.8 389.835 299.2 392.465 300.78C393.865 301.62 395.225 301.57 396.205 300.19C398.815 296.55 395.205 292.05 391.865 289.54C394.275 290.54 396.265 292.27 398.865 292.76C400.435 293.05 401.665 292.47 402.025 290.87C403.175 285.87 396.945 283.69 392.665 283.59C394.735 282.15 400.665 278.23 397.525 276.3C394.385 274.37 387.355 279.97 385.075 281.81C381.735 284.53 377.755 288.58 377.605 292.81C377.445 297.77 381.775 294.72 384.335 293.69Z" fill="#9382FF"/>
<path opacity="0.2" d="M384.335 293.69C387.715 293.8 389.835 299.2 392.465 300.78C393.865 301.62 395.225 301.57 396.205 300.19C398.815 296.55 395.205 292.05 391.865 289.54C394.275 290.54 396.265 292.27 398.865 292.76C400.435 293.05 401.665 292.47 402.025 290.87C403.175 285.87 396.945 283.69 392.665 283.59C394.735 282.15 400.665 278.23 397.525 276.3C394.385 274.37 387.355 279.97 385.075 281.81C381.735 284.53 377.755 288.58 377.605 292.81C377.445 297.77 381.775 294.72 384.335 293.69Z" fill="black"/>
<path d="M383.395 294.52C387.715 292.52 396.025 295.38 396.725 293.75C398.165 290.42 391.525 288.13 387.945 287.69C391.245 286.8 397.565 285.37 397.365 282.19C397.135 278.31 387.675 281.65 382.885 285.32C376.885 289.94 376.885 294.4 377.885 295.32C379.255 296.52 382.685 294.84 383.395 294.52Z" fill="#9382FF"/>
<path opacity="0.1" d="M383.395 294.52C387.715 292.52 396.025 295.38 396.725 293.75C398.165 290.42 391.525 288.13 387.945 287.69C391.245 286.8 397.565 285.37 397.365 282.19C397.135 278.31 387.675 281.65 382.885 285.32C376.885 289.94 376.885 294.4 377.885 295.32C379.255 296.52 382.685 294.84 383.395 294.52Z" fill="black"/>
<path d="M335.925 289.58C356.295 308.06 360.725 337.68 357.575 363.89C357.485 364.49 356.575 364.36 356.575 363.8C356.355 357.87 356.305 351.99 356.065 346.13C355.945 345.86 355.845 345.62 355.735 345.35C350.465 341.82 345.595 337.79 342.455 332.13C338.925 325.8 337.355 318.58 334.595 311.94C334.335 311.3 335.035 311.46 335.495 311.78C347.775 320.13 351.945 329.47 355.855 342.01C355.534 335.386 354.587 328.806 353.025 322.36C350.025 310.43 344.425 298.71 335.455 290.12C335.409 290.053 335.386 289.972 335.391 289.89C335.396 289.808 335.428 289.731 335.482 289.669C335.535 289.607 335.608 289.565 335.688 289.549C335.768 289.533 335.852 289.544 335.925 289.58Z" fill="#263238"/>
<path d="M332.335 291.92C328.965 292.16 327.045 297.64 324.475 299.32C323.115 300.21 321.755 300.21 320.725 298.88C317.975 295.33 321.385 290.7 324.655 288.06C322.285 289.14 320.355 290.96 317.775 291.55C317.447 291.671 317.098 291.721 316.75 291.695C316.401 291.669 316.063 291.569 315.757 291.401C315.45 291.234 315.184 291.002 314.975 290.722C314.766 290.443 314.619 290.121 314.545 289.78C313.215 284.86 319.355 282.41 323.625 282.14C321.495 280.78 315.415 277.09 318.495 275.05C321.575 273.01 328.795 278.33 331.135 280.05C334.585 282.64 338.715 286.54 339.035 290.77C339.395 295.74 334.955 292.86 332.335 291.92Z" fill="#9382FF"/>
<path opacity="0.2" d="M332.335 291.92C328.965 292.16 327.045 297.64 324.475 299.32C323.115 300.21 321.755 300.21 320.725 298.88C317.975 295.33 321.385 290.7 324.655 288.06C322.285 289.14 320.355 290.96 317.775 291.55C317.447 291.671 317.098 291.721 316.75 291.695C316.401 291.669 316.063 291.569 315.757 291.401C315.45 291.234 315.184 291.002 314.975 290.722C314.766 290.443 314.619 290.121 314.545 289.78C313.215 284.86 319.355 282.41 323.625 282.14C321.495 280.78 315.415 277.09 318.495 275.05C321.575 273.01 328.795 278.33 331.135 280.05C334.585 282.64 338.715 286.54 339.035 290.77C339.395 295.74 334.955 292.86 332.335 291.92Z" fill="black"/>
<path d="M333.335 292.72C328.935 290.92 320.745 294.06 319.985 292.45C318.425 289.18 324.985 286.64 328.535 286.06C325.205 285.3 318.825 284.06 318.905 280.93C318.995 277.04 328.575 280.01 333.495 283.5C339.695 287.89 339.825 292.35 338.865 293.28C337.535 294.58 334.045 293.01 333.335 292.72Z" fill="#9382FF"/>
<path opacity="0.1" d="M333.335 292.72C328.935 290.92 320.745 294.06 319.985 292.45C318.425 289.18 324.985 286.64 328.535 286.06C325.205 285.3 318.825 284.06 318.905 280.93C318.995 277.04 328.575 280.01 333.495 283.5C339.695 287.89 339.825 292.35 338.865 293.28C337.535 294.58 334.045 293.01 333.335 292.72Z" fill="black"/>
<path d="M356.755 338.34C358.131 348.231 360.244 358.004 363.075 367.58C363.122 367.76 363.236 367.915 363.393 368.014C363.55 368.112 363.739 368.148 363.921 368.112C364.104 368.076 364.266 367.972 364.374 367.822C364.482 367.671 364.529 367.484 364.505 367.3C363.165 358.3 360.725 349.45 359.385 340.45C357.922 331.341 357.399 322.106 357.825 312.89C358.675 297.71 362.825 281.57 372.705 269.7C372.915 269.42 372.455 269.02 372.235 269.28C352.405 292.4 355.565 320.73 355.585 323.28C352.775 313.71 349.885 302.75 339.265 293C338.815 292.58 338.455 292.78 338.525 293.5C340.425 311.24 345.365 320.5 355.655 330C355.945 332.78 356.335 335.58 356.755 338.34Z" fill="#263238"/>
<path d="M372.885 272.34C376.445 270.76 381.365 275.34 384.885 275.61C386.755 275.77 388.135 275.04 388.455 273.12C389.335 268.02 383.355 265.12 378.595 264.25C381.595 264.06 384.595 264.86 387.485 264.07C389.265 263.57 390.235 262.35 389.815 260.51C388.495 254.78 380.915 255.62 376.435 257.67C377.855 255.13 382.045 248.07 377.805 247.67C373.565 247.27 369.095 256.6 367.665 259.67C365.565 264.16 363.465 270.37 365.445 274.85C367.745 280.07 370.705 274.73 372.885 272.34Z" fill="#9382FF"/>
<path opacity="0.2" d="M372.885 272.34C376.445 270.76 381.365 275.34 384.885 275.61C386.755 275.77 388.135 275.04 388.455 273.12C389.335 268.02 383.355 265.12 378.595 264.25C381.595 264.06 384.595 264.86 387.485 264.07C389.265 263.57 390.235 262.35 389.815 260.51C388.495 254.78 380.915 255.62 376.435 257.67C377.855 255.13 382.045 248.07 377.805 247.67C373.565 247.27 369.095 256.6 367.665 259.67C365.565 264.16 363.465 270.37 365.445 274.85C367.745 280.07 370.705 274.73 372.885 272.34Z" fill="black"/>
<path d="M372.335 273.7C375.835 269.48 385.875 268.24 385.785 266.18C385.585 262.01 377.555 262.98 373.615 264.32C376.615 261.73 382.425 257.07 380.615 253.87C378.415 249.96 370.285 258.19 367.165 264.4C363.235 272.24 365.515 276.85 367.005 277.27C369.005 277.86 371.705 274.39 372.335 273.7Z" fill="#9382FF"/>
<path opacity="0.1" d="M372.335 273.7C375.835 269.48 385.875 268.24 385.785 266.18C385.585 262.01 377.555 262.98 373.615 264.32C376.615 261.73 382.425 257.07 380.615 253.87C378.415 249.96 370.285 258.19 367.165 264.4C363.235 272.24 365.515 276.85 367.005 277.27C369.005 277.86 371.705 274.39 372.335 273.7Z" fill="black"/>
<path d="M343.715 343.69L334.965 410.48H388.165C387.075 404.56 377.165 343.61 377.165 343.61L343.715 343.69Z" fill="#9382FF"/>
<path d="M396.635 110.59H192.515V121.06H396.635V110.59Z" fill="#455A64"/>
<path d="M209.285 121.06H201.925V155.69H209.285V121.06Z" fill="#455A64"/>
<path d="M209.285 121.06H201.925V131.76H209.285V121.06Z" fill="#263238"/>
<path d="M387.235 121.06H379.875V155.69H387.235V121.06Z" fill="#455A64"/>
<path d="M387.235 121.06H379.875V131.76H387.235V121.06Z" fill="#263238"/>
<path d="M372.245 48.5802C372.262 57.2738 369.509 65.7468 364.385 72.7702C360.245 78.471 354.712 83.0142 348.315 85.965C341.917 88.9158 334.87 90.1755 327.846 89.6236C320.822 89.0717 314.058 86.7266 308.2 82.8128C302.342 78.8989 297.586 73.5472 294.388 67.2698C291.19 60.9923 289.656 53.9992 289.933 46.9594C290.21 39.9196 292.29 33.0688 295.972 27.0624C299.654 21.0561 304.816 16.0951 310.964 12.6543C317.112 9.21341 324.04 7.40779 331.085 7.41016C332.215 7.41016 333.335 7.41016 334.445 7.54016C340.819 8.05329 346.984 10.0535 352.445 13.3802C356.662 15.9466 360.387 19.245 363.445 23.1202C364.366 24.2904 365.224 25.5088 366.015 26.7702C370.101 33.3096 372.261 40.8689 372.245 48.5802Z" fill="#455A64"/>
<path d="M339.975 68.0301C339.455 69.4201 340.325 69.4701 340.375 70.0301C340.425 70.5901 340.375 71.7001 338.705 73.3701C337.035 75.0401 334.265 74.7001 333.705 75.3701C333.145 76.0401 332.145 79.0001 330.765 79.9801C329.385 80.9601 329.145 80.3901 327.185 80.7901C325.225 81.1901 323.725 83.7301 323.185 84.9401C322.645 86.1501 323.295 88.1701 321.915 88.2301C320.535 88.2901 319.915 85.2901 318.625 83.6701C317.524 82.2236 316.812 80.5196 316.555 78.7201C316.145 76.8101 316.785 72.8401 316.555 71.2801C316.325 69.7201 312.175 66.9601 310.675 65.0501C309.175 63.1401 307.095 59.3501 307.215 58.0501C307.389 56.819 308.004 55.6927 308.945 54.8801C309.635 54.3601 309.345 54.0701 309.465 53.6101C309.585 53.1501 310.155 53.0301 310.265 52.4601C310.375 51.8901 309.925 50.1501 309.345 49.8601C308.765 49.5701 308.345 50.5501 308.025 50.3801C307.705 50.2101 306.635 49.0001 306.235 48.8801C305.835 48.7601 305.945 49.6301 305.365 48.5401C304.785 47.4501 304.505 44.6701 304.045 44.2101C303.585 43.7501 303.235 45.0201 302.145 44.2101C301.055 43.4001 300.585 41.8501 300.145 41.6201C299.705 41.3901 299.045 41.6801 298.575 40.7501C298.105 39.8201 298.995 38.1601 298.575 38.3301C298.155 38.5001 297.265 39.8301 297.035 38.5601C296.805 37.2901 298.185 33.0301 297.955 30.7201C297.863 29.5174 298.009 28.3083 298.385 27.1621C298.761 26.016 299.359 24.9551 300.145 24.0401C300.145 24.0401 300.375 22.7701 300.605 21.9601C300.835 21.1501 305.795 17.9601 306.365 16.9601C306.604 16.4441 306.743 15.8877 306.775 15.3201C313.834 10.1157 322.375 7.31176 331.145 7.32009C332.275 7.32009 333.395 7.32008 334.505 7.45008C334.536 7.50405 334.573 7.55437 334.615 7.60009C335.262 8.37571 336.137 8.9284 337.115 9.18008C338.575 9.72008 338.925 10.4101 338.615 10.9901C338.474 11.2291 338.27 11.424 338.024 11.553C337.778 11.682 337.502 11.7398 337.225 11.7201C336.655 11.7201 336.115 11.4501 335.505 11.8301C334.895 12.2101 334.275 14.2901 333.505 14.4101C332.735 14.5301 331.275 12.5601 330.965 11.9901C330.655 11.4201 331.655 10.1801 331.185 9.60009C330.715 9.02009 329.895 9.14009 328.585 9.03009C327.275 8.92009 324.245 9.41009 324.355 9.91009C324.465 10.4101 328.815 9.83009 328.925 10.8301C329.035 11.8301 325.745 13.5201 325.165 13.3701C324.585 13.2201 323.815 12.2201 322.975 12.1001C322.135 11.9801 321.435 12.6801 320.905 12.7601C320.375 12.8401 319.745 12.1801 318.905 12.3301C318.065 12.4801 317.905 13.1801 317.485 13.4501C317.065 13.7201 316.065 13.7201 315.945 14.3301C315.825 14.9401 317.215 15.3301 317.565 15.6801C317.915 16.0301 317.135 17.3701 317.485 17.6801C317.835 17.9901 319.985 16.0601 320.485 15.6001C320.985 15.1401 321.485 13.1401 322.635 13.1801C323.785 13.2201 324.175 15.1801 324.555 15.3701C324.935 15.5601 325.785 14.9101 327.055 15.1801C328.325 15.4501 329.205 18.1801 329.435 19.0601C329.665 19.9401 330.205 20.7501 329.745 21.0601C329.249 21.1538 328.738 21.1332 328.251 20.9998C327.764 20.8664 327.314 20.6236 326.935 20.2901C326.665 19.7501 328.325 18.9401 328.205 18.7501C327.978 18.5935 327.715 18.4968 327.44 18.4688C327.166 18.4409 326.889 18.4826 326.635 18.5901C326.135 18.8901 325.905 19.5201 325.365 19.6701C324.825 19.8201 323.365 18.2101 323.015 18.6701C322.665 19.1301 323.405 20.6001 323.785 20.9401C324.165 21.2801 325.595 21.4801 325.705 21.8601C325.815 22.2401 324.705 23.0901 323.445 23.0201C322.185 22.9501 321.055 21.9401 320.555 22.3601C320.055 22.7801 320.325 23.9001 319.985 24.2801C319.645 24.6601 317.755 24.4001 316.835 25.4001C315.915 26.4001 315.485 27.9001 314.565 28.7401C313.645 29.5801 313.215 28.5101 311.985 29.7401C310.755 30.9701 310.535 33.6801 310.495 34.5801C310.455 35.4801 310.495 36.2301 310.195 36.1201C309.764 35.7484 309.465 35.2464 309.345 34.6901C309.225 34.1901 309.615 33.3501 309.615 33.0401C308.917 32.0889 307.932 31.3876 306.805 31.0401C305.805 30.8901 304.805 31.7401 304.085 32.3501C303.365 32.9601 301.925 32.8501 301.425 33.3501C300.925 33.8501 300.545 38.2701 300.925 39.3501C301.305 40.4301 301.815 40.3501 303.045 39.8501C304.275 39.3501 303.585 38.2701 304.315 38.5001C304.643 38.6246 304.925 38.8465 305.124 39.1361C305.322 39.4257 305.427 39.7691 305.425 40.1201C305.425 40.7301 303.965 42.1901 304.155 42.6101C304.345 43.0301 305.615 42.5401 306.235 42.7301C306.855 42.9201 307.155 43.3101 306.965 44.8801C306.775 46.4501 306.885 47.6901 307.805 48.2101C308.725 48.7301 309.245 47.4601 309.655 47.6301C310.065 47.8001 310.655 48.7201 311.205 48.6301C311.755 48.5401 311.495 48.0501 312.595 47.7001C313.695 47.3501 313.285 47.1301 313.515 46.4401C313.553 46.2631 313.628 46.0962 313.736 45.9507C313.843 45.8051 313.981 45.6843 314.139 45.5962C314.297 45.5081 314.472 45.4549 314.653 45.44C314.833 45.4252 315.015 45.4491 315.185 45.5101C315.935 45.8601 315.415 46.3801 315.475 46.9501C315.535 47.5201 316.855 47.5901 317.895 47.9501C318.935 48.3101 319.515 47.9501 321.585 48.6501C323.655 49.3501 323.775 51.4101 324.645 51.7601C325.515 52.1101 328.385 51.5301 330.465 53.0301C332.545 54.5301 331.965 57.2901 332.995 58.1001C334.025 58.9101 337.895 60.0001 339.395 60.2901C340.895 60.5801 341.125 59.5401 342.335 59.8301C342.929 59.8857 343.485 60.147 343.906 60.5687C344.328 60.9905 344.589 61.5462 344.645 62.1401C344.995 63.5801 340.495 66.6501 339.975 68.0301Z" fill="#9382FF"/>
<path d="M308.995 38.5802C308.995 38.9002 309.995 39.0402 311.155 39.6902C312.315 40.3402 312.725 42.2702 313.345 42.2302C313.965 42.1902 313.765 41.3102 313.995 41.0702C314.096 41.0038 314.179 40.9133 314.237 40.8068C314.294 40.7003 314.324 40.5812 314.324 40.4602C314.324 40.3393 314.294 40.2202 314.237 40.1137C314.179 40.0072 314.096 39.9167 313.995 39.8502C313.385 39.3502 312.785 38.2702 311.655 38.1202C310.525 37.9702 310.345 37.5002 309.845 37.5402C309.717 37.5425 309.591 37.5725 309.476 37.6283C309.361 37.6841 309.26 37.7642 309.179 37.8632C309.098 37.9622 309.04 38.0776 309.008 38.2015C308.976 38.3253 308.972 38.4545 308.995 38.5802Z" fill="#9382FF"/>
<path d="M315.335 41.7801C315.155 42.2601 315.335 42.5901 316.565 42.9001C317.795 43.2101 318.945 42.5901 318.565 42.3401C318.185 42.0901 317.565 42.2101 317.835 41.7801C318.105 41.3501 317.995 40.7801 316.995 40.8601C315.995 40.9401 315.495 41.3601 315.335 41.7801Z" fill="#9382FF"/>
<path d="M319.645 41.9202C319.225 41.9802 318.995 42.7102 319.415 43.1702C319.835 43.6302 319.835 43.5502 320.335 43.1702C320.835 42.7902 321.605 42.5902 321.415 42.1702C321.225 41.7502 320.065 41.8602 319.645 41.9202Z" fill="#9382FF"/>
<path d="M322.985 43.4902C323.175 42.9102 324.145 43.4902 324.565 44.0902C324.726 44.4258 324.809 44.7932 324.809 45.1652C324.809 45.5373 324.726 45.9046 324.565 46.2402C324.335 46.9002 324.175 47.6702 323.645 47.3602C323.115 47.0502 323.645 46.1302 323.645 45.5902C323.645 45.0502 322.835 43.9602 322.985 43.4902Z" fill="#9382FF"/>
<path d="M339.555 11.42C339.355 11.91 340.285 12.08 340.825 12.42C341.365 12.76 341.825 12.91 342.085 12.42C342.141 12.308 342.172 12.1849 342.175 12.0595C342.178 11.9342 342.154 11.8097 342.103 11.695C342.052 11.5803 341.977 11.4783 341.882 11.3961C341.788 11.314 341.676 11.2539 341.555 11.22C341.125 11.08 339.745 10.96 339.555 11.42Z" fill="#9382FF"/>
<path d="M346.815 15.9201C347.175 16.2901 347.815 16.2301 348.195 16.7701C348.575 17.3101 348.465 18.2301 349.005 18.5001C349.545 18.7701 349.925 18.5001 350.005 18.1101C350.085 17.7201 349.235 16.7701 349.315 16.5701C349.395 16.3701 350.425 16.8401 350.665 17.4201C350.905 18.0001 350.425 18.8001 350.965 18.9601C351.505 19.1201 351.395 18.4201 351.625 18.2701C351.855 18.1201 352.355 18.1901 352.315 17.7301C352.126 17.0232 351.725 16.3913 351.165 15.9201C350.667 15.4838 350.075 15.1689 349.435 15.0001C349.086 14.9009 348.72 14.8772 348.362 14.9307C348.003 14.9841 347.66 15.1135 347.355 15.3101C346.895 15.6501 346.595 15.6901 346.815 15.9201Z" fill="#9382FF"/>
<path d="M363.445 23.1601C363.419 23.3174 363.342 23.4616 363.225 23.5701C362.415 24.1401 361.455 22.1501 360.345 21.7601C359.235 21.3701 358.735 19.9601 358.495 20.2601C358.255 20.5601 358.345 20.9901 357.995 21.4901C357.645 21.9901 357.155 21.8801 356.925 22.8401C356.695 23.8001 357.995 25.5701 357.695 26.1401C357.395 26.7101 357.005 26.5301 356.385 26.4901C355.765 26.4501 355.885 26.9901 355.075 26.7601C354.265 26.5301 354.965 25.5301 353.695 24.3401C352.425 23.1501 352.005 22.9201 352.275 22.3401C352.545 21.7601 352.155 21.0301 352.735 20.9501C353.315 20.8701 353.735 21.7201 354.155 21.9501C354.575 22.1801 355.045 21.4901 355.075 20.8801C355.105 20.2701 353.735 19.4201 353.235 18.9401C352.791 18.1643 352.666 17.2466 352.885 16.3801C353.085 16.0301 353.655 16.1501 353.815 15.3001C353.905 14.8101 353.115 13.9801 352.445 13.3801C356.665 15.9585 360.39 19.2706 363.445 23.1601Z" fill="#9382FF"/>
<path d="M369.185 57.5802C369.295 56.3502 368.685 56.2702 369.295 54.0002C369.48 53.107 369.477 52.1851 369.286 51.2931C369.095 50.4012 368.72 49.559 368.185 48.8202C367.725 48.3202 366.725 48.4702 365.915 48.9702C365.105 49.4702 365.685 49.8502 365.145 50.0502C364.605 50.2502 364.075 49.9302 363.575 49.9702C363.075 50.0102 362.575 51.2802 361.575 51.2402C360.575 51.2002 359.805 49.6602 359.005 48.5702C358.205 47.4802 356.545 46.7802 356.005 45.4302C355.465 44.0802 356.505 42.0102 356.275 40.4302C356.045 38.8502 355.005 39.2002 354.815 38.3102C354.625 37.4202 354.965 37.8502 355.235 37.0102C355.505 36.1702 354.925 35.7002 355.465 34.2402C356.005 32.7802 356.965 32.0502 356.735 31.4002C356.302 30.6103 355.966 29.7708 355.735 28.9002C355.735 28.1402 356.465 28.1702 357.925 27.0902C359.385 26.0102 359.765 26.0902 360.925 26.4802C361.726 26.7732 362.548 27.0039 363.385 27.1702C364.035 27.2802 364.925 28.9802 365.185 28.9002C365.445 28.8202 365.495 28.3202 365.615 27.5902C365.686 27.2709 365.854 26.9813 366.095 26.7602C370.432 33.7194 372.593 41.8143 372.303 50.009C372.013 58.2037 369.283 66.1254 364.465 72.7602C368.335 66.8202 369.065 58.8502 369.185 57.5802Z" fill="#9382FF"/>
<path d="M378.435 48.5801C378.562 52.8142 378.115 57.0461 377.105 61.1601L376.745 62.7101L376.245 64.2301L375.245 67.2301L373.925 70.1501C373.705 70.6301 373.505 71.1501 373.255 71.6001L372.465 73.0001C370.357 76.7404 367.758 80.1811 364.735 83.2301L362.335 85.4901C361.565 86.2401 360.655 86.8301 359.815 87.4901C358.108 88.8051 356.318 90.0076 354.455 91.0901C353.515 91.6301 352.535 92.0901 351.575 92.5601L350.115 93.2901C349.625 93.5101 349.115 93.6801 348.615 93.8801L345.615 95.0201L342.485 95.8601L340.915 96.2801L339.335 96.5801L336.135 97.0901L332.885 97.2901L331.265 97.3801C330.725 97.3801 330.185 97.3801 329.645 97.3301L326.395 97.1801C325.315 97.0701 324.245 96.8801 323.175 96.7301C321.031 96.3874 318.911 95.9131 316.825 95.3101C315.825 94.9801 314.775 94.5801 313.755 94.2201L312.225 93.6601C311.725 93.4501 311.225 93.2001 310.755 92.9701L307.775 91.5801L304.985 89.9001C304.048 89.3493 303.152 88.731 302.305 88.0501C301.445 87.3901 300.545 86.7801 299.725 86.0501C298.077 84.6371 296.521 83.1207 295.065 81.5101C292.124 78.3136 289.643 74.7223 287.695 70.8401L286.335 67.8601C285.915 66.8601 285.595 65.8601 285.215 64.8601L284.675 63.3301C284.505 62.8101 284.405 62.3301 284.265 61.7601L283.445 58.5801C282.645 54.3298 282.386 49.9953 282.675 45.6801C283.304 37.0465 286.278 28.7483 291.275 21.6801C296.221 14.7132 302.974 9.22651 310.805 5.81006C303.35 9.685 297.036 15.4378 292.485 22.5001C287.991 29.4726 285.412 37.5049 285.005 45.7901C284.867 49.8916 285.202 53.9954 286.005 58.0201L286.805 61.0201C286.935 61.5101 287.045 62.0201 287.215 62.4901L287.755 63.9301C288.125 64.9301 288.445 65.8501 288.855 66.7901L290.215 69.5401C290.662 70.4577 291.166 71.3461 291.725 72.2001C292.275 73.0501 292.725 73.9701 293.365 74.7801C294.539 76.4486 295.826 78.0356 297.215 79.5301C298.592 81.0369 300.061 82.4563 301.615 83.7801C302.395 84.4401 303.245 85.0101 304.055 85.6301L305.275 86.5401C305.695 86.8401 306.145 87.0801 306.575 87.3501C320.295 96.3501 338.855 96.8401 353.345 89.0901C356.96 87.1111 360.318 84.6964 363.345 81.9001C366.371 79.0746 369.005 75.8559 371.175 72.3301L372.015 71.0201C372.285 70.5801 372.505 70.1101 372.745 69.6501L374.175 66.8701L375.325 63.9701L375.905 62.5101L376.325 61.0101C376.615 60.0101 376.915 59.0101 377.175 58.0101L377.735 54.9201C377.835 54.4001 377.945 53.9201 378.025 53.3701L378.155 51.8001L378.435 48.5801Z" fill="#263238"/>
<path d="M314.815 11.3501L309.235 14.0001L305.305 2.25013L308.175 0.890137L314.815 11.3501Z" fill="#263238"/>
<path d="M334.965 95.9602H328.985V110.61H334.965V95.9602Z" fill="#263238"/>
<path d="M353.885 105.16H310.055V110.59H353.885V105.16Z" fill="#263238"/>
<path d="M389.295 412.59H169.495V418H389.295V412.59Z" fill="#9382FF"/>
<path d="M264.755 412.59V404.54L183.265 406.12L172.555 412.59H264.755Z" fill="#EBEBEB"/>
<path d="M264.755 412.58V404.58C264.755 404.58 291.245 405.04 295.935 404.58C300.625 404.12 324.565 401.89 328.445 402.1C332.325 402.31 339.885 406.88 339.885 406.88V412.58H264.755Z" fill="#DBDBDB"/>
<path d="M387.145 412.58L385.225 408.01C385.225 408.01 373.575 408.25 371.895 408.01C370.215 407.77 354.415 403.2 350.995 403.82C347.575 404.44 339.885 406.82 339.885 406.82V412.58H387.145Z" fill="#DBDBDB"/>
<path d="M166.775 280.61H12.385V361.67H166.775V280.61Z" fill="#9382FF"/>
<path opacity="0.5" d="M166.775 280.61H12.385V361.67H166.775V280.61Z" fill="black"/>
<path d="M2.54501 361.67H12.385L12.385 280.61H2.54501L2.54501 361.67Z" fill="#9382FF"/>
<path opacity="0.7" d="M2.54501 361.67H12.385L12.385 280.61H2.54501L2.54501 361.67Z" fill="black"/>
<path d="M41.995 361.67H26.725V410.43H41.995V361.67Z" fill="#C7C7C7"/>
<path d="M152.425 361.67H137.155V410.43H152.425V361.67Z" fill="#C7C7C7"/>
<path d="M38.515 335.58C38.5189 336.4 38.2797 337.203 37.8274 337.888C37.3751 338.572 36.7301 339.107 35.9739 339.425C35.2177 339.743 34.3842 339.83 33.5787 339.675C32.7732 339.519 32.0318 339.128 31.4483 338.552C30.8647 337.975 30.4651 337.239 30.3 336.435C30.1349 335.632 30.2116 334.797 30.5205 334.037C30.8294 333.277 31.3566 332.626 32.0356 332.165C32.7145 331.705 33.5147 331.456 34.335 331.45C34.8812 331.445 35.423 331.547 35.9293 331.753C36.4356 331.958 36.8962 332.261 37.2848 332.645C37.6733 333.029 37.9821 333.486 38.1932 333.989C38.4044 334.493 38.5137 335.034 38.515 335.58Z" fill="white"/>
<path d="M148.935 335.58C148.935 336.399 148.692 337.199 148.237 337.88C147.782 338.561 147.136 339.091 146.379 339.405C145.623 339.718 144.79 339.8 143.987 339.64C143.184 339.481 142.447 339.086 141.868 338.507C141.289 337.928 140.894 337.191 140.735 336.388C140.575 335.585 140.657 334.752 140.97 333.996C141.284 333.239 141.814 332.593 142.495 332.138C143.176 331.683 143.976 331.44 144.795 331.44C145.893 331.44 146.946 331.876 147.722 332.653C148.499 333.429 148.935 334.482 148.935 335.58Z" fill="white"/>
<path d="M152.335 268.42C172.605 270.49 252.515 257.2 272.465 232.79C283.025 219.89 280.525 123.02 279.615 114.28C279.015 108.56 214.505 111.69 215.245 120.46C217.245 144.08 224.315 199.46 219.165 204.08C203.475 218.08 181.015 226.47 152.525 242.44C132.675 253.58 129.965 266.14 152.335 268.42Z" fill="#AD6359"/>
<path d="M274.335 77.58C279.635 89.7 280.775 118.73 278.335 125.84C275.895 132.95 226.625 136.53 221.485 130.84C216.345 125.15 201.665 82.91 205.175 69.84C208.685 56.77 268.845 65.05 274.335 77.58Z" fill="#AD6359"/>
<path d="M203.825 90.99C210.825 91.73 211.035 85.99 211.035 85.99C211.035 85.99 212.035 99.55 219.555 101.44C226.795 103.23 228.215 92.22 228.325 91.44C228.385 92.15 229.625 104.59 237.375 105.71C245.375 106.86 244.945 95.56 244.915 94.83C245.175 95.49 248.915 104.15 254.915 103.66C265.355 102.81 256.515 80.42 260.215 72.78C260.215 72.78 273.875 77.58 274.295 77.63C274.295 77.63 266.295 56.15 255.745 51.73C254.216 51.0651 252.505 50.9415 250.896 51.3797C249.287 51.8178 247.876 52.7915 246.895 54.14C246.895 54.14 245.085 46.93 239.015 45.86C235.895 45.32 232.255 49.86 232.255 49.86C232.255 49.86 230.565 44.15 225.105 43.54C220.755 43.03 217.775 47.63 217.775 47.63C217.775 47.63 215.195 17.36 207.175 17.11C193.365 16.69 202.525 81.11 198.085 85.32C195.925 87.33 200.785 90.67 203.825 90.99Z" fill="#AD6359"/>
<path d="M217.235 48.2199C217.241 48.1971 217.238 48.173 217.228 48.1518C217.217 48.1307 217.2 48.1139 217.179 48.1043C217.157 48.0948 217.133 48.0931 217.11 48.0996C217.088 48.1061 217.068 48.1204 217.055 48.1399C211.435 59.5599 208.745 73.8299 210.905 86.4499C210.975 86.8599 212.315 88.2899 212.265 87.8199C211.015 76.0999 213.265 61.1199 217.235 48.2199Z" fill="#263238"/>
<path d="M232.265 49.5799C232.265 49.4399 232.075 49.3599 232.005 49.4999C226.275 61.2999 223.695 77.4999 227.895 91.7099C228.035 92.1999 228.655 92.4899 228.535 91.9199C226.465 82.2599 228.625 61.1999 232.265 49.5799Z" fill="#263238"/>
<path d="M245.545 95.7099C242.055 81.8799 243.345 68.3299 246.665 54.5999C246.665 54.4199 246.455 54.3699 246.375 54.5099C242.915 60.7899 241.715 69.7599 241.375 76.8199C240.924 83.3679 242.2 89.9196 245.075 95.8199C245.175 96.0699 245.625 95.9999 245.545 95.7099Z" fill="#263238"/>
<path d="M210.865 86.14C210.955 86.64 211.995 85.48 212.095 85.97C213.235 91.33 215.735 100.82 220.305 100.89C223.975 100.89 226.565 96.04 226.825 93.77L227.485 88.06L228.855 93.65C229.445 96.1254 230.431 98.4892 231.775 100.65C233.125 102.75 235.025 104.49 237.255 104.81C238.331 105.05 239.457 104.911 240.442 104.417C241.428 103.924 242.213 103.105 242.665 102.1C243.648 99.8389 244.03 97.3623 243.775 94.91L243.335 88.11L245.965 94.36C246.694 96.099 247.645 97.736 248.795 99.23C249.825 100.695 251.266 101.822 252.935 102.47C253.695 102.733 254.513 102.779 255.297 102.602C256.082 102.425 256.801 102.033 257.375 101.47C258.465 100.017 259.115 98.2817 259.245 96.47C259.765 92.64 259.465 88.64 259.365 84.67C259.295 82.67 259.225 80.67 259.255 78.67C259.168 76.6581 259.509 74.6506 260.255 72.78C259.731 74.6933 259.578 76.6893 259.805 78.66C259.935 80.66 260.155 82.66 260.365 84.6C260.917 88.5948 261.088 92.633 260.875 96.66C260.813 98.8488 260.099 100.969 258.825 102.75C258.035 103.648 256.999 104.294 255.846 104.609C254.692 104.923 253.471 104.892 252.335 104.52C250.238 103.783 248.41 102.435 247.085 100.65C245.783 98.9982 244.698 97.1869 243.855 95.26L246.045 94.71C246.382 97.6087 245.958 100.545 244.815 103.23C244.134 104.699 242.964 105.887 241.505 106.59C240.054 107.231 238.444 107.419 236.885 107.13C233.715 106.6 231.405 104.24 229.945 101.87C228.493 99.464 227.445 96.8356 226.845 94.09L228.845 93.97C228.415 96.84 226.105 102.63 220.415 103.28C212.905 102.99 211.025 88.77 210.865 86.14Z" fill="#263238"/>
<path d="M221.505 130.82C221.505 130.82 191.685 109.63 188.945 97.5799C186.205 85.5299 205.625 66.1099 213.835 60.1599C225.165 51.9499 229.905 60.8999 227.495 68.0699C224.705 76.3799 216.575 86.9199 216.025 87.6699C216.025 87.6699 237.215 90.9899 243.265 105.39C249.315 119.79 221.505 130.82 221.505 130.82Z" fill="#AD6359"/>
<path d="M199.475 73.8599C202.891 69.4813 206.696 65.4213 210.845 61.7299C212.912 59.773 215.275 58.1532 217.845 56.9299C222.365 54.8599 227.845 56.4499 228.845 61.7599C230.365 69.7599 221.985 82.5099 216.695 88.2599L216.105 86.7599C226.635 87.9899 236.715 93.8699 242.105 103.06C237.434 96.826 230.876 92.2666 223.405 90.0599C220.403 89.1377 217.3 88.5836 214.165 88.4099L215.375 87.0599C220.005 81.7499 228.145 69.3199 226.945 62.1699C226.295 57.9399 221.945 56.9499 218.405 58.4299C215.948 59.5257 213.659 60.9633 211.605 62.6999C207.317 66.1597 203.262 69.8977 199.465 73.8899L199.475 73.8599Z" fill="#263238"/>
<path d="M219.185 263.9L195.585 217.15C195.585 217.15 163.235 233.58 138.655 250.76C114.075 267.94 127.445 275.83 153.335 274.33C179.225 272.83 219.185 263.9 219.185 263.9Z" fill="#9382FF"/>
<path d="M188.885 223.83C194.806 237.199 201.415 250.253 208.685 262.94C208.795 263.13 209.105 262.94 209.015 262.76C203.111 249.383 196.516 236.322 189.255 223.63C189.145 223.42 188.795 223.58 188.885 223.83Z" fill="#263238"/>
<path opacity="0.1" d="M175.555 271.93C167.845 273.04 160.135 273.93 153.375 274.33C127.455 275.83 114.085 267.96 138.655 250.76C141.055 249.08 143.525 247.41 146.035 245.76L175.555 271.93Z" fill="black"/>
<path d="M36.245 410.43H196.935C199.105 408.81 179.085 291.64 153.625 251.19C148.855 243.62 126.025 232.06 108.165 245.76C54.235 287.11 34.225 407.84 36.245 410.43Z" fill="#9382FF"/>
<path opacity="0.1" d="M150.385 247.65H105.785C106.575 247.01 107.365 246.37 108.165 245.76H147.855C148.733 246.342 149.578 246.973 150.385 247.65ZM159.875 262.8H90.955C90.445 263.42 89.955 264.05 89.445 264.68H160.745L159.875 262.8ZM166.875 279.8H78.975C78.585 280.42 78.205 281.05 77.825 281.69H167.615C167.385 281.08 167.145 280.45 166.915 279.83L166.875 279.8ZM172.665 296.8H69.555C69.235 297.43 68.935 298.05 68.625 298.68H173.335C173.095 298.12 172.905 297.49 172.705 296.87L172.665 296.8ZM177.665 313.8H61.785C61.515 314.43 61.255 315.06 60.995 315.69H178.245C178.075 315.16 177.895 314.58 177.725 313.9L177.665 313.8ZM182.135 330.8H55.135C54.905 331.43 54.685 332.05 54.465 332.68H182.665C182.515 332.19 182.335 331.58 182.195 330.94L182.135 330.8ZM186.135 347.8H49.545C49.345 348.43 49.155 349.06 48.965 349.69H186.665C186.525 349.24 186.385 348.58 186.235 347.97L186.135 347.8ZM189.795 364.8H44.695C44.525 365.43 44.365 366.06 44.205 366.68H190.335C190.155 366.27 190.035 365.64 189.895 365.01L189.795 364.8ZM193.085 381.8H40.595C40.445 382.44 40.315 383.07 40.185 383.69H193.525C193.415 383.31 193.335 382.68 193.185 382.04L193.085 381.8ZM195.905 398.8H37.335C37.235 399.45 37.135 400.08 37.045 400.68H196.265C196.185 400.36 196.095 399.73 196.005 399.08L195.905 398.8Z" fill="black"/>
<path d="M100.455 252.96C62.625 302.24 16.525 392.36 26.675 408.89C39.545 429.84 118.005 420.47 136.095 414.94C143.805 412.58 127.675 345.28 119.375 347.63C112.145 349.68 97.185 352.41 96.865 351.41C96.545 350.41 109.385 317.03 119.555 269.5C126.485 237.11 108.475 242.51 100.455 252.96Z" fill="#AD6359"/>
<path d="M62.775 375.18C67.285 368.45 81.435 355.79 96.575 351.69C96.915 351.6 97.175 351.81 96.875 351.96C84.6357 358.33 73.2182 366.168 62.875 375.3C62.825 375.36 62.725 375.26 62.775 375.18Z" fill="#263238"/>
<path d="M108.515 351.2C108.515 351.2 132.385 336.63 147.295 332.86C167.295 327.86 186.575 331.67 194.565 333.78C211.255 338.17 248.565 360.34 244.065 372.21C239.985 382.95 202.985 358.36 202.985 358.36C202.985 358.36 244.845 377.2 237.555 389.23C230.265 401.26 188.935 370.23 188.935 370.23C188.935 370.23 231.505 390.55 222.025 401.76C214.865 410.24 175.845 384.28 175.845 384.28C175.845 384.28 212.335 402.05 205.335 411.08C197.615 421.08 160.095 399.35 160.095 399.35C138.455 419.35 119.985 419.97 106.785 418.87C103.585 418.58 108.515 351.2 108.515 351.2Z" fill="#AD6359"/>
<path d="M188.925 350.91C193.925 352.91 198.995 354.97 203.795 357.45C208.595 359.93 213.305 362.56 217.855 365.45C229.005 372.58 234.855 378.8 234.475 378.45C224.915 370.31 207.865 361.19 203.065 358.72C198.265 356.25 193.615 353.54 188.825 351.07C188.705 351.03 188.805 350.86 188.925 350.91Z" fill="#263238"/>
<path d="M179.675 368.08C185.945 370.95 192.275 373.58 198.415 376.73C204.555 379.88 210.055 383.38 215.945 386.93C216.395 387.21 216.095 387.36 215.635 387.1C209.635 383.79 203.795 381.19 197.735 377.95C191.675 374.71 185.735 371.23 179.595 368.22C179.505 368.18 179.585 368.04 179.675 368.08Z" fill="#263238"/>
<path d="M169.095 381.39C178.895 385.29 187.975 391 196.735 396.81C197.175 397.1 196.735 397.26 196.305 396.99C187.215 391.69 180.115 387.46 168.955 381.73C168.785 381.64 168.885 381.31 169.095 381.39Z" fill="#263238"/>
<path d="M55.955 313.58L106.055 328.85C106.055 328.85 116.565 294.12 121.125 264.48C125.685 234.84 110.755 239.05 93.925 258.81C77.095 278.57 55.955 313.58 55.955 313.58Z" fill="#9382FF"/>
<path d="M118.605 290.02C118.609 289.995 118.605 289.969 118.593 289.947C118.581 289.925 118.561 289.908 118.538 289.899C118.514 289.889 118.488 289.888 118.464 289.896C118.44 289.903 118.419 289.919 118.405 289.94C117.665 291.58 116.932 293.227 116.205 294.88C116.865 291.59 117.465 288.28 117.985 284.95C117.985 284.84 117.825 284.79 117.795 284.9C115.795 292.12 113.795 299.34 111.965 306.6C110.135 313.86 107.865 321.03 106.055 328.31C104.635 328.12 103.865 327.94 102.805 327.84C102.555 327.84 102.415 328.09 102.655 328.19C104.015 328.77 106.655 329.62 106.765 329.44C109.395 322.44 111.385 314.61 113.315 307.38C114.268 303.813 115.115 300.233 115.855 296.64C116.895 294.487 117.813 292.277 118.605 290.02Z" fill="#263238"/>
<path d="M105.855 319.4C92.1026 314.437 78.1042 310.185 63.915 306.66C63.705 306.61 63.615 306.96 63.815 307.03C77.5611 312.01 91.5566 316.272 105.745 319.8C105.975 319.86 106.075 319.48 105.855 319.4Z" fill="#263238"/>
<path d="M121.835 249.39C122.635 252.1 136.755 269.2 149.285 267.9C153.355 267.47 152.005 245.1 152.005 245.1L152.285 243.43L156.145 220L123.925 202C123.925 202 121.515 248.24 121.835 249.39Z" fill="#AD6359"/>
<path d="M156.145 220.01L152.275 243.42L152.005 245.11C152.005 245.11 152.245 249.16 152.215 253.84C134.955 252.26 126.395 239.84 122.475 231.17C123.095 217.82 123.925 202.01 123.925 202.01L156.145 220.01Z" fill="#263238"/>
<path d="M186.455 175.82C198.595 225.23 170.375 238.08 159.715 240.69C150.045 243.06 116.805 249.89 99.615 202C82.425 154.11 101.565 132.84 123.405 126.25C145.245 119.66 174.335 126.41 186.455 175.82Z" fill="#AD6359"/>
<path d="M168.225 183.11C173.755 182.01 175.555 193.16 170.425 194.18C165.295 195.2 163.585 184.03 168.225 183.11Z" fill="#263238"/>
<path d="M139.815 188.7C134.235 189.59 136.425 200.7 141.595 199.85C146.765 199 144.485 187.96 139.815 188.7Z" fill="#263238"/>
<path d="M170.665 175.47C169.465 175.53 168.345 175.39 167.155 175.34C165.815 175.27 164.735 175.34 163.605 174.52C163.309 174.25 163.112 173.889 163.043 173.495C162.974 173.1 163.038 172.694 163.225 172.34C164.115 170.88 165.785 170.55 167.405 170.56C169.044 170.514 170.642 171.081 171.885 172.15C172.156 172.41 172.345 172.743 172.43 173.109C172.515 173.474 172.491 173.857 172.361 174.209C172.232 174.561 172.002 174.868 171.701 175.092C171.4 175.316 171.04 175.448 170.665 175.47Z" fill="#263238"/>
<path d="M134.015 183.3C135.125 182.927 136.213 182.493 137.275 182C138.525 181.49 139.565 181.21 140.355 180C140.54 179.645 140.603 179.24 140.534 178.846C140.466 178.451 140.269 178.091 139.975 177.82C138.645 176.74 136.975 176.99 135.435 177.54C133.878 178.047 132.566 179.117 131.755 180.54C131.574 180.876 131.498 181.259 131.534 181.639C131.571 182.019 131.72 182.38 131.962 182.676C132.204 182.971 132.528 183.188 132.894 183.299C133.259 183.41 133.649 183.411 134.015 183.3Z" fill="#263238"/>
<path d="M150.175 218.43C151.085 219.15 152.035 220.17 153.295 220.14C154.571 219.97 155.798 219.533 156.895 218.86C157.005 218.86 157.125 218.91 157.065 219.02C156.651 219.753 156.045 220.359 155.312 220.773C154.579 221.187 153.747 221.393 152.905 221.37C151.315 221.27 150.395 220.01 149.905 218.63C149.785 218.43 150.045 218.33 150.175 218.43Z" fill="#263238"/>
<path d="M162.335 203.68C162.335 203.68 163.895 208.68 164.335 211.07C164.335 211.29 163.805 211.5 162.995 211.68C162.995 211.68 162.995 211.68 162.905 211.68C160.903 212.406 158.74 212.567 156.653 212.143C154.565 211.72 152.635 210.729 151.075 209.28C150.865 209.08 151.125 208.78 151.375 208.89C154.935 210.68 158.545 210.69 162.325 210.12C162.385 209.42 159.325 201.58 159.735 201.58C161.385 201.58 164.325 201.82 165.415 201.9C164.415 198.64 161.325 189.51 159.615 183.57C159.515 183.2 160.075 182.98 160.225 183.31C163.337 189.868 166.01 196.627 168.225 203.54C168.405 204.1 163.405 203.92 162.335 203.68Z" fill="#263238"/>
<path d="M97.595 205.03C112.125 204.64 117.985 186.7 113.255 173.18C113.255 173.18 152.125 174.53 150.965 143.54C154.071 147.457 158.095 150.547 162.681 152.536C167.267 154.524 172.273 155.35 177.255 154.94L183.445 165.41C187.275 163.89 189.575 152.76 179.095 144.93C179.095 144.93 176.935 129.63 164.715 121.52C152.495 113.41 141.835 120.52 141.835 120.52C141.835 120.52 132.105 113.88 118.145 117.07C104.185 120.26 99.615 133.72 99.615 133.72C99.615 133.72 80.955 139.2 79.035 153.02C77.115 166.84 84.975 175.22 84.975 175.22C84.975 175.22 80.725 180.99 84.275 192.22C86.555 199.58 93.235 205.15 97.595 205.03Z" fill="#263238"/>
<path d="M149.845 140.89C150.381 143.361 150.656 145.881 150.665 148.41C150.74 150.898 150.512 153.387 149.985 155.82C148.978 160.636 146.188 164.893 142.175 167.74C138.285 170.8 133.175 171.74 128.375 172.67C125.875 172.84 123.375 173.19 120.855 173.21C118.335 173.23 115.805 173.14 113.255 173.21C115.765 173.57 118.305 173.81 120.845 174.12C123.385 174.27 125.955 174.12 128.525 174.12C133.575 173.42 138.885 172.47 143.205 169.28C147.541 166.121 150.461 161.383 151.335 156.09C152.122 150.978 151.61 145.751 149.845 140.89Z" fill="#263238"/>
<path d="M99.615 133.76C94.7416 134.276 90.0267 135.791 85.765 138.21C81.3182 140.611 77.8643 144.507 76.015 149.21C75.2525 151.598 74.8778 154.093 74.905 156.6C74.8377 159.097 75.2031 161.587 75.985 163.96C77.4768 168.709 80.6858 172.731 84.985 175.24C81.2331 172.29 78.547 168.196 77.335 163.58C76.1409 159.048 76.2763 154.267 77.725 149.81C78.4939 147.635 79.6642 145.623 81.175 143.88C82.759 142.156 84.553 140.638 86.515 139.36C90.5595 136.815 94.9807 134.925 99.615 133.76Z" fill="#263238"/>
<path d="M141.835 120.58C145.324 118.905 149.057 117.797 152.895 117.3C156.64 116.796 160.451 117.261 163.965 118.65C167.416 120.182 170.425 122.558 172.715 125.56C175.067 128.634 176.954 132.037 178.315 135.66C177.584 131.752 176.052 128.037 173.815 124.75C171.632 121.284 168.431 118.578 164.65 117.003C160.869 115.428 156.693 115.06 152.695 115.95C148.783 116.69 145.078 118.27 141.835 120.58Z" fill="#263238"/>
<path d="M171.335 156.77C166.996 155.749 162.857 154.016 159.085 151.64C157.253 150.45 155.588 149.021 154.135 147.39C152.668 145.698 151.397 143.847 150.345 141.87C150.789 144.161 151.713 146.331 153.055 148.24C154.387 150.178 156.086 151.835 158.055 153.12C160.017 154.405 162.17 155.37 164.435 155.98C166.674 156.629 169.007 156.896 171.335 156.77Z" fill="#263238"/>
<path d="M110.125 204.25C110.125 204.25 96.705 190.25 90.195 195.25C83.685 200.25 95.475 221.77 104.335 223.58C105.454 223.889 106.623 223.969 107.774 223.814C108.924 223.66 110.031 223.275 111.029 222.682C112.026 222.089 112.894 221.3 113.579 220.363C114.264 219.426 114.752 218.36 115.015 217.23L110.125 204.25Z" fill="#AD6359"/>
<path d="M93.725 201.35C93.7002 201.357 93.6785 201.372 93.6631 201.393C93.6476 201.414 93.6393 201.439 93.6393 201.465C93.6393 201.491 93.6476 201.516 93.6631 201.537C93.6785 201.557 93.7002 201.572 93.725 201.58C99.965 203.04 103.895 208 106.935 213.3C104.855 211.4 102.295 210.58 99.705 213.11C99.575 213.24 99.705 213.46 99.915 213.4C100.89 212.92 101.988 212.752 103.062 212.918C104.135 213.085 105.131 213.578 105.915 214.33C107.222 215.609 108.388 217.023 109.395 218.55C109.755 219.03 110.655 218.55 110.395 218.03C110.395 218.03 110.345 217.95 110.325 217.9C109.335 210.41 101.865 200.85 93.725 201.35Z" fill="#263238"/>
</g>
<defs>
<clipPath id="clip0_202_5137">
<rect width="404.78" height="420.993" fill="white" transform="translate(0.0950317 0.890137)"/>
</clipPath>
</defs>
</svg>
