<svg width="411" height="386" viewBox="0 0 411 386" fill="none" xmlns="http://www.w3.org/2000/svg">
<g clip-path="url(#clip0_202_1495)">
<path d="M114.765 117.02H112.365V115.42H113.165V114.62H114.765V117.02Z" fill="#EBEBEB"/>
<path d="M109.125 117.02H105.885V115.42H109.125V117.02ZM102.645 117.02H99.415V115.42H102.645V117.02ZM96.175 117.02H92.935V115.42H96.175V117.02ZM89.695 117.02H86.455V115.42H89.695V117.02ZM83.215 117.02H79.975V115.42H83.215V117.02ZM76.745 117.02H73.505V115.42H76.745V117.02ZM70.265 117.02H67.065V115.42H70.305L70.265 117.02ZM63.785 117.02H60.545V115.42H63.785V117.02ZM57.305 117.02H54.065V115.42H57.305V117.02ZM50.835 117.02H47.595V115.42H50.835V117.02ZM44.355 117.02H41.115V115.42H44.355V117.02ZM37.875 117.02H34.635V115.42H37.875V117.02ZM31.395 117.02H28.165V115.42H31.395V117.02Z" fill="#EBEBEB"/>
<path d="M24.925 117.02H22.525V114.62H24.125V115.42H24.925V117.02Z" fill="#EBEBEB"/>
<path d="M24.125 111.39H22.525V108.15H24.125V111.39ZM24.125 104.91H22.525V101.67H24.125V104.91ZM24.125 98.43H22.525V95.19H24.125V98.43ZM24.125 91.95H22.525V88.67H24.125V91.95ZM24.125 85.48H22.525V82.24H24.125V85.48ZM24.125 79H22.525V75.76H24.125V79ZM24.125 72.52H22.525V69.28H24.125V72.52ZM24.125 66.04H22.525V62.81H24.125V66.04ZM24.125 59.57H22.525V56.33H24.125V59.57ZM24.125 53.09H22.525V49.85H24.125V53.09ZM24.125 46.61H22.525V43.37H24.125V46.61ZM24.125 40.13H22.525V36.9H24.125V40.13ZM24.125 33.66H22.525V30.42H24.125V33.66Z" fill="#EBEBEB"/>
<path d="M24.125 27.18H22.525V24.78H24.925V26.38H24.125V27.18Z" fill="#EBEBEB"/>
<path d="M109.125 26.38H105.885V24.78H109.125V26.38ZM102.645 26.38H99.415V24.78H102.645V26.38ZM96.175 26.38H92.935V24.78H96.175V26.38ZM89.695 26.38H86.455V24.78H89.695V26.38ZM83.215 26.38H79.975V24.78H83.215V26.38ZM76.745 26.38H73.505V24.78H76.745V26.38ZM70.265 26.38H67.065V24.78H70.305L70.265 26.38ZM63.785 26.38H60.545V24.78H63.785V26.38ZM57.305 26.38H54.065V24.78H57.305V26.38ZM50.835 26.38H47.595V24.78H50.835V26.38ZM44.355 26.38H41.115V24.78H44.355V26.38ZM37.875 26.38H34.635V24.78H37.875V26.38ZM31.395 26.38H28.165V24.78H31.395V26.38Z" fill="#EBEBEB"/>
<path d="M114.765 27.18H113.165V26.38H112.365V24.78H114.765V27.18Z" fill="#EBEBEB"/>
<path d="M114.765 111.39H113.165V108.15H114.765V111.39ZM114.765 104.91H113.165V101.67H114.765V104.91ZM114.765 98.43H113.165V95.19H114.765V98.43ZM114.765 91.95H113.165V88.72H114.765V91.95ZM114.765 85.48H113.165V82.24H114.765V85.48ZM114.765 79H113.165V75.76H114.765V79ZM114.765 72.52H113.165V69.28H114.765V72.52ZM114.765 66.04H113.165V62.81H114.765V66.04ZM114.765 59.57H113.165V56.33H114.765V59.57ZM114.765 53.09H113.165V49.85H114.765V53.09ZM114.765 46.61H113.165V43.37H114.765V46.61ZM114.765 40.13H113.165V36.9H114.765V40.13ZM114.765 33.66H113.165V30.42H114.765V33.66Z" fill="#EBEBEB"/>
<path d="M28.975 110.58H17.675V121.88H28.975V110.58Z" fill="white"/>
<path d="M29.765 122.67H16.875V109.78H29.765V122.67ZM18.475 121.07H28.165V111.38H18.475V121.07Z" fill="#EBEBEB"/>
<path d="M28.975 65.25H17.675V76.55H28.975V65.25Z" fill="white"/>
<path d="M29.765 77.35H16.875V64.45H29.765V77.35ZM18.475 75.75H28.165V66.05H18.475V75.75Z" fill="#EBEBEB"/>
<path d="M28.975 19.93H17.675V31.23H28.975V19.93Z" fill="white"/>
<path d="M29.765 32.03H16.875V19.13H29.765V32.03ZM18.475 30.43H28.165V20.73H18.475V30.43Z" fill="#EBEBEB"/>
<path d="M119.615 110.58H108.315V121.88H119.615V110.58Z" fill="white"/>
<path d="M120.415 122.67H107.515V109.78H120.415V122.67ZM109.115 121.07H118.815V111.38H109.115V121.07Z" fill="#EBEBEB"/>
<path d="M119.615 65.25H108.315V76.55H119.615V65.25Z" fill="white"/>
<path d="M120.415 77.35H107.515V64.45H120.415V77.35ZM109.115 75.75H118.815V66.05H109.115V75.75Z" fill="#EBEBEB"/>
<path d="M119.615 19.93H108.315V31.23H119.615V19.93Z" fill="white"/>
<path d="M120.415 32.03H107.515V19.13H120.415V32.03ZM109.115 30.43H118.815V20.73H109.115V30.43Z" fill="#EBEBEB"/>
<path d="M74.295 19.93H62.995V31.23H74.295V19.93Z" fill="white"/>
<path d="M75.065 32.03H62.165V19.13H75.065V32.03ZM63.765 30.43H73.465V20.73H63.765V30.43Z" fill="#EBEBEB"/>
<path d="M74.295 110.58H62.995V121.88H74.295V110.58Z" fill="white"/>
<path d="M75.065 122.67H62.165V109.78H75.065V122.67ZM63.765 121.07H73.465V111.38H63.765V121.07Z" fill="#EBEBEB"/>
<path d="M94.065 62.67H92.475C87.975 49.07 85.385 43.48 77.795 43.48H76.795V98.39H83.885V100.14H53.455V98.39H60.545V43.45H59.465C51.875 43.45 49.065 49.67 44.775 62.67H43.195L44.065 41.67H93.295L94.065 62.67Z" fill="#EBEBEB"/>
<path d="M45.655 251.7H19.175V262.89H45.655V251.7Z" fill="#EBEBEB"/>
<path d="M184.015 164.33H157.535V175.52H184.015V164.33Z" fill="#EBEBEB"/>
<path d="M30.885 265.81H4.405V277H30.885V265.81Z" fill="#EBEBEB"/>
<path d="M401.725 265.81H375.245V277H401.725V265.81Z" fill="#EBEBEB"/>
<path d="M386.955 0H360.475V11.19H386.955V0Z" fill="#EBEBEB"/>
<path d="M401.725 14.11H375.245V25.3H401.725V14.11Z" fill="#EBEBEB"/>
<path d="M45.655 0H19.175V11.19H45.655V0Z" fill="#EBEBEB"/>
<path d="M401.715 84.73H209.485V92.98H401.715V84.73Z" fill="#EBEBEB"/>
<path d="M237.435 125.48H229.955L226.945 92.99H237.435V125.48Z" fill="#EBEBEB"/>
<path d="M373.775 125.48H381.265L384.265 92.99H373.775V125.48Z" fill="#EBEBEB"/>
<path d="M226.945 92.99H237.435V104.18H227.975L226.945 92.99Z" fill="#DBDBDB"/>
<path d="M384.265 92.99L383.235 104.18H373.775V92.99H384.265Z" fill="#DBDBDB"/>
<path d="M279.065 35.22C270.535 46.77 261.635 60.22 259.475 74.66C259.475 74.88 259.795 74.95 259.845 74.74C260.823 70.7884 262.083 66.9119 263.615 63.14C269.225 61.59 274.735 60.33 277.675 54.76C280.675 49.04 280.295 41.58 279.725 35.34C279.725 35.01 279.275 34.99 279.065 35.22Z" fill="#EBEBEB"/>
<path d="M263.745 63.03C267.575 54.43 272.495 45.79 278.745 38.72C278.745 38.72 278.855 38.72 278.815 38.79C274.913 43.8297 271.485 49.2193 268.575 54.89C271.395 52.03 274.495 49.46 277.165 46.42C277.17 46.4141 277.177 46.4093 277.184 46.4058C277.191 46.4024 277.199 46.4004 277.206 46.3999C277.214 46.3994 277.222 46.4005 277.23 46.4031C277.237 46.4057 277.244 46.4097 277.25 46.415C277.256 46.4203 277.261 46.4266 277.264 46.4337C277.268 46.4408 277.27 46.4486 277.27 46.4565C277.271 46.4644 277.269 46.4723 277.267 46.4797C277.264 46.4872 277.26 46.4941 277.255 46.5C274.595 49.69 271.695 53.15 268.255 55.5C267.325 57.22 266.395 58.93 265.445 60.65C265.675 60.52 265.915 60.41 266.155 60.29C266.155 60.29 266.235 60.29 266.155 60.35C265.885 60.48 265.625 60.62 265.355 60.74C264.905 61.55 264.455 62.37 263.995 63.18C263.915 63.37 263.665 63.21 263.745 63.03Z" fill="#A6A6A6"/>
<path d="M266.595 60.03C268.889 58.7463 271.079 57.2852 273.145 55.66C273.195 55.66 273.275 55.66 273.225 55.74C271.222 57.4684 269.028 58.9615 266.685 60.19C266.585 60.24 266.485 60.09 266.595 60.03Z" fill="#A6A6A6"/>
<path d="M258.575 74.53C258.575 74.71 258.895 74.7 258.885 74.53C258.935 69.75 258.885 64.96 258.965 60.17C260.185 57.7 262.815 56.34 264.635 54.36C265.949 52.9181 267.091 51.3273 268.035 49.62C270.236 45.5488 271.58 41.0703 271.985 36.46C272.485 31.36 270.555 14.52 268.405 15.1C267.285 15.41 263.675 23.75 262.715 26.5C261.161 31.0538 260.027 35.7399 259.325 40.5C257.575 51.67 257.725 63.23 258.575 74.53Z" fill="#EBEBEB"/>
<path d="M258.545 53.95C258.805 47.95 260.165 41.82 261.435 35.95C262.815 29.64 264.435 23.71 267.655 18.08C267.67 18.0643 267.69 18.0539 267.711 18.0505C267.733 18.047 267.755 18.0506 267.774 18.0608C267.793 18.071 267.809 18.0871 267.818 18.1068C267.827 18.1266 267.83 18.1487 267.825 18.17C265.661 22.5464 263.984 27.1473 262.825 31.89C263.045 31.55 263.305 31.23 263.535 30.89C263.625 30.76 263.825 30.89 263.745 31.01C263.461 31.5193 263.126 31.9984 262.745 32.44C261.625 36.95 260.825 41.56 260.135 46.16L260.295 45.98C260.295 45.98 260.385 45.98 260.365 46.04C260.345 46.1 260.185 46.34 260.085 46.49C259.745 48.83 259.425 51.16 259.085 53.49C263.347 50.0674 266.685 45.6327 268.795 40.59C268.795 40.59 268.845 40.59 268.795 40.59C266.795 45.94 263.745 50.7 258.985 53.95C258.895 54.57 258.805 55.19 258.725 55.81C258.725 55.94 258.495 55.91 258.495 55.81C258.495 55.26 258.495 54.71 258.545 54.16C258.528 54.1479 258.515 54.1321 258.506 54.1139C258.496 54.0956 258.492 54.0755 258.492 54.055C258.492 54.0345 258.496 54.0143 258.506 53.9961C258.515 53.9779 258.528 53.9621 258.545 53.95Z" fill="#A6A6A6"/>
<path d="M260.505 45.2C263.748 40.5926 266.582 35.7107 268.975 30.61C268.975 30.61 269.095 30.61 269.075 30.61C267.175 35.9622 264.326 40.9282 260.665 45.27C260.585 45.41 260.435 45.3 260.505 45.2Z" fill="#A6A6A6"/>
<path d="M264.725 29.44C266.035 27.11 267.425 24.85 268.665 22.44C268.665 22.38 268.795 22.44 268.765 22.5C267.748 24.9685 266.461 27.3163 264.925 29.5C264.91 29.5147 264.891 29.525 264.87 29.53C264.849 29.535 264.828 29.5344 264.807 29.5283C264.787 29.5222 264.769 29.5108 264.754 29.4953C264.74 29.4798 264.73 29.4607 264.725 29.44Z" fill="#A6A6A6"/>
<path d="M256.245 62.3C256.179 65.4624 255.804 68.6107 255.125 71.7L255.275 72.7C256.252 69.2898 256.816 65.7746 256.955 62.23C256.985 62.1802 257.001 62.1231 257.001 62.065C257.001 62.0069 256.985 61.9498 256.955 61.9C257.092 57.1461 256.736 52.3908 255.895 47.71C254.425 38.94 251.195 30.52 245.075 23.95C245.025 23.9066 244.966 23.8753 244.901 23.8587C244.837 23.842 244.77 23.8404 244.705 23.8539C244.64 23.8675 244.58 23.8958 244.527 23.9368C244.475 23.9777 244.433 24.0302 244.405 24.09C241.935 30.36 242.795 37.85 244.895 44.09C246.043 47.5033 247.684 50.7307 249.765 53.67C251.865 56.59 254.535 59.08 256.245 62.3Z" fill="#EBEBEB"/>
<path d="M245.825 26.91C251.615 36.31 255.645 47.46 256.145 58.57C256.145 58.77 255.815 58.82 255.795 58.57C255.655 57.57 255.505 56.57 255.345 55.57C252.826 53.3417 250.614 50.7895 248.765 47.98C248.765 47.98 248.765 47.87 248.845 47.91C250.834 50.3684 252.968 52.7059 255.235 54.91C254.822 52.4633 254.325 50.0467 253.745 47.66L253.285 47.12C253.185 47 253.355 46.83 253.465 46.95L253.595 47.1C252.79 43.8357 251.788 40.6231 250.595 37.48C249.125 35.72 247.475 34.2 246.405 32.08H246.475C247.345 33.29 248.175 34.51 249.155 35.63C249.545 36.08 249.975 36.5 250.385 36.94C249.047 33.5312 247.459 30.2256 245.635 27.05C245.63 27.0257 245.632 27.0005 245.641 26.9773C245.65 26.9541 245.665 26.934 245.685 26.9193C245.705 26.9045 245.729 26.8958 245.754 26.8942C245.779 26.8926 245.803 26.898 245.825 26.91Z" fill="#A6A6A6"/>
<path d="M246.995 38.51C248.865 41.03 250.995 43.44 252.745 46.04C252.795 46.12 252.685 46.19 252.625 46.13C250.396 43.8648 248.461 41.3282 246.865 38.58C246.815 38.5 246.935 38.44 246.995 38.51Z" fill="#A6A6A6"/>
<path d="M253.005 46.67L253.085 46.75C253.135 46.81 253.085 46.9 252.995 46.84L252.915 46.76C252.865 46.67 252.945 46.57 253.005 46.67Z" fill="#A6A6A6"/>
<path d="M235.845 42.61C236.529 47.8645 238.646 52.8292 241.965 56.96C243.34 58.5879 245.044 59.9068 246.965 60.83C249.105 61.89 251.355 63.12 253.575 63.99C254.633 66.6782 255.42 69.4654 255.925 72.31L256.135 71.57C254.715 59.32 246.785 48.85 236.645 42.13C236.567 42.0617 236.469 42.0198 236.366 42.0106C236.263 42.0013 236.159 42.0251 236.07 42.0785C235.981 42.1318 235.911 42.212 235.871 42.3076C235.83 42.4031 235.821 42.509 235.845 42.61Z" fill="#EBEBEB"/>
<path d="M239.355 46.23C239.275 46.17 239.355 46.04 239.455 46.1C245.024 50.2438 249.466 55.7172 252.375 62.02C252.445 62.19 252.215 62.34 252.125 62.17C251.655 61.34 251.175 60.54 250.685 59.75C248.375 59.32 246.175 57.69 244.465 56.14C244.415 56.14 244.465 56.03 244.525 56.07C245.411 56.8776 246.395 57.5697 247.455 58.13C248.405 58.61 249.455 58.91 250.395 59.29C249.545 57.93 248.645 56.63 247.715 55.36C245.202 54.409 242.843 53.0914 240.715 51.45C240.655 51.45 240.715 51.29 240.785 51.34C242.877 52.6013 245.033 53.7528 247.245 54.79C245.835 52.9251 244.312 51.1485 242.685 49.47C241.895 49.06 241.095 48.64 240.335 48.19C240.275 48.19 240.335 48.05 240.385 48.08C241.018 48.2998 241.623 48.5952 242.185 48.96C241.305 48.04 240.355 47.12 239.355 46.23Z" fill="#A6A6A6"/>
<path d="M239.565 50.46C239.703 50.5418 239.833 50.6355 239.955 50.74C239.955 50.74 239.955 50.82 239.905 50.8C239.763 50.739 239.629 50.6618 239.505 50.57C239.435 50.53 239.495 50.42 239.565 50.46Z" fill="#A6A6A6"/>
<path d="M268.565 84.73H247.685L248.705 71.05L249.105 66.58H266.955L267.345 71.05L268.565 84.73Z" fill="#DBDBDB"/>
<path d="M267.345 71.05H248.705L249.105 66.58H266.955L267.345 71.05Z" fill="#C7C7C7"/>
<path d="M268.385 62.92H247.685V67.5H268.385V62.92Z" fill="#DBDBDB"/>
<path d="M319.315 84.7V35H306.795V84.7H319.315Z" fill="#C7C7C7"/>
<path d="M319.305 37.8V32.34H306.785V37.8H319.305Z" fill="#DBDBDB"/>
<path d="M319.305 46.84V44.81H306.785V46.84H319.305Z" fill="#DBDBDB"/>
<path d="M319.305 78.18V72.72H306.785V78.18H319.305Z" fill="#DBDBDB"/>
<path d="M328.055 84.7V26.73H319.305V84.7H328.055Z" fill="#DBDBDB"/>
<path d="M326.265 54.48V32.18H321.015V54.48H326.265Z" fill="#EBEBEB"/>
<path d="M390.336 78.4249L349.109 37.6707L342.958 43.8934L384.184 84.6476L390.336 78.4249Z" fill="#C7C7C7"/>
<path d="M379.442 70.0928L363.583 54.4154L359.892 58.149L375.751 73.8264L379.442 70.0928Z" fill="#DBDBDB"/>
<path d="M342.895 84.72V40.68H328.045V84.72H342.895Z" fill="#A6A6A6"/>
<path d="M342.905 80.04V75.94H328.055V80.04H342.905Z" fill="#C7C7C7"/>
<path d="M342.905 73.24V71.65H328.055V73.24H342.905Z" fill="#C7C7C7"/>
<path d="M290.573 84.7442L306.894 46.7189L297.466 42.6722L281.145 80.6974L290.573 84.7442Z" fill="#A6A6A6"/>
<path d="M292.291 80.7105L293.813 77.1634L284.385 73.1167L282.862 76.6637L292.291 80.7105Z" fill="#C7C7C7"/>
<path d="M301.997 58.0952L303.519 54.5481L294.091 50.5013L292.569 54.0484L301.997 58.0952Z" fill="#C7C7C7"/>
<path d="M300.353 61.9015L300.945 60.5231L291.516 56.4763L290.925 57.8547L300.353 61.9015Z" fill="#C7C7C7"/>
<path d="M328.985 198.86L271.125 213.99L251.695 139.71L294.665 128.47L309.565 124.58L313.265 138.73L328.985 198.86Z" fill="#EBEBEB"/>
<path d="M261.104 152.568L308.24 140.246L307.742 138.34L260.606 150.662L261.104 152.568Z" fill="#DBDBDB"/>
<path d="M262.378 157.391L309.514 145.069L309.016 143.163L261.88 155.485L262.378 157.391Z" fill="#DBDBDB"/>
<path d="M263.63 162.196L310.766 149.874L310.268 147.968L263.132 160.29L263.63 162.196Z" fill="#DBDBDB"/>
<path d="M264.895 167.011L312.031 154.689L311.533 152.783L264.397 165.105L264.895 167.011Z" fill="#DBDBDB"/>
<path d="M266.147 171.827L313.283 159.505L312.785 157.599L265.648 169.921L266.147 171.827Z" fill="#DBDBDB"/>
<path d="M267.411 176.642L314.547 164.32L314.049 162.414L266.913 174.736L267.411 176.642Z" fill="#DBDBDB"/>
<path d="M268.666 181.457L315.802 169.135L315.303 167.229L268.167 179.551L268.666 181.457Z" fill="#DBDBDB"/>
<path d="M269.928 186.272L317.064 173.95L316.565 172.044L269.429 184.366L269.928 186.272Z" fill="#DBDBDB"/>
<path d="M271.182 191.087L318.318 178.765L317.82 176.859L270.684 189.181L271.182 191.087Z" fill="#DBDBDB"/>
<path d="M272.444 195.892L319.58 183.57L319.082 181.665L271.946 193.986L272.444 195.892Z" fill="#DBDBDB"/>
<path d="M273.502 199.017L320.76 186.837L320.268 184.926L273.009 197.106L273.502 199.017Z" fill="#DBDBDB"/>
<path d="M274.97 205.52L322.106 193.198L321.608 191.292L274.472 203.614L274.97 205.52Z" fill="#DBDBDB"/>
<path d="M344.355 220.29L284.635 223.63L280.345 146.97L324.685 144.49L340.885 158.24L344.355 220.29Z" fill="#EBEBEB"/>
<path d="M324.685 144.49L340.885 158.24L325.505 159.1L324.685 144.49Z" fill="#DBDBDB"/>
<path d="M287.015 161.459L320.213 159.603L320.103 157.636L286.905 159.492L287.015 161.459Z" fill="#DBDBDB"/>
<path d="M287.289 166.433L320.487 164.577L320.377 162.61L287.179 164.466L287.289 166.433Z" fill="#DBDBDB"/>
<path d="M287.582 171.395L320.78 169.539L320.67 167.572L287.472 169.429L287.582 171.395Z" fill="#DBDBDB"/>
<path d="M287.853 176.361L336.497 173.642L336.387 171.675L287.743 174.394L287.853 176.361Z" fill="#DBDBDB"/>
<path d="M288.126 181.325L336.77 178.605L336.66 176.638L288.016 179.358L288.126 181.325Z" fill="#DBDBDB"/>
<path d="M288.399 186.298L337.043 183.578L336.933 181.611L288.289 184.331L288.399 186.298Z" fill="#DBDBDB"/>
<path d="M288.692 191.271L337.336 188.551L337.226 186.584L288.582 189.304L288.692 191.271Z" fill="#DBDBDB"/>
<path d="M288.965 196.234L337.609 193.514L337.499 191.548L288.855 194.267L288.965 196.234Z" fill="#DBDBDB"/>
<path d="M289.238 201.208L337.882 198.488L337.772 196.521L289.128 199.241L289.238 201.208Z" fill="#DBDBDB"/>
<path d="M289.521 206.171L338.165 203.451L338.055 201.484L289.411 204.204L289.521 206.171Z" fill="#DBDBDB"/>
<path d="M289.794 211.134L338.438 208.415L338.328 206.448L289.684 209.167L289.794 211.134Z" fill="#DBDBDB"/>
<path d="M290.077 216.107L338.721 213.387L338.611 211.421L289.967 214.14L290.077 216.107Z" fill="#DBDBDB"/>
<path d="M0.595001 360.43L51.215 360.19L101.835 360.1L203.065 359.94L304.295 360.1L354.915 360.19L405.535 360.43L354.915 360.68L304.295 360.77L203.065 360.93L101.835 360.77L51.215 360.68L0.595001 360.43Z" fill="#263238"/>
<path d="M113.715 133.67C107.555 119.85 94.185 110.78 81.335 114.22C53.765 121.59 57.515 163.27 37.715 190.22C13.795 222.78 13.505 250.15 34.325 254.12C57.645 258.56 79.435 233.55 76.955 181.17C75.405 148.41 82.315 136.81 91.185 134.29C97.705 132.44 104.985 140.29 104.985 140.29L113.715 133.67Z" fill="#263238"/>
<path d="M76.565 163.04C76.435 168.25 76.895 173.45 77.165 178.64C77.435 183.83 77.825 189 77.985 194.17C78.1753 199.33 78.1053 204.497 77.775 209.65C77.4942 214.775 76.6934 219.857 75.385 224.82C74.16 229.77 71.994 234.438 69.005 238.57C65.8239 242.635 61.9637 246.12 57.595 248.87C53.1882 251.672 48.1964 253.424 43.005 253.99C40.3898 254.278 37.7483 254.231 35.145 253.85C33.8393 253.666 32.549 253.385 31.285 253.01C30.0032 252.686 28.7741 252.181 27.635 251.51C29.8689 252.995 32.3787 254.015 35.015 254.51C37.6654 255.078 40.3771 255.306 43.085 255.19C45.7985 255.042 48.4845 254.569 51.085 253.78C53.6907 252.967 56.1965 251.864 58.555 250.49C60.9056 249.133 63.1222 247.556 65.175 245.78L66.675 244.42L68.125 243.01C69.096 242.052 70.0014 241.03 70.835 239.95C74.0502 235.613 76.3904 230.691 77.725 225.46C80.445 215.13 80.515 204.46 79.855 194.11C79.525 188.9 78.955 183.72 78.325 178.55C77.695 173.38 76.985 168.22 76.565 163.04Z" fill="#263238"/>
<path d="M107.675 125.67C105.494 122.788 102.957 120.194 100.125 117.95C97.3262 115.783 94.0713 114.28 90.6065 113.556C87.1416 112.832 83.5575 112.905 80.125 113.77C78.41 114.213 76.737 114.806 75.125 115.54C73.5297 116.239 72.0088 117.097 70.585 118.1C67.8287 120.22 65.4604 122.802 63.585 125.73C61.71 128.73 60.1517 131.918 58.935 135.24C56.365 141.9 54.585 148.94 52.505 155.91C50.5245 162.967 48.0037 169.86 44.965 176.53C41.667 183.065 37.8656 189.334 33.595 195.28C29.475 201.28 25.195 207.11 21.925 213.51C20.2059 216.665 18.8922 220.025 18.015 223.51L17.435 226.14C17.315 227.03 17.255 227.93 17.165 228.82L17.065 230.12V231.48L17.125 234.19C15.935 226.99 17.555 219.46 20.675 212.85C23.795 206.24 27.885 200.13 31.775 194.02C35.665 187.91 39.545 181.83 42.535 175.33C45.4436 168.757 47.8635 161.979 49.775 155.05C51.895 148.14 53.685 141.05 56.435 134.22C57.7762 130.75 59.4754 127.428 61.505 124.31C63.6099 121.175 66.2825 118.462 69.385 116.31C70.9589 115.276 72.6343 114.404 74.385 113.71C76.1097 112.985 77.8972 112.419 79.725 112.02C83.3793 111.187 87.1794 111.237 90.8105 112.166C94.4416 113.095 97.7991 114.875 100.605 117.36C103.345 119.78 105.726 122.578 107.675 125.67Z" fill="#263238"/>
<path d="M119.065 136.24C119.065 133.61 117.065 130.24 115.395 129.85C113.725 129.46 101.205 135.13 100.205 138.39C99.205 141.65 104.865 144.39 104.865 144.39L119.065 136.24Z" fill="#9382FF"/>
<path d="M106.685 240.05C113.925 283.4 124.755 318 136.215 326.94C145.465 334.16 158.815 339.78 172.665 344.08C187.487 348.487 202.583 351.915 217.855 354.34C222.555 355.12 226.475 355.68 229.255 356.11C236.135 357.11 251.185 312.36 246.735 306.39C245.735 305.02 241.235 303.67 234.905 302.33C213.595 297.88 168.985 294.39 166.655 291.77C164.325 289.15 142.795 257.55 125.485 233.23C113.365 216.21 102.675 216.01 106.685 240.05Z" fill="#D3766A"/>
<path d="M215.755 350.37C216.585 350.84 228.365 357.14 235.705 359.62C241.185 361.48 257.105 366.4 259.705 360.57C261.515 356.57 252.495 352.57 246.175 349.63C242.855 348.07 238.835 344.33 239.925 342.2C241.845 338.47 250.405 342.68 255.995 346.27C266.805 353.21 281.075 365.48 288.105 360.15C290.755 358.15 287.955 354.15 283.765 350.15C290.635 354.89 298.005 358.86 301.045 356.74C302.785 355.53 302.945 353.74 302.095 351.74C304.245 352.55 306.175 352.5 307.585 351.13C309.985 348.83 309.025 345.24 306.675 341.49C307.109 341.461 307.53 341.33 307.903 341.108C308.277 340.885 308.593 340.578 308.825 340.21C314.015 333.02 290.625 310.65 282.295 308.28C257.795 301.28 231.355 302.28 231.355 302.28C221.325 309.58 215.735 350.35 215.755 350.37Z" fill="#D3766A"/>
<path d="M253.185 328.9C259.056 330.04 264.602 332.464 269.425 336C275.025 340.22 279.375 345.85 284.515 350.57C284.655 350.7 284.445 350.91 284.305 350.78C281.905 348.35 279.235 346.15 276.725 343.78C274.215 341.41 271.895 339.13 269.295 337.02C264.599 333.147 259.083 330.394 253.165 328.97C253.065 328.99 253.125 328.89 253.185 328.9Z" fill="#263238"/>
<path d="M258.275 318.6C264.695 320.67 271.275 322.77 277.195 326.11C283.655 329.77 288.585 335.5 293.435 341.01C296.342 344.343 299.178 347.717 301.945 351.13C302.065 351.27 301.865 351.48 301.745 351.34C296.825 345.647 291.738 340.107 286.485 334.72C281.651 329.701 275.874 325.684 269.485 322.9C265.825 321.31 262.055 320.01 258.285 318.72C258.277 318.721 258.269 318.72 258.262 318.717C258.254 318.715 258.247 318.711 258.241 318.706C258.235 318.701 258.23 318.695 258.226 318.688C258.223 318.681 258.221 318.673 258.22 318.665C258.219 318.657 258.22 318.649 258.223 318.642C258.225 318.634 258.229 318.627 258.234 318.621C258.239 318.615 258.245 318.61 258.252 318.606C258.259 318.603 258.267 318.601 258.275 318.6Z" fill="#263238"/>
<path d="M265.635 309.72C271.895 311.3 277.365 312.66 282.815 316.29C290.025 321.11 296.815 328.98 299.235 331.78C301.875 334.86 304.415 338.03 306.905 341.23C307.005 341.36 306.775 341.54 306.675 341.41C300.966 334.368 294.806 327.704 288.235 321.46C285.151 318.432 281.616 315.902 277.755 313.96C273.835 312.219 269.774 310.817 265.615 309.77C265.615 309.77 265.605 309.72 265.635 309.72Z" fill="#263238"/>
<path d="M113.575 285.44L151.275 263.21C151.275 263.21 135.185 237.21 121.435 224.94C107.685 212.67 102.135 222.3 104.225 240.13C106.315 257.96 113.575 285.44 113.575 285.44Z" fill="#9382FF"/>
<path d="M125.945 274.13C125.709 275.63 125.257 277.089 124.605 278.46C124.495 278.68 124.395 278.91 124.285 279.13L122.735 280.04C122.965 279.34 123.245 278.65 123.545 277.97C124.157 276.581 124.965 275.288 125.945 274.13ZM110.595 254.26C109.225 253.603 107.766 253.152 106.265 252.92C108.614 254.862 111.431 256.155 114.435 256.67C113.275 255.69 111.982 254.879 110.595 254.26ZM123.525 232.26C124.032 233.688 124.743 235.035 125.635 236.26C125.349 233.224 124.27 230.317 122.505 227.83C122.634 229.354 122.978 230.852 123.525 232.28V232.26ZM140.855 250.16C139.601 250.329 138.37 250.638 137.185 251.08C135.758 251.594 134.411 252.307 133.185 253.2C134.702 253.079 136.193 252.742 137.615 252.2C138.795 251.771 139.925 251.214 140.985 250.54C140.954 250.416 140.91 250.295 140.855 250.18V250.16Z" fill="white"/>
<path d="M145.335 257.56C139.335 260.65 123.165 269.56 113.475 276.73C113.415 276.73 113.565 277.02 113.625 276.99C122.625 272.28 139.815 261.56 145.555 257.94C145.665 257.87 145.455 257.5 145.335 257.56Z" fill="#263238"/>
<path d="M148.175 265.05L113.585 285.44C113.585 285.44 106.315 257.97 104.225 240.13C102.885 228.62 104.715 220.53 109.885 219.54L148.175 265.05Z" fill="#263238"/>
<path d="M149.995 360.4H25.355C25.355 360.4 52.425 255.85 77.485 226.4C78.045 225.72 78.625 225.09 79.205 224.49C79.325 224.35 79.425 224.25 79.545 224.13C81.484 222.057 83.7426 220.308 86.235 218.95C86.675 218.71 87.115 218.49 87.575 218.29C97.225 213.85 107.415 217.53 114.775 223.83C117.105 225.83 143.525 260.2 145.865 273.3C147.865 284.87 140.065 297.3 140.065 297.3L149.995 360.4Z" fill="#9382FF"/>
<path d="M94.925 232.87C94.6852 234.374 94.2305 235.835 93.575 237.21C92.9636 238.601 92.1516 239.895 91.165 241.05C91.4033 239.549 91.8581 238.09 92.515 236.72C93.13 235.328 93.9416 234.031 94.925 232.87ZM76.165 291.39C75.5171 292.763 75.066 294.221 74.825 295.72C76.7667 293.371 78.0595 290.554 78.575 287.55C77.5952 288.71 76.7839 290.003 76.165 291.39ZM60.765 352.46C60.1068 353.833 59.6553 355.295 59.425 356.8C61.3542 354.439 62.6454 351.623 63.175 348.62C62.1952 349.78 61.3839 351.073 60.765 352.46ZM123.545 277.97C122.889 279.345 122.435 280.806 122.195 282.31C123.184 281.153 123.996 279.855 124.605 278.46C125.257 277.089 125.709 275.63 125.945 274.13C124.965 275.288 124.157 276.581 123.545 277.97ZM143.295 317.87C142.657 319.228 142.212 320.669 141.975 322.15C142.596 321.434 143.142 320.657 143.605 319.83L143.295 317.87ZM95.825 346.24C95.1771 347.617 94.726 349.078 94.485 350.58C95.474 349.423 96.2861 348.125 96.895 346.73C97.5429 345.357 97.994 343.899 98.235 342.4C97.2552 343.56 96.4439 344.853 95.825 346.24ZM110.595 254.24C109.225 253.583 107.766 253.132 106.265 252.9C108.614 254.842 111.431 256.135 114.435 256.65C113.273 255.677 111.981 254.873 110.595 254.26V254.24ZM118.835 303.87C117.462 303.222 116.004 302.771 114.505 302.53C115.663 303.513 116.956 304.325 118.345 304.94C119.718 305.588 121.176 306.039 122.675 306.28C121.513 305.307 120.221 304.503 118.835 303.89V303.87ZM121.835 358.14C120.458 357.492 118.997 357.041 117.495 356.8C119.85 358.739 122.669 360.032 125.675 360.55C124.513 359.577 123.221 358.773 121.835 358.16V358.14ZM61.545 312.46C60.1683 311.812 58.7073 311.361 57.205 311.12C58.3649 312.105 59.6618 312.917 61.055 313.53C62.4282 314.178 63.8859 314.629 65.385 314.87C64.2234 313.897 62.9307 313.093 61.545 312.48V312.46ZM142.595 288C142.674 289.018 142.865 290.024 143.165 291C143.335 290.58 143.515 290.14 143.685 289.69C143.366 289.106 143.001 288.547 142.595 288.02V288ZM140.175 345.9C140.686 347.326 141.397 348.673 142.285 349.9C142.166 348.386 141.829 346.898 141.285 345.48C140.77 344.053 140.057 342.707 139.165 341.48C139.293 343 139.633 344.494 140.175 345.92V345.9ZM75.585 261.99C76.092 263.418 76.8027 264.765 77.695 265.99C77.5731 264.477 77.2364 262.988 76.695 261.57C76.1762 260.145 75.4628 258.799 74.575 257.57C74.6959 259.091 75.0361 260.586 75.585 262.01V261.99ZM95.375 313.29C95.8863 314.716 96.5966 316.063 97.485 317.29C97.3702 315.776 97.0332 314.286 96.485 312.87C95.978 311.442 95.2673 310.095 94.375 308.87C94.4951 310.39 94.8318 311.885 95.375 313.31V313.29ZM41.625 334.22C42.1354 335.646 42.8458 336.993 43.735 338.22C43.614 336.703 43.2773 335.212 42.735 333.79C42.2162 332.365 41.5028 331.019 40.615 329.79C40.7369 331.308 41.0771 332.8 41.625 334.22ZM118.385 331.92C119.812 331.407 121.159 330.693 122.385 329.8C120.871 329.915 119.381 330.252 117.965 330.8C116.537 331.307 115.19 332.018 113.965 332.91C115.478 332.791 116.966 332.458 118.385 331.92ZM46.135 292.39C45.975 292.86 45.805 293.32 45.645 293.79L46.295 293.57C47.7251 293.063 49.0729 292.349 50.295 291.45C48.8713 291.568 47.4711 291.884 46.135 292.39ZM135.295 251.92C134.546 252.285 133.832 252.72 133.165 253.22C134.066 253.164 134.958 253.01 135.825 252.76C135.645 252.48 135.465 252.2 135.295 251.92ZM76.225 331.92C77.6497 331.401 78.9958 330.688 80.225 329.8C78.7106 329.915 77.2214 330.252 75.805 330.8C74.3785 331.31 73.0317 332.021 71.805 332.91C73.3178 332.791 74.8061 332.458 76.225 331.92ZM28.685 354.46C28.015 354.72 27.355 354.99 26.685 355.31C26.5917 355.67 26.5017 356.003 26.415 356.31C27.3149 356.114 28.2004 355.857 29.065 355.54C30.4915 355.03 31.8383 354.319 33.065 353.43C31.5634 353.563 30.0885 353.91 28.685 354.46ZM96.685 276.25C98.1097 275.731 99.4558 275.018 100.685 274.13C99.1706 274.245 97.6814 274.582 96.265 275.13C94.8385 275.64 93.4917 276.351 92.265 277.24C93.7738 277.116 95.258 276.783 96.675 276.25H96.685Z" fill="white"/>
<path d="M121.365 292.84C116.055 293.358 110.79 294.271 105.615 295.57C103.055 296.25 100.545 297.04 98.035 297.89C96.785 298.32 95.525 298.7 94.255 299.07C92.9438 299.505 91.5831 299.774 90.205 299.87C90.185 299.877 90.1676 299.889 90.1552 299.906C90.1429 299.923 90.1362 299.944 90.1362 299.965C90.1362 299.986 90.1429 300.007 90.1552 300.024C90.1676 300.041 90.185 300.053 90.205 300.06C91.5091 300.117 92.8155 300.083 94.115 299.96C95.3729 299.793 96.6188 299.546 97.845 299.22C100.445 298.56 103.015 297.77 105.615 297.08C110.865 295.68 116.105 294.29 121.435 293.27C121.675 293.23 121.615 292.81 121.365 292.84Z" fill="#263238"/>
<path d="M134.525 297.42C130.148 297.005 125.751 296.835 121.355 296.91C119.145 296.91 116.965 297.13 114.775 297.36C113.775 297.47 112.685 297.6 111.645 297.74C110.605 297.88 109.375 298.2 108.225 298.34C108.105 298.34 108.115 298.55 108.225 298.53C109.305 298.43 110.415 298.53 111.505 298.48L114.795 298.36C116.985 298.29 119.175 298.24 121.375 298.15C125.765 297.96 130.135 297.82 134.525 297.79C134.775 297.78 134.755 297.45 134.525 297.42Z" fill="#263238"/>
<path d="M74.365 228.19C54.595 249.36 10.365 325.43 25.575 340.08C40.785 354.73 136.375 355.01 153.405 355.01C161.155 355.01 145.275 304.01 136.965 303.01C130.045 302.16 79.735 300.53 78.715 298.49C77.555 296.19 84.125 277.63 89.935 246.28C96.165 212.67 83.065 218.84 74.365 228.19Z" fill="#D3766A"/>
<path d="M164.545 292.51C181.725 290.11 186.545 292.14 199.935 282.42C208.745 276.04 216.595 278.93 211.575 289.06C203.345 305.64 181.825 313.38 173.575 313.92L164.545 292.51Z" fill="#D3766A"/>
<path d="M118.905 309.05C118.905 309.05 138.215 298.33 156.265 293.96C168.755 290.96 197.955 286.21 223.345 314.96C231.345 324.02 231.775 336.83 219.505 329.18C209.975 323.24 204.845 317.31 198.445 315.52C198.445 315.52 201.955 333.73 195.165 339.82C189.231 345.142 182.925 350.034 176.295 354.46C175.203 353.432 174.181 352.333 173.235 351.17C173.235 351.17 166.355 356.26 153.405 355.03L118.905 309.05Z" fill="#D3766A"/>
<path d="M168.645 292.99C174.645 296.1 187.155 302.91 195.485 312.05C204.725 322.2 219.795 344.25 212.235 351C206.685 355.94 200.235 348 200.235 348C200.235 348 204.545 358.43 198.555 361.8C193.095 364.87 188.445 358.45 188.445 358.45C188.445 358.45 189.965 365.23 184.145 367.18C177.145 369.52 175.085 354.94 165.935 351.18C163.845 350.36 168.645 292.99 168.645 292.99Z" fill="#D3766A"/>
<path d="M182.845 320.17C187.985 324.02 197.405 335.75 200.005 347.9C200.065 348.18 199.895 348.37 199.785 348.13C195.268 338.186 189.559 328.827 182.785 320.26C182.705 320.2 182.795 320.12 182.845 320.17Z" fill="#263238"/>
<path d="M173.155 329.67C177.235 333.45 186.405 345.97 188.625 358.38C188.675 358.65 188.485 358.83 188.385 358.59C184.389 348.423 179.249 338.744 173.065 329.74C173.005 329.67 173.065 329.61 173.155 329.67Z" fill="#263238"/>
<path d="M157.205 355.2C159.24 355.175 161.271 355.015 163.285 354.72C165.301 354.482 167.27 353.943 169.125 353.12H169.175C171.157 354.934 172.949 356.944 174.525 359.12C175.318 360.212 176.04 361.354 176.685 362.54C177.29 363.718 178.088 364.786 179.045 365.7C179.992 366.599 181.222 367.141 182.525 367.23C183.825 367.246 185.081 366.754 186.025 365.86C186.938 364.937 187.558 363.765 187.805 362.49C188.088 361.207 188.182 359.89 188.085 358.58L188.025 357.72L188.565 358.39C189.865 360.136 191.675 361.436 193.745 362.11C194.777 362.385 195.863 362.385 196.895 362.11C197.924 361.85 198.86 361.306 199.595 360.54C200.995 358.94 201.225 356.6 201.085 354.46C200.914 352.272 200.453 350.117 199.715 348.05L199.125 346.34L200.275 347.74C201.644 349.49 203.432 350.866 205.475 351.74C206.482 352.15 207.574 352.305 208.655 352.19C209.723 352.043 210.738 351.631 211.605 350.99C212.447 350.326 213.067 349.423 213.385 348.4C213.697 347.35 213.826 346.254 213.765 345.16C213.624 342.928 213.149 340.73 212.355 338.64C210.746 334.418 208.663 330.392 206.145 326.64C203.664 322.854 200.966 319.215 198.065 315.74L197.165 314.67L198.555 315.09C200.118 315.61 201.62 316.297 203.035 317.14C204.435 317.947 205.798 318.813 207.125 319.74C209.785 321.57 212.255 323.65 214.815 325.54C217.301 327.51 220.005 329.188 222.875 330.54C224.275 331.1 225.875 331.54 227.095 330.82C228.315 330.1 228.685 328.52 228.585 327.02C228.474 325.472 228.112 323.952 227.515 322.52C226.88 321.083 226.102 319.713 225.195 318.43C223.347 315.838 221.265 313.421 218.975 311.21C216.694 308.98 214.287 306.883 211.765 304.93C209.26 302.959 206.616 301.172 203.855 299.58L203.415 299.33L203.775 298.97C206.692 296.176 209.164 292.952 211.105 289.41C212.066 287.669 212.588 285.719 212.625 283.73C212.627 282.765 212.375 281.817 211.895 280.98C211.653 280.578 211.335 280.228 210.957 279.95C210.579 279.672 210.151 279.471 209.695 279.36C207.74 279.068 205.745 279.449 204.035 280.44C202.231 281.349 200.476 282.35 198.775 283.44C195.385 285.62 192.065 288.17 188.085 289.44C186.122 290.009 184.115 290.414 182.085 290.65C180.085 290.93 178.035 291.17 176.015 291.42C172.015 291.91 167.935 292.42 163.915 293.08C155.851 294.261 147.936 296.299 140.305 299.16C147.909 296.202 155.807 294.063 163.865 292.78C167.865 292.08 171.915 291.51 175.955 290.97L181.955 290.14C183.967 289.907 185.954 289.499 187.895 288.92C191.755 287.7 195.005 285.18 198.425 282.92C200.145 281.81 201.895 280.76 203.725 279.82C205.578 278.74 207.747 278.334 209.865 278.67C210.946 278.941 211.879 279.622 212.465 280.57C213.007 281.506 213.294 282.568 213.295 283.65C213.275 285.749 212.736 287.81 211.725 289.65C209.769 293.278 207.263 296.58 204.295 299.44L204.225 298.84C207.016 300.438 209.689 302.232 212.225 304.21C214.78 306.175 217.221 308.286 219.535 310.53C221.877 312.764 224.006 315.211 225.895 317.84C226.843 319.169 227.657 320.59 228.325 322.08C228.97 323.61 229.361 325.234 229.485 326.89C229.552 327.754 229.453 328.623 229.195 329.45C228.921 330.331 228.334 331.082 227.545 331.56C226.748 332.003 225.825 332.165 224.925 332.02C224.086 331.914 223.266 331.695 222.485 331.37C219.525 330.02 216.741 328.314 214.195 326.29C211.605 324.35 209.195 322.29 206.555 320.47C205.255 319.56 203.915 318.69 202.555 317.9C201.223 317.08 199.804 316.409 198.325 315.9L198.775 315.18C201.679 318.689 204.38 322.362 206.865 326.18C209.399 329.993 211.489 334.083 213.095 338.37C213.907 340.536 214.389 342.811 214.525 345.12C214.582 346.299 214.436 347.48 214.095 348.61C213.739 349.766 213.042 350.787 212.095 351.54C211.126 352.257 209.99 352.715 208.795 352.87C207.605 352.987 206.405 352.815 205.295 352.37C203.144 351.44 201.262 349.982 199.825 348.13L200.385 347.82C201.133 349.946 201.597 352.162 201.765 354.41C201.848 355.547 201.78 356.69 201.565 357.81C201.355 358.959 200.844 360.032 200.085 360.92C199.264 361.753 198.234 362.351 197.103 362.65C195.971 362.949 194.781 362.939 193.655 362.62C191.472 361.901 189.565 360.525 188.195 358.68L188.675 358.49C188.769 359.862 188.661 361.24 188.355 362.58C188.077 363.961 187.378 365.222 186.355 366.19C185.319 367.15 183.947 367.663 182.535 367.62C181.137 367.512 179.821 366.918 178.815 365.94C177.843 364.985 177.036 363.877 176.425 362.66C175.8 361.481 175.102 360.342 174.335 359.25C172.796 357.059 171.041 355.029 169.095 353.19H169.175C167.296 353.995 165.308 354.514 163.275 354.73C161.264 355.016 159.236 355.172 157.205 355.2Z" fill="#263238"/>
<path d="M43.375 265.25L84.545 280.08C84.545 280.08 94.285 251.08 94.955 232.68C95.625 214.28 84.685 216.14 72.285 229.13C59.885 242.12 43.375 265.25 43.375 265.25Z" fill="#9382FF"/>
<path d="M94.925 232.87C94.6852 234.374 94.2305 235.835 93.575 237.21C92.9636 238.601 92.1516 239.895 91.165 241.05C91.4033 239.549 91.8581 238.09 92.515 236.72C93.13 235.328 93.9416 234.031 94.925 232.87ZM49.665 267.52L50.755 267.91C51.3579 266.618 51.7753 265.248 51.995 263.84C51.0426 264.946 50.2576 266.186 49.665 267.52ZM75.585 262.01C76.092 263.438 76.8027 264.785 77.695 266.01C77.5731 264.497 77.2364 263.008 76.695 261.59C76.1762 260.165 75.4628 258.819 74.575 257.59C74.6979 259.104 75.038 260.593 75.585 262.01ZM63.225 241.4C62.3314 241.735 61.4625 242.133 60.625 242.59L59.955 243.43C61.2164 243.256 62.4543 242.941 63.645 242.49C65.0751 241.983 66.4229 241.269 67.645 240.37C66.1302 240.502 64.6419 240.848 63.225 241.4Z" fill="white"/>
<path d="M85.065 271.9C78.835 269.22 61.705 262.47 49.975 259.61C49.905 259.61 49.805 259.86 49.865 259.89C59.235 263.81 78.465 270.21 84.865 272.31C85.065 272.35 85.225 271.95 85.065 271.9Z" fill="#263238"/>
<path d="M93.065 256.3C93.065 256.24 92.995 256.21 92.965 256.3C92.225 257.72 91.565 259.16 90.965 260.63C91.685 257.41 92.3284 254.183 92.895 250.95C92.895 250.926 92.8856 250.903 92.8687 250.886C92.8518 250.869 92.8289 250.86 92.805 250.86C92.7812 250.86 92.7583 250.869 92.7414 250.886C92.7245 250.903 92.715 250.926 92.715 250.95C89.955 260.44 86.955 269.89 84.395 279.44C83.345 279.39 82.285 279.32 81.245 279.18C81.2117 279.178 81.1788 279.188 81.1522 279.208C81.1255 279.228 81.1069 279.257 81.0996 279.289C81.0924 279.322 81.097 279.356 81.1127 279.385C81.1283 279.415 81.154 279.438 81.185 279.45C82.325 279.73 83.445 280.09 84.555 280.45C84.6814 280.51 84.826 280.518 84.9585 280.473C85.0909 280.428 85.2008 280.334 85.265 280.21C87.2688 274.784 88.9386 269.24 90.265 263.61C90.695 262.75 91.115 261.89 91.485 261C92.13 259.476 92.6582 257.904 93.065 256.3Z" fill="#263238"/>
<path d="M95.335 220.67C95.535 222.9 103.825 238.37 113.745 239.32C116.975 239.63 119.425 222.06 119.425 222.06L119.905 220.8L126.565 203.22L107.195 186.47L104.375 184.22C104.375 184.22 102.865 189.15 101.055 195.31C100.965 195.59 100.875 195.88 100.795 196.18C100.715 196.48 100.565 196.86 100.485 197.18C100.195 198.1 99.915 199.04 99.645 199.98C99.445 200.69 99.245 201.38 99.055 202.14C98.865 202.9 98.665 203.63 98.455 204.39C96.575 211.87 95.275 219.67 95.335 220.67Z" fill="#D3766A"/>
<path d="M101.065 195.3C102.166 200.663 104.423 205.722 107.679 210.124C110.934 214.526 115.11 218.166 119.915 220.79L126.575 203.21L107.205 186.46L104.385 184.21C104.385 184.21 102.865 189.14 101.065 195.3Z" fill="#263238"/>
<path d="M155.455 177.73C153.755 210.73 133.825 213.39 126.725 213.01C120.275 212.67 98.355 210.7 96.635 177.74C94.915 144.78 110.785 135.16 125.575 135.16C140.365 135.16 157.155 144.78 155.455 177.73Z" fill="#D3766A"/>
<path d="M151.065 171.8C150.324 171.631 149.593 171.421 148.875 171.17C148.073 171.055 147.332 170.679 146.765 170.1C146.624 169.883 146.557 169.626 146.576 169.368C146.594 169.11 146.695 168.865 146.865 168.67C147.267 168.341 147.749 168.124 148.262 168.041C148.775 167.959 149.3 168.013 149.785 168.2C150.82 168.435 151.731 169.044 152.345 169.91C152.477 170.114 152.546 170.353 152.544 170.596C152.541 170.84 152.467 171.077 152.33 171.278C152.194 171.48 152.001 171.637 151.776 171.73C151.551 171.822 151.304 171.847 151.065 171.8Z" fill="#263238"/>
<path d="M130.065 170.4C130.835 170.4 131.555 170.2 132.315 170.09C133.127 170.096 133.919 169.832 134.565 169.34C134.738 169.146 134.842 168.901 134.86 168.642C134.878 168.383 134.809 168.126 134.665 167.91C134.319 167.524 133.876 167.238 133.381 167.081C132.887 166.925 132.36 166.904 131.855 167.02C130.796 167.1 129.803 167.566 129.065 168.33C128.909 168.516 128.81 168.743 128.779 168.984C128.749 169.225 128.79 169.47 128.895 169.689C129.001 169.907 129.167 170.091 129.375 170.217C129.583 170.343 129.822 170.407 130.065 170.4Z" fill="#263238"/>
<path d="M133.375 178.55C133.375 178.46 133.185 178.65 133.185 178.74C133.185 180.99 132.725 183.55 130.655 184.2C130.585 184.2 130.585 184.33 130.655 184.32C133.155 184.1 133.695 180.67 133.375 178.55Z" fill="#263238"/>
<path d="M131.485 176.11C127.885 175.65 127.245 182.87 130.575 183.3C133.905 183.73 134.495 176.49 131.485 176.11Z" fill="#263238"/>
<path d="M130.065 176.36C129.395 176.71 128.715 177.36 127.945 177.36C127.175 177.36 126.455 176.55 125.945 175.77C125.945 175.69 125.825 175.77 125.815 175.84C125.675 177.22 126.075 178.69 127.545 179.03C129.015 179.37 129.965 178.2 130.435 176.84C130.495 176.67 130.305 176.22 130.065 176.36Z" fill="#263238"/>
<path d="M145.645 179.17C145.645 179.09 145.805 179.29 145.795 179.39C145.505 181.61 145.545 184.22 147.505 185.16C147.565 185.16 147.505 185.3 147.505 185.28C145.065 184.67 145.065 181.24 145.645 179.17Z" fill="#263238"/>
<path d="M147.865 177.03C151.485 177.11 151.065 184.35 147.715 184.28C144.365 184.21 144.825 176.97 147.865 177.03Z" fill="#263238"/>
<path d="M149.345 177.59C149.895 178.01 150.425 178.74 151.105 178.83C151.785 178.92 152.525 178.18 153.105 177.45C153.165 177.38 153.215 177.45 153.215 177.54C153.165 178.92 152.625 180.34 151.285 180.54C149.945 180.74 149.235 179.47 148.985 178.07C148.905 177.8 149.125 177.43 149.345 177.59Z" fill="#263238"/>
<path d="M131.705 195.8C132.165 196.39 132.605 197.18 133.405 197.36C134.233 197.455 135.071 197.373 135.865 197.12C135.882 197.112 135.902 197.11 135.92 197.115C135.939 197.119 135.955 197.131 135.966 197.146C135.977 197.162 135.981 197.181 135.98 197.2C135.978 197.219 135.969 197.237 135.955 197.25C135.578 197.648 135.098 197.935 134.57 198.079C134.041 198.224 133.482 198.221 132.955 198.07C132.516 197.893 132.14 197.589 131.874 197.197C131.609 196.805 131.466 196.343 131.465 195.87C131.455 195.73 131.635 195.67 131.705 195.8Z" fill="#263238"/>
<path d="M141.255 189.51C141.255 189.51 141.455 192.89 141.335 194.51C141.335 194.65 135.475 195.39 133.265 191.31C133.238 191.277 133.226 191.235 133.231 191.192C133.236 191.15 133.257 191.112 133.29 191.085C133.323 191.058 133.365 191.046 133.408 191.051C133.45 191.056 133.488 191.077 133.515 191.11C135.422 192.642 137.771 193.518 140.215 193.61C140.355 193.18 139.675 187.83 139.925 187.83C141.142 188.032 142.327 188.398 143.445 188.92C143.225 181.86 141.885 174.92 141.775 167.87C141.779 167.821 141.8 167.776 141.833 167.74C141.866 167.704 141.91 167.681 141.958 167.673C142.006 167.665 142.055 167.673 142.098 167.696C142.141 167.719 142.175 167.756 142.195 167.8C144.115 175 144.545 183.11 144.955 190.39C145.065 191.26 141.865 189.82 141.255 189.51Z" fill="#263238"/>
<path d="M97.005 177.03C99.2671 176.547 101.365 175.485 103.093 173.947C104.822 172.41 106.121 170.45 106.865 168.26C135.105 167.57 144.445 150.05 144.445 150.05C149.865 164.8 154.705 167.33 155.495 169.55C155.495 169.55 157.845 156.76 153.575 147.01C149.795 138.38 140.095 129.14 124.835 131.1C116.185 132.21 108.905 139.7 108.905 139.7C108.905 139.7 99.555 140.7 95.725 148.22C89.305 160.86 97.005 177.03 97.005 177.03Z" fill="#263238"/>
<path d="M144.875 148.93C143.847 152.608 141.915 155.97 139.255 158.71C136.594 161.466 133.421 163.677 129.915 165.22L127.235 166.22C126.325 166.53 125.395 166.72 124.475 166.97C122.635 167.452 120.759 167.786 118.865 167.97C116.975 168.14 115.075 168.11 113.185 168.18C111.305 168.01 109.425 167.88 107.555 167.68C109.445 167.62 111.315 167.68 113.185 167.62C115.045 167.43 116.915 167.36 118.755 167.1C122.437 166.611 126.036 165.629 129.455 164.18C132.859 162.733 135.967 160.672 138.625 158.1C141.333 155.519 143.463 152.394 144.875 148.93Z" fill="#263238"/>
<path d="M126.005 189.39C124.086 188.982 122.32 188.044 120.907 186.682C119.495 185.32 118.494 183.589 118.017 181.685C117.54 179.782 117.607 177.783 118.211 175.916C118.814 174.049 119.929 172.389 121.43 171.125C122.93 169.861 124.755 169.043 126.697 168.765C128.64 168.487 130.621 168.759 132.416 169.552C134.211 170.344 135.747 171.625 136.85 173.247C137.953 174.87 138.578 176.769 138.655 178.73C138.761 181.506 137.761 184.21 135.875 186.25C133.989 188.29 131.371 189.498 128.595 189.61C127.726 189.639 126.857 189.565 126.005 189.39ZM130.065 170.26C129.325 170.106 128.57 170.042 127.815 170.07C125.512 170.164 123.331 171.132 121.717 172.777C120.103 174.422 119.176 176.621 119.126 178.925C119.076 181.23 119.906 183.467 121.447 185.18C122.988 186.894 125.124 187.956 127.421 188.15C129.718 188.344 132.002 187.656 133.809 186.224C135.616 184.793 136.809 182.727 137.146 180.447C137.483 178.167 136.938 175.844 135.623 173.951C134.307 172.059 132.32 170.739 130.065 170.26Z" fill="#455A64"/>
<path d="M149.955 191.5C146.035 190.66 143.335 185.89 143.845 180.45C144.039 177.843 145.046 175.363 146.725 173.36C147.39 172.454 148.278 171.736 149.302 171.274C150.327 170.812 151.453 170.622 152.572 170.722C153.691 170.823 154.765 171.21 155.691 171.848C156.616 172.485 157.362 173.35 157.855 174.36C159.135 176.639 159.666 179.263 159.375 181.86C158.835 187.61 154.915 191.97 150.635 191.57C150.405 191.58 150.175 191.55 149.955 191.5ZM152.955 172.22C152.784 172.178 152.61 172.151 152.435 172.14C151.54 172.095 150.648 172.266 149.834 172.638C149.019 173.011 148.306 173.574 147.755 174.28C146.273 176.064 145.385 178.267 145.215 180.58C144.745 185.58 147.215 189.88 150.745 190.21C154.275 190.54 157.495 186.75 157.955 181.77C158.217 179.466 157.752 177.137 156.625 175.11C156.251 174.401 155.733 173.778 155.104 173.281C154.476 172.783 153.751 172.422 152.975 172.22H152.955Z" fill="#455A64"/>
<path d="M138.195 179.9L137.395 178.75C139.105 177.57 142.925 176.13 145.225 179.09L144.115 179.95C142.065 177.29 138.355 179.8 138.195 179.9Z" fill="#455A64"/>
<path d="M91.465 178.24L90.285 177.48C90.635 176.93 93.825 172.1 96.985 171.89C99.985 171.7 118.465 175.2 119.255 175.35L118.995 176.72C113.685 175.72 99.355 173.13 97.075 173.29C94.995 173.43 92.315 176.91 91.465 178.24Z" fill="#455A64"/>
<path d="M101.985 178.09C101.985 178.09 96.265 166.9 91.285 168.8C86.305 170.7 89.615 186.23 94.765 189.01C95.4014 189.412 96.1125 189.681 96.8556 189.801C97.5987 189.921 98.3584 189.89 99.0889 189.708C99.8195 189.527 100.506 189.2 101.107 188.747C101.707 188.293 102.21 187.723 102.585 187.07L101.985 178.09Z" fill="#D3766A"/>
<path d="M92.345 173.23C92.255 173.23 92.225 173.33 92.295 173.37C95.895 175.44 97.405 179.25 98.295 183.11C97.355 181.54 95.925 180.56 93.845 181.64C93.8233 181.654 93.8068 181.676 93.7981 181.7C93.7894 181.725 93.789 181.752 93.7969 181.776C93.8048 181.801 93.8206 181.823 93.842 181.838C93.8633 181.853 93.8889 181.861 93.915 181.86C94.6154 181.739 95.336 181.839 95.9773 182.145C96.6187 182.451 97.149 182.949 97.495 183.57C98.0661 184.608 98.5253 185.705 98.865 186.84C98.995 187.21 99.635 187.11 99.565 186.7C99.5603 186.67 99.5603 186.64 99.565 186.61C100.325 181.76 97.495 174.44 92.345 173.23Z" fill="#263238"/>
<path d="M233.705 360.42C230.459 360.117 227.234 359.626 224.045 358.95C220.843 358.322 217.68 357.504 214.575 356.5C221.069 357.149 227.479 358.462 233.705 360.42Z" fill="#263238"/>
<path d="M261.525 351.89C261.135 348.06 261.045 344.23 261.025 340.4C260.997 336.561 261.164 332.722 261.525 328.9C261.886 332.722 262.053 336.561 262.025 340.4C262.005 344.23 261.915 348.06 261.525 351.89Z" fill="#263238"/>
<path d="M251.755 352.05C249.584 349.157 247.565 346.153 245.705 343.05C243.807 339.964 242.074 336.78 240.515 333.51C244.83 339.338 248.593 345.555 251.755 352.08V352.05Z" fill="#263238"/>
<path d="M216.715 334.37C218.935 336.08 221.085 337.87 223.225 339.67C225.365 341.47 227.455 343.31 229.545 345.17C231.635 347.03 233.695 348.91 235.715 350.84L238.715 353.73C239.715 354.73 240.715 355.73 241.715 356.73C240.605 355.88 239.525 354.99 238.435 354.12L235.215 351.43C233.075 349.64 230.985 347.79 228.895 345.93C226.805 344.07 224.745 342.19 222.725 340.26C220.705 338.33 218.665 336.39 216.715 334.37Z" fill="#263238"/>
<path d="M279.685 358.67C282.789 357.672 285.947 356.854 289.145 356.22C292.336 355.539 295.565 355.048 298.815 354.75C292.589 356.705 286.179 358.019 279.685 358.67Z" fill="#263238"/>
<path d="M295.065 332.41C293.125 334.41 291.065 336.36 289.065 338.28C287.065 340.2 284.965 342.08 282.895 343.95C280.825 345.82 278.715 347.66 276.565 349.45L273.355 352.14C272.255 353.01 271.185 353.9 270.065 354.75C271.065 353.75 272.065 352.75 273.065 351.75L276.065 348.86C278.065 346.93 280.165 345.06 282.235 343.19C284.305 341.32 286.415 339.48 288.565 337.69C290.715 335.9 292.855 334.12 295.065 332.41Z" fill="#263238"/>
<path d="M385.995 350.75L388.835 350.37L384.235 239.32L351.245 192.85L348.785 194.87L381.595 241.13L385.995 350.75Z" fill="#263238"/>
<path d="M386.945 240.23C386.945 241.021 386.71 241.794 386.271 242.452C385.831 243.11 385.207 243.623 384.476 243.926C383.745 244.228 382.941 244.307 382.165 244.153C381.389 243.999 380.676 243.618 380.117 243.058C379.557 242.499 379.176 241.786 379.022 241.01C378.868 240.234 378.947 239.43 379.249 238.699C379.552 237.968 380.065 237.344 380.723 236.904C381.381 236.465 382.154 236.23 382.945 236.23C384.006 236.23 385.023 236.651 385.773 237.402C386.524 238.152 386.945 239.169 386.945 240.23Z" fill="#9382FF"/>
<path d="M354.375 194.27C354.375 195.061 354.14 195.834 353.701 196.492C353.261 197.15 352.637 197.663 351.906 197.966C351.175 198.268 350.371 198.347 349.595 198.193C348.819 198.039 348.106 197.658 347.547 197.098C346.987 196.539 346.606 195.826 346.452 195.05C346.298 194.274 346.377 193.47 346.679 192.739C346.982 192.008 347.495 191.384 348.153 190.944C348.81 190.505 349.584 190.27 350.375 190.27C351.436 190.27 352.453 190.691 353.203 191.442C353.954 192.192 354.375 193.209 354.375 194.27Z" fill="#9382FF"/>
<path d="M322.955 195.84L338.505 219.61L348.785 210.24L355.045 204.53L343.375 186.73L335.635 190.18L322.955 195.84Z" fill="#9382FF"/>
<path opacity="0.1" d="M322.955 195.84L338.505 219.61L348.785 210.24L335.635 190.18L322.955 195.84Z" fill="black"/>
<path d="M294.215 202.03L321.345 243.47L347.255 219.09L326.925 188.03L294.215 202.03Z" fill="#9382FF"/>
<path d="M361.465 360.43H410.375L407.365 345.07H364.465L361.465 360.43Z" fill="#9382FF"/>
<path d="M201.905 99.25C201.322 104.829 199.201 110.136 195.777 114.579C192.353 119.023 187.763 122.427 182.517 124.413C177.271 126.4 171.577 126.889 166.069 125.827C160.561 124.765 155.456 122.194 151.325 118.4L136.175 120.67L143.755 107.57C141.863 102.961 141.148 97.954 141.675 93C142.063 89.0251 143.234 85.1663 145.12 81.6459C147.006 78.1254 149.57 75.0128 152.664 72.4873C155.758 69.9618 159.321 68.0733 163.147 66.9305C166.974 65.7878 170.989 65.4134 174.962 65.8289C178.934 66.2443 182.784 67.4415 186.292 69.3514C189.799 71.2613 192.894 73.8462 195.399 76.9573C197.903 80.0684 199.767 83.6442 200.884 87.4787C202.001 91.3132 202.348 95.3308 201.905 99.3V99.25Z" fill="white"/>
<path d="M201.905 99.25C201.321 104.829 199.207 110.138 195.795 114.59C194.128 116.84 192.125 118.82 189.855 120.46C185.357 123.846 180.01 125.923 174.405 126.46C173.005 126.582 171.599 126.608 170.195 126.54C168.789 126.508 167.387 126.361 166.005 126.1C160.414 125.082 155.219 122.523 151.005 118.71L151.365 118.82L136.235 121.14L135.135 121.31L135.685 120.31L143.225 107.19V107.71C141.447 103.367 140.691 98.6737 141.015 93.9922C141.339 89.3106 142.735 84.7662 145.095 80.71C147.453 76.6714 150.694 73.2185 154.575 70.61C159.403 67.4003 165.044 65.6292 170.84 65.5031C176.636 65.377 182.348 66.9011 187.311 69.8978C192.274 72.8944 196.283 77.2401 198.871 82.4281C201.458 87.6162 202.517 93.4329 201.925 99.2L201.905 99.25ZM201.905 99.25C202.38 94.6926 201.804 90.087 200.223 85.7866C198.641 81.4862 196.095 77.6052 192.781 74.4413C189.466 71.2775 185.471 68.915 181.102 67.5349C176.733 66.1549 172.105 65.794 167.575 66.48C163.082 67.149 158.803 68.839 155.065 71.42C151.363 74.0163 148.272 77.3878 146.005 81.3C143.777 85.2267 142.465 89.6055 142.165 94.11C141.885 98.6104 142.613 103.117 144.295 107.3L144.405 107.57L144.265 107.82L136.635 120.89L136.095 120.09L151.255 117.97H151.465L151.615 118.11C155.659 121.899 160.681 124.482 166.115 125.57C167.469 125.851 168.843 126.019 170.225 126.07C171.603 126.17 172.987 126.17 174.365 126.07C177.131 125.854 179.854 125.255 182.455 124.29C185.068 123.342 187.528 122.014 189.755 120.35C190.876 119.527 191.944 118.635 192.955 117.68C193.937 116.696 194.856 115.651 195.705 114.55C199.146 110.121 201.292 104.825 201.905 99.25Z" fill="#263238"/>
<path d="M188.675 97.02C188.675 97.7459 188.46 98.4554 188.056 99.0589C187.653 99.6625 187.08 100.133 186.409 100.411C185.739 100.688 185.001 100.761 184.289 100.619C183.577 100.478 182.923 100.128 182.41 99.6151C181.897 99.1018 181.547 98.4479 181.405 97.736C181.264 97.0241 181.337 96.2862 181.614 95.6156C181.892 94.9449 182.362 94.3718 182.966 93.9685C183.57 93.5652 184.279 93.35 185.005 93.35C185.487 93.3487 185.965 93.4427 186.411 93.6267C186.857 93.8106 187.262 94.0809 187.603 94.422C187.944 94.763 188.214 95.1681 188.398 95.614C188.582 96.0598 188.676 96.5377 188.675 97.02Z" fill="#263238"/>
<path d="M175.535 97.02C175.535 97.7463 175.32 98.4562 174.916 99.06C174.512 99.6637 173.938 100.134 173.267 100.412C172.596 100.689 171.858 100.761 171.145 100.619C170.433 100.476 169.779 100.126 169.266 99.6115C168.754 99.0973 168.405 98.4424 168.264 97.7298C168.124 97.0173 168.198 96.279 168.477 95.6086C168.757 94.9382 169.229 94.3657 169.833 93.9636C170.438 93.5616 171.149 93.348 171.875 93.35C172.356 93.35 172.833 93.445 173.278 93.6295C173.723 93.8141 174.127 94.0846 174.467 94.4255C174.807 94.7664 175.076 95.1711 175.259 95.6163C175.443 96.0615 175.536 96.5385 175.535 97.02Z" fill="#263238"/>
<path d="M162.405 97.02C162.405 97.7459 162.19 98.4554 161.787 99.0589C161.383 99.6625 160.81 100.133 160.139 100.411C159.469 100.688 158.731 100.761 158.019 100.619C157.307 100.478 156.653 100.128 156.14 99.6151C155.627 99.1018 155.277 98.4479 155.136 97.736C154.994 97.0241 155.067 96.2862 155.344 95.6156C155.622 94.9449 156.093 94.3718 156.696 93.9685C157.3 93.5652 158.009 93.35 158.735 93.35C159.217 93.3487 159.695 93.4427 160.141 93.6267C160.587 93.8106 160.992 94.0809 161.333 94.422C161.674 94.763 161.944 95.1681 162.128 95.614C162.312 96.0598 162.406 96.5377 162.405 97.02Z" fill="#263238"/>
<path d="M252.825 139.97H171.285V184.94H252.825V139.97Z" fill="#455A64"/>
<path d="M237.105 184.94H252.825V196.31L237.105 184.94Z" fill="#455A64"/>
<path d="M218.175 148.27H181.205V149.28H218.175V148.27Z" fill="white"/>
<path d="M243.295 153.74H181.205V154.75H243.295V153.74Z" fill="white"/>
<path d="M243.295 159.21H181.205V160.22H243.295V159.21Z" fill="white"/>
<path d="M231.395 164.68H181.205V165.69H231.395V164.68Z" fill="white"/>
<path d="M243.295 170.15H181.205V171.16H243.295V170.15Z" fill="white"/>
<path d="M204.045 175.62H181.205V176.63H204.045V175.62Z" fill="white"/>
<path d="M280.105 201.3H199.115V234.66H280.105V201.3Z" fill="#9382FF"/>
<path d="M280.105 245.37V234.65H263.845L280.105 245.37Z" fill="#9382FF"/>
<path d="M270.375 209.6H208.965V210.61H270.375V209.6Z" fill="white"/>
<path d="M244.005 215.07H208.965V216.08H244.005V215.07Z" fill="white"/>
<path d="M256.325 220.54H208.965V221.55H256.325V220.54Z" fill="white"/>
<path d="M225.465 226.01H208.965V227.02H225.465V226.01Z" fill="white"/>
<path d="M222.055 364.23H213.925V369.54H222.055V364.23Z" fill="#EBEBEB"/>
<path d="M232.595 363.88H224.465V369.19H232.595V363.88Z" fill="#EBEBEB"/>
<path d="M243.145 363.53H235.015V368.84H243.145V363.53Z" fill="#EBEBEB"/>
<path d="M253.685 363.18H245.555V368.49H253.685V363.18Z" fill="#EBEBEB"/>
<path d="M264.235 362.83H256.105V368.14H264.235V362.83Z" fill="#EBEBEB"/>
<path d="M274.775 362.48H266.645V367.79H274.775V362.48Z" fill="#EBEBEB"/>
<path d="M285.315 362.13H277.185V367.44H285.315V362.13Z" fill="#EBEBEB"/>
<path d="M295.865 361.78H287.735V367.09H295.865V361.78Z" fill="#EBEBEB"/>
<path d="M306.405 361.43H298.275V366.74H306.405V361.43Z" fill="#EBEBEB"/>
<path d="M308.395 372.6H211.935V366.13L308.395 363.44V372.6Z" fill="#DBDBDB"/>
<path d="M380.335 350.23H245.935L267.305 250.17H401.705L380.335 350.23Z" fill="#EBEBEB"/>
<path d="M385.305 350.23H250.905L272.275 250.17H406.675L385.305 350.23Z" fill="#DBDBDB"/>
<path d="M337.312 300.018C340.958 296.649 341.581 291.392 338.702 288.276C335.824 285.161 330.534 285.367 326.887 288.737C323.241 292.107 322.618 297.364 325.497 300.479C328.376 303.594 333.665 303.388 337.312 300.018Z" fill="white"/>
<path d="M347.295 376.36H281.195V371.22L347.295 369.09V376.36Z" fill="#EBEBEB"/>
<path d="M365.265 376.35H329.775L308.395 320.28H343.885L365.265 376.35Z" fill="#EBEBEB"/>
<path d="M371.105 376.35H335.615L314.245 320.28H349.735L371.105 376.35Z" fill="#A6A6A6"/>
<path d="M203.065 377.72H134.955C129.145 377.72 137.555 361.16 158.785 354.81C180.015 348.46 209.805 371.51 203.065 377.72Z" fill="#DBDBDB"/>
<path d="M176.365 377.72C176.42 375.833 176.733 373.962 177.295 372.16C177.848 370.343 178.62 368.6 179.595 366.97C180.566 365.33 181.784 363.85 183.205 362.58C184.611 361.304 186.233 360.288 187.995 359.58C187.265 360.18 186.435 360.58 185.765 361.25L184.765 362.14L183.765 363.14C182.501 364.458 181.394 365.918 180.465 367.49C179.521 369.062 178.712 370.712 178.045 372.42C177.367 374.147 176.805 375.918 176.365 377.72Z" fill="#263238"/>
<path d="M184.445 361.96C186.463 362.611 188.428 363.413 190.325 364.36C192.234 365.303 194.066 366.393 195.805 367.62C197.57 368.839 199.167 370.285 200.555 371.92C201.236 372.758 201.826 373.667 202.315 374.63C202.783 375.597 203.052 376.647 203.105 377.72C202.866 376.704 202.453 375.736 201.885 374.86C201.334 373.986 200.694 373.172 199.975 372.43C198.518 370.954 196.928 369.615 195.225 368.43C193.535 367.21 191.745 366.12 189.955 365.04C189.055 364.5 188.145 363.98 187.215 363.48C186.285 362.98 185.375 362.47 184.445 361.96Z" fill="#263238"/>
<path opacity="0.6" d="M76.665 344.28C76.665 344.28 100.965 333.08 100.965 318.07C100.965 303.06 69.445 293.4 69.445 281.67C69.445 269.94 83.195 263.03 83.195 263.03C83.195 263.03 61.475 270.45 61.475 285.29C61.475 300.13 82.255 310.18 84.245 319.63C87.005 332.74 76.665 344.28 76.665 344.28Z" fill="#DBDBDB"/>
<path opacity="0.6" d="M77.865 344.28C77.865 344.28 53.555 335.48 53.555 323.68C53.555 311.88 85.065 304.28 85.065 295.05C85.065 285.82 71.325 280.4 71.325 280.4C71.325 280.4 93.065 286.23 93.065 297.9C93.065 309.57 69.205 317.59 67.495 327.07C65.805 336.36 77.865 344.28 77.865 344.28Z" fill="#DBDBDB"/>
<path d="M88.475 382.03H65.355V385.64H88.475V382.03Z" fill="#455A64"/>
<path d="M88.475 382.03H65.355V384.41H88.475V382.03Z" fill="#263238"/>
<path d="M37.915 372.32C39.3183 374.399 41.2905 376.029 43.5958 377.017C45.9011 378.005 48.442 378.308 50.915 377.89C51.7149 377.743 52.4986 377.519 53.255 377.22C54.4054 376.77 55.5022 376.193 56.525 375.5L53.585 371.14C53.0432 371.53 52.4636 371.865 51.855 372.14C46.345 374.64 42.855 370.29 42.175 369.3C39.065 364.84 37.895 354.67 41.065 350.75C41.275 350.46 42.205 350 45.925 350.8C46.615 350.95 47.395 351.12 48.275 351.37C48.9582 351.602 49.6664 351.753 50.385 351.82L50.485 349.21L50.735 346.6C50.495 346.6 50.125 346.45 49.635 346.31C47.9139 345.806 46.1548 345.441 44.375 345.22C41.635 344.93 38.765 345.22 37.005 347.43C31.825 353.82 33.945 366.74 37.915 372.32Z" fill="#455A64"/>
<path d="M53.605 371.14C53.0632 371.53 52.4836 371.865 51.875 372.14L53.275 377.23C54.4254 376.78 55.5222 376.203 56.545 375.51L53.605 371.14Z" fill="#263238"/>
<path d="M44.415 345.22L45.965 350.8C46.655 350.95 47.435 351.12 48.315 351.37C48.9982 351.602 49.7064 351.753 50.425 351.82L50.525 349.21L50.775 346.6C50.535 346.6 50.165 346.45 49.675 346.31C47.9539 345.806 46.1948 345.441 44.415 345.22Z" fill="#263238"/>
<path d="M107.675 338.4C107.675 338.4 104.895 361.96 100.105 371.89C95.315 381.82 88.635 382.89 84.475 382.89H69.355C65.205 382.89 58.515 381.78 53.725 371.89C48.935 362 46.165 338.4 46.165 338.4H107.675Z" fill="#455A64"/>
<path d="M56.205 345.13C56.205 345.67 56.0449 346.198 55.7449 346.647C55.4449 347.096 55.0186 347.446 54.5197 347.652C54.0209 347.859 53.472 347.913 52.9424 347.808C52.4128 347.702 51.9264 347.442 51.5446 347.06C51.1628 346.679 50.9028 346.192 50.7975 345.663C50.6921 345.133 50.7462 344.584 50.9528 344.085C51.1594 343.586 51.5093 343.16 51.9583 342.86C52.4072 342.56 52.9351 342.4 53.475 342.4C53.8335 342.4 54.1885 342.471 54.5197 342.608C54.8509 342.745 55.1519 342.946 55.4054 343.2C55.6589 343.453 55.86 343.754 55.9972 344.085C56.1344 344.416 56.205 344.771 56.205 345.13ZM77.575 341.83C77.0351 341.83 76.5072 341.99 76.0583 342.29C75.6093 342.59 75.2594 343.016 75.0528 343.515C74.8462 344.014 74.7921 344.563 74.8975 345.093C75.0028 345.622 75.2628 346.109 75.6446 346.49C76.0264 346.872 76.5128 347.132 77.0424 347.238C77.572 347.343 78.1209 347.289 78.6197 347.082C79.1186 346.876 79.5449 346.526 79.8449 346.077C80.1449 345.628 80.305 345.1 80.305 344.56C80.305 343.836 80.0174 343.142 79.5054 342.63C78.9934 342.118 78.299 341.83 77.575 341.83ZM77.575 376.12C77.0351 376.12 76.5072 376.28 76.0583 376.58C75.6093 376.88 75.2594 377.306 75.0528 377.805C74.8462 378.304 74.7921 378.853 74.8975 379.383C75.0028 379.912 75.2628 380.399 75.6446 380.78C76.0264 381.162 76.5128 381.422 77.0424 381.528C77.572 381.633 78.1209 381.579 78.6197 381.372C79.1186 381.166 79.5449 380.816 79.8449 380.367C80.1449 379.918 80.305 379.39 80.305 378.85C80.305 378.126 80.0174 377.432 79.5054 376.92C78.9934 376.408 78.299 376.12 77.575 376.12ZM97.375 360.67C96.8351 360.67 96.3072 360.83 95.8583 361.13C95.4093 361.43 95.0594 361.856 94.8528 362.355C94.6462 362.854 94.5921 363.403 94.6975 363.933C94.8028 364.462 95.0628 364.949 95.4446 365.33C95.8264 365.712 96.3128 365.972 96.8424 366.078C97.372 366.183 97.9209 366.129 98.4197 365.922C98.9186 365.716 99.3449 365.366 99.6449 364.917C99.9449 364.468 100.105 363.94 100.105 363.4C100.105 362.676 99.8174 361.982 99.3054 361.47C98.7934 360.958 98.099 360.67 97.375 360.67ZM67.065 368.72C66.5251 368.72 65.9972 368.88 65.5483 369.18C65.0993 369.48 64.7494 369.906 64.5428 370.405C64.3362 370.904 64.2821 371.453 64.3875 371.983C64.4928 372.512 64.7528 372.999 65.1346 373.38C65.5164 373.762 66.0028 374.022 66.5324 374.128C67.062 374.233 67.6109 374.179 68.1097 373.972C68.6086 373.766 69.0349 373.416 69.3349 372.967C69.6349 372.518 69.795 371.99 69.795 371.45C69.795 370.726 69.5074 370.032 68.9954 369.52C68.4834 369.008 67.789 368.72 67.065 368.72ZM99.065 341.83C98.5251 341.83 97.9972 341.99 97.5483 342.29C97.0993 342.59 96.7494 343.016 96.5428 343.515C96.3362 344.014 96.2821 344.563 96.3874 345.093C96.4928 345.622 96.7528 346.109 97.1346 346.49C97.5164 346.872 98.0028 347.132 98.5324 347.238C99.062 347.343 99.6109 347.289 100.11 347.082C100.609 346.876 101.035 346.526 101.335 346.077C101.635 345.628 101.795 345.1 101.795 344.56C101.795 343.836 101.507 343.142 100.995 342.63C100.483 342.118 99.789 341.83 99.065 341.83ZM77.215 360.23C76.6751 360.23 76.1472 360.39 75.6983 360.69C75.2493 360.99 74.8994 361.416 74.6928 361.915C74.4862 362.414 74.4321 362.963 74.5375 363.493C74.6428 364.022 74.9028 364.509 75.2846 364.89C75.6664 365.272 76.1528 365.532 76.6824 365.638C77.212 365.743 77.7609 365.689 78.2597 365.482C78.7586 365.276 79.1849 364.926 79.4849 364.477C79.7849 364.028 79.945 363.5 79.945 362.96C79.945 362.241 79.6615 361.551 79.156 361.04C78.6505 360.529 77.9638 360.238 77.245 360.23H77.215ZM56.515 360.66C55.9751 360.66 55.4472 360.82 54.9983 361.12C54.5493 361.42 54.1994 361.846 53.9928 362.345C53.7862 362.844 53.7321 363.393 53.8375 363.923C53.9428 364.452 54.2028 364.939 54.5846 365.32C54.9664 365.702 55.4528 365.962 55.9824 366.068C56.512 366.173 57.0609 366.119 57.5597 365.912C58.0586 365.706 58.4849 365.356 58.7849 364.907C59.0849 364.458 59.245 363.93 59.245 363.39C59.2424 362.673 58.9577 361.986 58.4525 361.477C57.9473 360.968 57.2621 360.678 56.545 360.67L56.515 360.66ZM88.445 351.52C87.9051 351.52 87.3772 351.68 86.9283 351.98C86.4793 352.28 86.1294 352.706 85.9228 353.205C85.7162 353.704 85.6621 354.253 85.7675 354.783C85.8728 355.312 86.1328 355.799 86.5146 356.18C86.8964 356.562 87.3828 356.822 87.9124 356.928C88.442 357.033 88.9909 356.979 89.4897 356.772C89.9886 356.566 90.4149 356.216 90.7149 355.767C91.0149 355.318 91.175 354.79 91.175 354.25C91.175 353.531 90.8915 352.841 90.386 352.33C89.8805 351.819 89.1938 351.528 88.475 351.52H88.445ZM87.705 369.17C87.1646 369.168 86.6358 369.326 86.1856 369.625C85.7353 369.924 85.3838 370.35 85.1757 370.848C84.9675 371.347 84.912 371.896 85.0162 372.426C85.1205 372.957 85.3797 373.444 85.7611 373.827C86.1425 374.21 86.6289 374.471 87.1587 374.577C87.6886 374.683 88.238 374.629 88.7374 374.423C89.2368 374.217 89.6638 373.867 89.9642 373.418C90.2646 372.969 90.425 372.44 90.425 371.9C90.4251 371.183 90.143 370.494 89.6396 369.984C89.1362 369.473 88.4521 369.18 87.735 369.17H87.705ZM65.705 351.52C65.1646 351.518 64.6358 351.676 64.1856 351.975C63.7353 352.274 63.3838 352.7 63.1757 353.198C62.9675 353.697 62.912 354.246 63.0162 354.776C63.1204 355.307 63.3797 355.794 63.7611 356.177C64.1425 356.56 64.6289 356.821 65.1587 356.927C65.6885 357.033 66.238 356.979 66.7374 356.773C67.2368 356.567 67.6638 356.217 67.9642 355.768C68.2646 355.319 68.425 354.79 68.425 354.25C68.4251 353.535 68.1444 352.848 67.6432 352.337C67.142 351.826 66.4603 351.533 65.745 351.52H65.705Z" fill="#37474F"/>
</g>
<defs>
<clipPath id="clip0_202_1495">
<rect width="409.78" height="385.64" fill="white" transform="translate(0.595001)"/>
</clipPath>
</defs>
</svg>
